%TF.GenerationSoftware,KiCad,Pcbnew,9.0.6*%
%TF.CreationDate,2025-12-23T20:00:14-05:00*%
%TF.ProjectId,TacoCopter_Flight_Controller,5461636f-436f-4707-9465-725f466c6967,rev?*%
%TF.SameCoordinates,Original*%
%TF.FileFunction,Drillmap*%
%TF.FilePolarity,Positive*%
%FSLAX45Y45*%
G04 Gerber Fmt 4.5, Leading zero omitted, Abs format (unit mm)*
G04 Created by KiCad (PCBNEW 9.0.6) date 2025-12-23 20:00:14*
%MOMM*%
%LPD*%
G01*
G04 APERTURE LIST*
%ADD10C,0.050000*%
%ADD11C,0.200000*%
%ADD12C,0.185000*%
%ADD13C,0.220000*%
G04 APERTURE END LIST*
D10*
X18900000Y-11700000D02*
X18900000Y-8250000D01*
X9600000Y-8650000D02*
G75*
G02*
X9200000Y-8650000I-200000J0D01*
G01*
X9200000Y-8650000D02*
G75*
G02*
X9600000Y-8650000I200000J0D01*
G01*
X9600000Y-11350000D02*
G75*
G02*
X9200000Y-11350000I-200000J0D01*
G01*
X9200000Y-11350000D02*
G75*
G02*
X9600000Y-11350000I200000J0D01*
G01*
X13100000Y-7650000D02*
X9000000Y-7650000D01*
X16900000Y-7650000D02*
X16900000Y-2500000D01*
X18300000Y-11350000D02*
G75*
G02*
X17900000Y-11350000I-200000J0D01*
G01*
X17900000Y-11350000D02*
G75*
G02*
X18300000Y-11350000I200000J0D01*
G01*
X9000000Y-7650000D02*
X9000000Y-12900000D01*
X18300000Y-8650000D02*
G75*
G02*
X17900000Y-8650000I-200000J0D01*
G01*
X17900000Y-8650000D02*
G75*
G02*
X18300000Y-8650000I200000J0D01*
G01*
X13100000Y-2500000D02*
X13100000Y-7650000D01*
X9000000Y-12900000D02*
X12900000Y-12900000D01*
X18900000Y-8250000D02*
X16900000Y-7650000D01*
X17100000Y-12700000D02*
X18900000Y-11700000D01*
X12900000Y-16500000D02*
X17100000Y-16500000D01*
X12100000Y-11350000D02*
G75*
G02*
X11700000Y-11350000I-200000J0D01*
G01*
X11700000Y-11350000D02*
G75*
G02*
X12100000Y-11350000I200000J0D01*
G01*
X17100000Y-16500000D02*
X17100000Y-12700000D01*
X12900000Y-12900000D02*
X12900000Y-16500000D01*
X12100000Y-8650000D02*
G75*
G02*
X11700000Y-8650000I-200000J0D01*
G01*
X11700000Y-8650000D02*
G75*
G02*
X12100000Y-8650000I200000J0D01*
G01*
X16900000Y-2500000D02*
X13100000Y-2500000D01*
D11*
D12*
X9413500Y-9654000D02*
X9598500Y-9839000D01*
X9598500Y-9654000D02*
X9413500Y-9839000D01*
X9413500Y-10139000D02*
X9598500Y-10324000D01*
X9598500Y-10139000D02*
X9413500Y-10324000D01*
D13*
X9313000Y-9716500D02*
G75*
G02*
X9093000Y-9716500I-110000J0D01*
G01*
X9093000Y-9716500D02*
G75*
G02*
X9313000Y-9716500I110000J0D01*
G01*
X9313000Y-10261500D02*
G75*
G02*
X9093000Y-10261500I-110000J0D01*
G01*
X9093000Y-10261500D02*
G75*
G02*
X9313000Y-10261500I110000J0D01*
G01*
D11*
X9258277Y-16813984D02*
X9258277Y-16613984D01*
X9258277Y-16613984D02*
X9305896Y-16613984D01*
X9305896Y-16613984D02*
X9334467Y-16623508D01*
X9334467Y-16623508D02*
X9353515Y-16642555D01*
X9353515Y-16642555D02*
X9363039Y-16661603D01*
X9363039Y-16661603D02*
X9372563Y-16699698D01*
X9372563Y-16699698D02*
X9372563Y-16728269D01*
X9372563Y-16728269D02*
X9363039Y-16766365D01*
X9363039Y-16766365D02*
X9353515Y-16785412D01*
X9353515Y-16785412D02*
X9334467Y-16804460D01*
X9334467Y-16804460D02*
X9305896Y-16813984D01*
X9305896Y-16813984D02*
X9258277Y-16813984D01*
X9458277Y-16813984D02*
X9458277Y-16680650D01*
X9458277Y-16718746D02*
X9467801Y-16699698D01*
X9467801Y-16699698D02*
X9477324Y-16690174D01*
X9477324Y-16690174D02*
X9496372Y-16680650D01*
X9496372Y-16680650D02*
X9515420Y-16680650D01*
X9582086Y-16813984D02*
X9582086Y-16680650D01*
X9582086Y-16613984D02*
X9572563Y-16623508D01*
X9572563Y-16623508D02*
X9582086Y-16633031D01*
X9582086Y-16633031D02*
X9591610Y-16623508D01*
X9591610Y-16623508D02*
X9582086Y-16613984D01*
X9582086Y-16613984D02*
X9582086Y-16633031D01*
X9705896Y-16813984D02*
X9686848Y-16804460D01*
X9686848Y-16804460D02*
X9677324Y-16785412D01*
X9677324Y-16785412D02*
X9677324Y-16613984D01*
X9810658Y-16813984D02*
X9791610Y-16804460D01*
X9791610Y-16804460D02*
X9782086Y-16785412D01*
X9782086Y-16785412D02*
X9782086Y-16613984D01*
X10039229Y-16813984D02*
X10039229Y-16613984D01*
X10039229Y-16613984D02*
X10105896Y-16756841D01*
X10105896Y-16756841D02*
X10172563Y-16613984D01*
X10172563Y-16613984D02*
X10172563Y-16813984D01*
X10353515Y-16813984D02*
X10353515Y-16709222D01*
X10353515Y-16709222D02*
X10343991Y-16690174D01*
X10343991Y-16690174D02*
X10324944Y-16680650D01*
X10324944Y-16680650D02*
X10286848Y-16680650D01*
X10286848Y-16680650D02*
X10267801Y-16690174D01*
X10353515Y-16804460D02*
X10334467Y-16813984D01*
X10334467Y-16813984D02*
X10286848Y-16813984D01*
X10286848Y-16813984D02*
X10267801Y-16804460D01*
X10267801Y-16804460D02*
X10258277Y-16785412D01*
X10258277Y-16785412D02*
X10258277Y-16766365D01*
X10258277Y-16766365D02*
X10267801Y-16747317D01*
X10267801Y-16747317D02*
X10286848Y-16737793D01*
X10286848Y-16737793D02*
X10334467Y-16737793D01*
X10334467Y-16737793D02*
X10353515Y-16728269D01*
X10448753Y-16680650D02*
X10448753Y-16880650D01*
X10448753Y-16690174D02*
X10467801Y-16680650D01*
X10467801Y-16680650D02*
X10505896Y-16680650D01*
X10505896Y-16680650D02*
X10524944Y-16690174D01*
X10524944Y-16690174D02*
X10534467Y-16699698D01*
X10534467Y-16699698D02*
X10543991Y-16718746D01*
X10543991Y-16718746D02*
X10543991Y-16775888D01*
X10543991Y-16775888D02*
X10534467Y-16794936D01*
X10534467Y-16794936D02*
X10524944Y-16804460D01*
X10524944Y-16804460D02*
X10505896Y-16813984D01*
X10505896Y-16813984D02*
X10467801Y-16813984D01*
X10467801Y-16813984D02*
X10448753Y-16804460D01*
X10629705Y-16794936D02*
X10639229Y-16804460D01*
X10639229Y-16804460D02*
X10629705Y-16813984D01*
X10629705Y-16813984D02*
X10620182Y-16804460D01*
X10620182Y-16804460D02*
X10629705Y-16794936D01*
X10629705Y-16794936D02*
X10629705Y-16813984D01*
X10629705Y-16690174D02*
X10639229Y-16699698D01*
X10639229Y-16699698D02*
X10629705Y-16709222D01*
X10629705Y-16709222D02*
X10620182Y-16699698D01*
X10620182Y-16699698D02*
X10629705Y-16690174D01*
X10629705Y-16690174D02*
X10629705Y-16709222D01*
D12*
X8812500Y-17050000D02*
X8997500Y-17235000D01*
X8997500Y-17050000D02*
X8812500Y-17235000D01*
D11*
X9363039Y-17233984D02*
X9248753Y-17233984D01*
X9305896Y-17233984D02*
X9305896Y-17033984D01*
X9305896Y-17033984D02*
X9286848Y-17062555D01*
X9286848Y-17062555D02*
X9267801Y-17081603D01*
X9267801Y-17081603D02*
X9248753Y-17091127D01*
X9448753Y-17214936D02*
X9458277Y-17224460D01*
X9458277Y-17224460D02*
X9448753Y-17233984D01*
X9448753Y-17233984D02*
X9439229Y-17224460D01*
X9439229Y-17224460D02*
X9448753Y-17214936D01*
X9448753Y-17214936D02*
X9448753Y-17233984D01*
X9572563Y-17119698D02*
X9553515Y-17110174D01*
X9553515Y-17110174D02*
X9543991Y-17100650D01*
X9543991Y-17100650D02*
X9534467Y-17081603D01*
X9534467Y-17081603D02*
X9534467Y-17072079D01*
X9534467Y-17072079D02*
X9543991Y-17053031D01*
X9543991Y-17053031D02*
X9553515Y-17043508D01*
X9553515Y-17043508D02*
X9572563Y-17033984D01*
X9572563Y-17033984D02*
X9610658Y-17033984D01*
X9610658Y-17033984D02*
X9629705Y-17043508D01*
X9629705Y-17043508D02*
X9639229Y-17053031D01*
X9639229Y-17053031D02*
X9648753Y-17072079D01*
X9648753Y-17072079D02*
X9648753Y-17081603D01*
X9648753Y-17081603D02*
X9639229Y-17100650D01*
X9639229Y-17100650D02*
X9629705Y-17110174D01*
X9629705Y-17110174D02*
X9610658Y-17119698D01*
X9610658Y-17119698D02*
X9572563Y-17119698D01*
X9572563Y-17119698D02*
X9553515Y-17129222D01*
X9553515Y-17129222D02*
X9543991Y-17138746D01*
X9543991Y-17138746D02*
X9534467Y-17157793D01*
X9534467Y-17157793D02*
X9534467Y-17195889D01*
X9534467Y-17195889D02*
X9543991Y-17214936D01*
X9543991Y-17214936D02*
X9553515Y-17224460D01*
X9553515Y-17224460D02*
X9572563Y-17233984D01*
X9572563Y-17233984D02*
X9610658Y-17233984D01*
X9610658Y-17233984D02*
X9629705Y-17224460D01*
X9629705Y-17224460D02*
X9639229Y-17214936D01*
X9639229Y-17214936D02*
X9648753Y-17195889D01*
X9648753Y-17195889D02*
X9648753Y-17157793D01*
X9648753Y-17157793D02*
X9639229Y-17138746D01*
X9639229Y-17138746D02*
X9629705Y-17129222D01*
X9629705Y-17129222D02*
X9610658Y-17119698D01*
X9829705Y-17033984D02*
X9734467Y-17033984D01*
X9734467Y-17033984D02*
X9724944Y-17129222D01*
X9724944Y-17129222D02*
X9734467Y-17119698D01*
X9734467Y-17119698D02*
X9753515Y-17110174D01*
X9753515Y-17110174D02*
X9801134Y-17110174D01*
X9801134Y-17110174D02*
X9820182Y-17119698D01*
X9820182Y-17119698D02*
X9829705Y-17129222D01*
X9829705Y-17129222D02*
X9839229Y-17148270D01*
X9839229Y-17148270D02*
X9839229Y-17195889D01*
X9839229Y-17195889D02*
X9829705Y-17214936D01*
X9829705Y-17214936D02*
X9820182Y-17224460D01*
X9820182Y-17224460D02*
X9801134Y-17233984D01*
X9801134Y-17233984D02*
X9753515Y-17233984D01*
X9753515Y-17233984D02*
X9734467Y-17224460D01*
X9734467Y-17224460D02*
X9724944Y-17214936D01*
X9963039Y-17033984D02*
X9982086Y-17033984D01*
X9982086Y-17033984D02*
X10001134Y-17043508D01*
X10001134Y-17043508D02*
X10010658Y-17053031D01*
X10010658Y-17053031D02*
X10020182Y-17072079D01*
X10020182Y-17072079D02*
X10029705Y-17110174D01*
X10029705Y-17110174D02*
X10029705Y-17157793D01*
X10029705Y-17157793D02*
X10020182Y-17195889D01*
X10020182Y-17195889D02*
X10010658Y-17214936D01*
X10010658Y-17214936D02*
X10001134Y-17224460D01*
X10001134Y-17224460D02*
X9982086Y-17233984D01*
X9982086Y-17233984D02*
X9963039Y-17233984D01*
X9963039Y-17233984D02*
X9943991Y-17224460D01*
X9943991Y-17224460D02*
X9934467Y-17214936D01*
X9934467Y-17214936D02*
X9924944Y-17195889D01*
X9924944Y-17195889D02*
X9915420Y-17157793D01*
X9915420Y-17157793D02*
X9915420Y-17110174D01*
X9915420Y-17110174D02*
X9924944Y-17072079D01*
X9924944Y-17072079D02*
X9934467Y-17053031D01*
X9934467Y-17053031D02*
X9943991Y-17043508D01*
X9943991Y-17043508D02*
X9963039Y-17033984D01*
X10115420Y-17233984D02*
X10115420Y-17100650D01*
X10115420Y-17119698D02*
X10124944Y-17110174D01*
X10124944Y-17110174D02*
X10143991Y-17100650D01*
X10143991Y-17100650D02*
X10172563Y-17100650D01*
X10172563Y-17100650D02*
X10191610Y-17110174D01*
X10191610Y-17110174D02*
X10201134Y-17129222D01*
X10201134Y-17129222D02*
X10201134Y-17233984D01*
X10201134Y-17129222D02*
X10210658Y-17110174D01*
X10210658Y-17110174D02*
X10229705Y-17100650D01*
X10229705Y-17100650D02*
X10258277Y-17100650D01*
X10258277Y-17100650D02*
X10277325Y-17110174D01*
X10277325Y-17110174D02*
X10286848Y-17129222D01*
X10286848Y-17129222D02*
X10286848Y-17233984D01*
X10382086Y-17233984D02*
X10382086Y-17100650D01*
X10382086Y-17119698D02*
X10391610Y-17110174D01*
X10391610Y-17110174D02*
X10410658Y-17100650D01*
X10410658Y-17100650D02*
X10439229Y-17100650D01*
X10439229Y-17100650D02*
X10458277Y-17110174D01*
X10458277Y-17110174D02*
X10467801Y-17129222D01*
X10467801Y-17129222D02*
X10467801Y-17233984D01*
X10467801Y-17129222D02*
X10477325Y-17110174D01*
X10477325Y-17110174D02*
X10496372Y-17100650D01*
X10496372Y-17100650D02*
X10524944Y-17100650D01*
X10524944Y-17100650D02*
X10543991Y-17110174D01*
X10543991Y-17110174D02*
X10553515Y-17129222D01*
X10553515Y-17129222D02*
X10553515Y-17233984D01*
X10943991Y-17024460D02*
X10772563Y-17281603D01*
X11201134Y-17033984D02*
X11220182Y-17033984D01*
X11220182Y-17033984D02*
X11239229Y-17043508D01*
X11239229Y-17043508D02*
X11248753Y-17053031D01*
X11248753Y-17053031D02*
X11258277Y-17072079D01*
X11258277Y-17072079D02*
X11267801Y-17110174D01*
X11267801Y-17110174D02*
X11267801Y-17157793D01*
X11267801Y-17157793D02*
X11258277Y-17195889D01*
X11258277Y-17195889D02*
X11248753Y-17214936D01*
X11248753Y-17214936D02*
X11239229Y-17224460D01*
X11239229Y-17224460D02*
X11220182Y-17233984D01*
X11220182Y-17233984D02*
X11201134Y-17233984D01*
X11201134Y-17233984D02*
X11182087Y-17224460D01*
X11182087Y-17224460D02*
X11172563Y-17214936D01*
X11172563Y-17214936D02*
X11163039Y-17195889D01*
X11163039Y-17195889D02*
X11153515Y-17157793D01*
X11153515Y-17157793D02*
X11153515Y-17110174D01*
X11153515Y-17110174D02*
X11163039Y-17072079D01*
X11163039Y-17072079D02*
X11172563Y-17053031D01*
X11172563Y-17053031D02*
X11182087Y-17043508D01*
X11182087Y-17043508D02*
X11201134Y-17033984D01*
X11353515Y-17214936D02*
X11363039Y-17224460D01*
X11363039Y-17224460D02*
X11353515Y-17233984D01*
X11353515Y-17233984D02*
X11343991Y-17224460D01*
X11343991Y-17224460D02*
X11353515Y-17214936D01*
X11353515Y-17214936D02*
X11353515Y-17233984D01*
X11486848Y-17033984D02*
X11505896Y-17033984D01*
X11505896Y-17033984D02*
X11524944Y-17043508D01*
X11524944Y-17043508D02*
X11534467Y-17053031D01*
X11534467Y-17053031D02*
X11543991Y-17072079D01*
X11543991Y-17072079D02*
X11553515Y-17110174D01*
X11553515Y-17110174D02*
X11553515Y-17157793D01*
X11553515Y-17157793D02*
X11543991Y-17195889D01*
X11543991Y-17195889D02*
X11534467Y-17214936D01*
X11534467Y-17214936D02*
X11524944Y-17224460D01*
X11524944Y-17224460D02*
X11505896Y-17233984D01*
X11505896Y-17233984D02*
X11486848Y-17233984D01*
X11486848Y-17233984D02*
X11467801Y-17224460D01*
X11467801Y-17224460D02*
X11458277Y-17214936D01*
X11458277Y-17214936D02*
X11448753Y-17195889D01*
X11448753Y-17195889D02*
X11439229Y-17157793D01*
X11439229Y-17157793D02*
X11439229Y-17110174D01*
X11439229Y-17110174D02*
X11448753Y-17072079D01*
X11448753Y-17072079D02*
X11458277Y-17053031D01*
X11458277Y-17053031D02*
X11467801Y-17043508D01*
X11467801Y-17043508D02*
X11486848Y-17033984D01*
X11620182Y-17033984D02*
X11753515Y-17033984D01*
X11753515Y-17033984D02*
X11667801Y-17233984D01*
X11820182Y-17053031D02*
X11829706Y-17043508D01*
X11829706Y-17043508D02*
X11848753Y-17033984D01*
X11848753Y-17033984D02*
X11896372Y-17033984D01*
X11896372Y-17033984D02*
X11915420Y-17043508D01*
X11915420Y-17043508D02*
X11924944Y-17053031D01*
X11924944Y-17053031D02*
X11934467Y-17072079D01*
X11934467Y-17072079D02*
X11934467Y-17091127D01*
X11934467Y-17091127D02*
X11924944Y-17119698D01*
X11924944Y-17119698D02*
X11810658Y-17233984D01*
X11810658Y-17233984D02*
X11934467Y-17233984D01*
X12048753Y-17119698D02*
X12029706Y-17110174D01*
X12029706Y-17110174D02*
X12020182Y-17100650D01*
X12020182Y-17100650D02*
X12010658Y-17081603D01*
X12010658Y-17081603D02*
X12010658Y-17072079D01*
X12010658Y-17072079D02*
X12020182Y-17053031D01*
X12020182Y-17053031D02*
X12029706Y-17043508D01*
X12029706Y-17043508D02*
X12048753Y-17033984D01*
X12048753Y-17033984D02*
X12086848Y-17033984D01*
X12086848Y-17033984D02*
X12105896Y-17043508D01*
X12105896Y-17043508D02*
X12115420Y-17053031D01*
X12115420Y-17053031D02*
X12124944Y-17072079D01*
X12124944Y-17072079D02*
X12124944Y-17081603D01*
X12124944Y-17081603D02*
X12115420Y-17100650D01*
X12115420Y-17100650D02*
X12105896Y-17110174D01*
X12105896Y-17110174D02*
X12086848Y-17119698D01*
X12086848Y-17119698D02*
X12048753Y-17119698D01*
X12048753Y-17119698D02*
X12029706Y-17129222D01*
X12029706Y-17129222D02*
X12020182Y-17138746D01*
X12020182Y-17138746D02*
X12010658Y-17157793D01*
X12010658Y-17157793D02*
X12010658Y-17195889D01*
X12010658Y-17195889D02*
X12020182Y-17214936D01*
X12020182Y-17214936D02*
X12029706Y-17224460D01*
X12029706Y-17224460D02*
X12048753Y-17233984D01*
X12048753Y-17233984D02*
X12086848Y-17233984D01*
X12086848Y-17233984D02*
X12105896Y-17224460D01*
X12105896Y-17224460D02*
X12115420Y-17214936D01*
X12115420Y-17214936D02*
X12124944Y-17195889D01*
X12124944Y-17195889D02*
X12124944Y-17157793D01*
X12124944Y-17157793D02*
X12115420Y-17138746D01*
X12115420Y-17138746D02*
X12105896Y-17129222D01*
X12105896Y-17129222D02*
X12086848Y-17119698D01*
X12201134Y-17033984D02*
X12201134Y-17072079D01*
X12277325Y-17033984D02*
X12277325Y-17072079D01*
X12572563Y-17310174D02*
X12563039Y-17300650D01*
X12563039Y-17300650D02*
X12543991Y-17272079D01*
X12543991Y-17272079D02*
X12534468Y-17253031D01*
X12534468Y-17253031D02*
X12524944Y-17224460D01*
X12524944Y-17224460D02*
X12515420Y-17176841D01*
X12515420Y-17176841D02*
X12515420Y-17138746D01*
X12515420Y-17138746D02*
X12524944Y-17091127D01*
X12524944Y-17091127D02*
X12534468Y-17062555D01*
X12534468Y-17062555D02*
X12543991Y-17043508D01*
X12543991Y-17043508D02*
X12563039Y-17014936D01*
X12563039Y-17014936D02*
X12572563Y-17005412D01*
X12639229Y-17053031D02*
X12648753Y-17043508D01*
X12648753Y-17043508D02*
X12667801Y-17033984D01*
X12667801Y-17033984D02*
X12715420Y-17033984D01*
X12715420Y-17033984D02*
X12734468Y-17043508D01*
X12734468Y-17043508D02*
X12743991Y-17053031D01*
X12743991Y-17053031D02*
X12753515Y-17072079D01*
X12753515Y-17072079D02*
X12753515Y-17091127D01*
X12753515Y-17091127D02*
X12743991Y-17119698D01*
X12743991Y-17119698D02*
X12629706Y-17233984D01*
X12629706Y-17233984D02*
X12753515Y-17233984D01*
X12991610Y-17233984D02*
X12991610Y-17033984D01*
X13077325Y-17233984D02*
X13077325Y-17129222D01*
X13077325Y-17129222D02*
X13067801Y-17110174D01*
X13067801Y-17110174D02*
X13048753Y-17100650D01*
X13048753Y-17100650D02*
X13020182Y-17100650D01*
X13020182Y-17100650D02*
X13001134Y-17110174D01*
X13001134Y-17110174D02*
X12991610Y-17119698D01*
X13201134Y-17233984D02*
X13182087Y-17224460D01*
X13182087Y-17224460D02*
X13172563Y-17214936D01*
X13172563Y-17214936D02*
X13163039Y-17195889D01*
X13163039Y-17195889D02*
X13163039Y-17138746D01*
X13163039Y-17138746D02*
X13172563Y-17119698D01*
X13172563Y-17119698D02*
X13182087Y-17110174D01*
X13182087Y-17110174D02*
X13201134Y-17100650D01*
X13201134Y-17100650D02*
X13229706Y-17100650D01*
X13229706Y-17100650D02*
X13248753Y-17110174D01*
X13248753Y-17110174D02*
X13258277Y-17119698D01*
X13258277Y-17119698D02*
X13267801Y-17138746D01*
X13267801Y-17138746D02*
X13267801Y-17195889D01*
X13267801Y-17195889D02*
X13258277Y-17214936D01*
X13258277Y-17214936D02*
X13248753Y-17224460D01*
X13248753Y-17224460D02*
X13229706Y-17233984D01*
X13229706Y-17233984D02*
X13201134Y-17233984D01*
X13382087Y-17233984D02*
X13363039Y-17224460D01*
X13363039Y-17224460D02*
X13353515Y-17205412D01*
X13353515Y-17205412D02*
X13353515Y-17033984D01*
X13534468Y-17224460D02*
X13515420Y-17233984D01*
X13515420Y-17233984D02*
X13477325Y-17233984D01*
X13477325Y-17233984D02*
X13458277Y-17224460D01*
X13458277Y-17224460D02*
X13448753Y-17205412D01*
X13448753Y-17205412D02*
X13448753Y-17129222D01*
X13448753Y-17129222D02*
X13458277Y-17110174D01*
X13458277Y-17110174D02*
X13477325Y-17100650D01*
X13477325Y-17100650D02*
X13515420Y-17100650D01*
X13515420Y-17100650D02*
X13534468Y-17110174D01*
X13534468Y-17110174D02*
X13543991Y-17129222D01*
X13543991Y-17129222D02*
X13543991Y-17148270D01*
X13543991Y-17148270D02*
X13448753Y-17167317D01*
X13620182Y-17224460D02*
X13639230Y-17233984D01*
X13639230Y-17233984D02*
X13677325Y-17233984D01*
X13677325Y-17233984D02*
X13696372Y-17224460D01*
X13696372Y-17224460D02*
X13705896Y-17205412D01*
X13705896Y-17205412D02*
X13705896Y-17195889D01*
X13705896Y-17195889D02*
X13696372Y-17176841D01*
X13696372Y-17176841D02*
X13677325Y-17167317D01*
X13677325Y-17167317D02*
X13648753Y-17167317D01*
X13648753Y-17167317D02*
X13629706Y-17157793D01*
X13629706Y-17157793D02*
X13620182Y-17138746D01*
X13620182Y-17138746D02*
X13620182Y-17129222D01*
X13620182Y-17129222D02*
X13629706Y-17110174D01*
X13629706Y-17110174D02*
X13648753Y-17100650D01*
X13648753Y-17100650D02*
X13677325Y-17100650D01*
X13677325Y-17100650D02*
X13696372Y-17110174D01*
X13772563Y-17310174D02*
X13782087Y-17300650D01*
X13782087Y-17300650D02*
X13801134Y-17272079D01*
X13801134Y-17272079D02*
X13810658Y-17253031D01*
X13810658Y-17253031D02*
X13820182Y-17224460D01*
X13820182Y-17224460D02*
X13829706Y-17176841D01*
X13829706Y-17176841D02*
X13829706Y-17138746D01*
X13829706Y-17138746D02*
X13820182Y-17091127D01*
X13820182Y-17091127D02*
X13810658Y-17062555D01*
X13810658Y-17062555D02*
X13801134Y-17043508D01*
X13801134Y-17043508D02*
X13782087Y-17014936D01*
X13782087Y-17014936D02*
X13772563Y-17005412D01*
X14134468Y-17310174D02*
X14124944Y-17300650D01*
X14124944Y-17300650D02*
X14105896Y-17272079D01*
X14105896Y-17272079D02*
X14096372Y-17253031D01*
X14096372Y-17253031D02*
X14086849Y-17224460D01*
X14086849Y-17224460D02*
X14077325Y-17176841D01*
X14077325Y-17176841D02*
X14077325Y-17138746D01*
X14077325Y-17138746D02*
X14086849Y-17091127D01*
X14086849Y-17091127D02*
X14096372Y-17062555D01*
X14096372Y-17062555D02*
X14105896Y-17043508D01*
X14105896Y-17043508D02*
X14124944Y-17014936D01*
X14124944Y-17014936D02*
X14134468Y-17005412D01*
X14210658Y-17100650D02*
X14210658Y-17233984D01*
X14210658Y-17119698D02*
X14220182Y-17110174D01*
X14220182Y-17110174D02*
X14239230Y-17100650D01*
X14239230Y-17100650D02*
X14267801Y-17100650D01*
X14267801Y-17100650D02*
X14286849Y-17110174D01*
X14286849Y-17110174D02*
X14296372Y-17129222D01*
X14296372Y-17129222D02*
X14296372Y-17233984D01*
X14420182Y-17233984D02*
X14401134Y-17224460D01*
X14401134Y-17224460D02*
X14391611Y-17214936D01*
X14391611Y-17214936D02*
X14382087Y-17195889D01*
X14382087Y-17195889D02*
X14382087Y-17138746D01*
X14382087Y-17138746D02*
X14391611Y-17119698D01*
X14391611Y-17119698D02*
X14401134Y-17110174D01*
X14401134Y-17110174D02*
X14420182Y-17100650D01*
X14420182Y-17100650D02*
X14448753Y-17100650D01*
X14448753Y-17100650D02*
X14467801Y-17110174D01*
X14467801Y-17110174D02*
X14477325Y-17119698D01*
X14477325Y-17119698D02*
X14486849Y-17138746D01*
X14486849Y-17138746D02*
X14486849Y-17195889D01*
X14486849Y-17195889D02*
X14477325Y-17214936D01*
X14477325Y-17214936D02*
X14467801Y-17224460D01*
X14467801Y-17224460D02*
X14448753Y-17233984D01*
X14448753Y-17233984D02*
X14420182Y-17233984D01*
X14543992Y-17100650D02*
X14620182Y-17100650D01*
X14572563Y-17033984D02*
X14572563Y-17205412D01*
X14572563Y-17205412D02*
X14582087Y-17224460D01*
X14582087Y-17224460D02*
X14601134Y-17233984D01*
X14601134Y-17233984D02*
X14620182Y-17233984D01*
X14839230Y-17100650D02*
X14839230Y-17300650D01*
X14839230Y-17110174D02*
X14858277Y-17100650D01*
X14858277Y-17100650D02*
X14896373Y-17100650D01*
X14896373Y-17100650D02*
X14915420Y-17110174D01*
X14915420Y-17110174D02*
X14924944Y-17119698D01*
X14924944Y-17119698D02*
X14934468Y-17138746D01*
X14934468Y-17138746D02*
X14934468Y-17195889D01*
X14934468Y-17195889D02*
X14924944Y-17214936D01*
X14924944Y-17214936D02*
X14915420Y-17224460D01*
X14915420Y-17224460D02*
X14896373Y-17233984D01*
X14896373Y-17233984D02*
X14858277Y-17233984D01*
X14858277Y-17233984D02*
X14839230Y-17224460D01*
X15048753Y-17233984D02*
X15029706Y-17224460D01*
X15029706Y-17224460D02*
X15020182Y-17205412D01*
X15020182Y-17205412D02*
X15020182Y-17033984D01*
X15210658Y-17233984D02*
X15210658Y-17129222D01*
X15210658Y-17129222D02*
X15201134Y-17110174D01*
X15201134Y-17110174D02*
X15182087Y-17100650D01*
X15182087Y-17100650D02*
X15143992Y-17100650D01*
X15143992Y-17100650D02*
X15124944Y-17110174D01*
X15210658Y-17224460D02*
X15191611Y-17233984D01*
X15191611Y-17233984D02*
X15143992Y-17233984D01*
X15143992Y-17233984D02*
X15124944Y-17224460D01*
X15124944Y-17224460D02*
X15115420Y-17205412D01*
X15115420Y-17205412D02*
X15115420Y-17186365D01*
X15115420Y-17186365D02*
X15124944Y-17167317D01*
X15124944Y-17167317D02*
X15143992Y-17157793D01*
X15143992Y-17157793D02*
X15191611Y-17157793D01*
X15191611Y-17157793D02*
X15210658Y-17148270D01*
X15277325Y-17100650D02*
X15353515Y-17100650D01*
X15305896Y-17033984D02*
X15305896Y-17205412D01*
X15305896Y-17205412D02*
X15315420Y-17224460D01*
X15315420Y-17224460D02*
X15334468Y-17233984D01*
X15334468Y-17233984D02*
X15353515Y-17233984D01*
X15496373Y-17224460D02*
X15477325Y-17233984D01*
X15477325Y-17233984D02*
X15439230Y-17233984D01*
X15439230Y-17233984D02*
X15420182Y-17224460D01*
X15420182Y-17224460D02*
X15410658Y-17205412D01*
X15410658Y-17205412D02*
X15410658Y-17129222D01*
X15410658Y-17129222D02*
X15420182Y-17110174D01*
X15420182Y-17110174D02*
X15439230Y-17100650D01*
X15439230Y-17100650D02*
X15477325Y-17100650D01*
X15477325Y-17100650D02*
X15496373Y-17110174D01*
X15496373Y-17110174D02*
X15505896Y-17129222D01*
X15505896Y-17129222D02*
X15505896Y-17148270D01*
X15505896Y-17148270D02*
X15410658Y-17167317D01*
X15677325Y-17233984D02*
X15677325Y-17033984D01*
X15677325Y-17224460D02*
X15658277Y-17233984D01*
X15658277Y-17233984D02*
X15620182Y-17233984D01*
X15620182Y-17233984D02*
X15601134Y-17224460D01*
X15601134Y-17224460D02*
X15591611Y-17214936D01*
X15591611Y-17214936D02*
X15582087Y-17195889D01*
X15582087Y-17195889D02*
X15582087Y-17138746D01*
X15582087Y-17138746D02*
X15591611Y-17119698D01*
X15591611Y-17119698D02*
X15601134Y-17110174D01*
X15601134Y-17110174D02*
X15620182Y-17100650D01*
X15620182Y-17100650D02*
X15658277Y-17100650D01*
X15658277Y-17100650D02*
X15677325Y-17110174D01*
X15753515Y-17310174D02*
X15763039Y-17300650D01*
X15763039Y-17300650D02*
X15782087Y-17272079D01*
X15782087Y-17272079D02*
X15791611Y-17253031D01*
X15791611Y-17253031D02*
X15801134Y-17224460D01*
X15801134Y-17224460D02*
X15810658Y-17176841D01*
X15810658Y-17176841D02*
X15810658Y-17138746D01*
X15810658Y-17138746D02*
X15801134Y-17091127D01*
X15801134Y-17091127D02*
X15791611Y-17062555D01*
X15791611Y-17062555D02*
X15782087Y-17043508D01*
X15782087Y-17043508D02*
X15763039Y-17014936D01*
X15763039Y-17014936D02*
X15753515Y-17005412D01*
X8997500Y-17447500D02*
G75*
G02*
X8797500Y-17447500I-100000J0D01*
G01*
X8797500Y-17447500D02*
G75*
G02*
X8997500Y-17447500I100000J0D01*
G01*
X9248753Y-17358031D02*
X9258277Y-17348508D01*
X9258277Y-17348508D02*
X9277324Y-17338984D01*
X9277324Y-17338984D02*
X9324944Y-17338984D01*
X9324944Y-17338984D02*
X9343991Y-17348508D01*
X9343991Y-17348508D02*
X9353515Y-17358031D01*
X9353515Y-17358031D02*
X9363039Y-17377079D01*
X9363039Y-17377079D02*
X9363039Y-17396127D01*
X9363039Y-17396127D02*
X9353515Y-17424698D01*
X9353515Y-17424698D02*
X9239229Y-17538984D01*
X9239229Y-17538984D02*
X9363039Y-17538984D01*
X9448753Y-17519936D02*
X9458277Y-17529460D01*
X9458277Y-17529460D02*
X9448753Y-17538984D01*
X9448753Y-17538984D02*
X9439229Y-17529460D01*
X9439229Y-17529460D02*
X9448753Y-17519936D01*
X9448753Y-17519936D02*
X9448753Y-17538984D01*
X9534467Y-17358031D02*
X9543991Y-17348508D01*
X9543991Y-17348508D02*
X9563039Y-17338984D01*
X9563039Y-17338984D02*
X9610658Y-17338984D01*
X9610658Y-17338984D02*
X9629705Y-17348508D01*
X9629705Y-17348508D02*
X9639229Y-17358031D01*
X9639229Y-17358031D02*
X9648753Y-17377079D01*
X9648753Y-17377079D02*
X9648753Y-17396127D01*
X9648753Y-17396127D02*
X9639229Y-17424698D01*
X9639229Y-17424698D02*
X9524944Y-17538984D01*
X9524944Y-17538984D02*
X9648753Y-17538984D01*
X9772563Y-17338984D02*
X9791610Y-17338984D01*
X9791610Y-17338984D02*
X9810658Y-17348508D01*
X9810658Y-17348508D02*
X9820182Y-17358031D01*
X9820182Y-17358031D02*
X9829705Y-17377079D01*
X9829705Y-17377079D02*
X9839229Y-17415174D01*
X9839229Y-17415174D02*
X9839229Y-17462793D01*
X9839229Y-17462793D02*
X9829705Y-17500889D01*
X9829705Y-17500889D02*
X9820182Y-17519936D01*
X9820182Y-17519936D02*
X9810658Y-17529460D01*
X9810658Y-17529460D02*
X9791610Y-17538984D01*
X9791610Y-17538984D02*
X9772563Y-17538984D01*
X9772563Y-17538984D02*
X9753515Y-17529460D01*
X9753515Y-17529460D02*
X9743991Y-17519936D01*
X9743991Y-17519936D02*
X9734467Y-17500889D01*
X9734467Y-17500889D02*
X9724944Y-17462793D01*
X9724944Y-17462793D02*
X9724944Y-17415174D01*
X9724944Y-17415174D02*
X9734467Y-17377079D01*
X9734467Y-17377079D02*
X9743991Y-17358031D01*
X9743991Y-17358031D02*
X9753515Y-17348508D01*
X9753515Y-17348508D02*
X9772563Y-17338984D01*
X9963039Y-17338984D02*
X9982086Y-17338984D01*
X9982086Y-17338984D02*
X10001134Y-17348508D01*
X10001134Y-17348508D02*
X10010658Y-17358031D01*
X10010658Y-17358031D02*
X10020182Y-17377079D01*
X10020182Y-17377079D02*
X10029705Y-17415174D01*
X10029705Y-17415174D02*
X10029705Y-17462793D01*
X10029705Y-17462793D02*
X10020182Y-17500889D01*
X10020182Y-17500889D02*
X10010658Y-17519936D01*
X10010658Y-17519936D02*
X10001134Y-17529460D01*
X10001134Y-17529460D02*
X9982086Y-17538984D01*
X9982086Y-17538984D02*
X9963039Y-17538984D01*
X9963039Y-17538984D02*
X9943991Y-17529460D01*
X9943991Y-17529460D02*
X9934467Y-17519936D01*
X9934467Y-17519936D02*
X9924944Y-17500889D01*
X9924944Y-17500889D02*
X9915420Y-17462793D01*
X9915420Y-17462793D02*
X9915420Y-17415174D01*
X9915420Y-17415174D02*
X9924944Y-17377079D01*
X9924944Y-17377079D02*
X9934467Y-17358031D01*
X9934467Y-17358031D02*
X9943991Y-17348508D01*
X9943991Y-17348508D02*
X9963039Y-17338984D01*
X10115420Y-17538984D02*
X10115420Y-17405650D01*
X10115420Y-17424698D02*
X10124944Y-17415174D01*
X10124944Y-17415174D02*
X10143991Y-17405650D01*
X10143991Y-17405650D02*
X10172563Y-17405650D01*
X10172563Y-17405650D02*
X10191610Y-17415174D01*
X10191610Y-17415174D02*
X10201134Y-17434222D01*
X10201134Y-17434222D02*
X10201134Y-17538984D01*
X10201134Y-17434222D02*
X10210658Y-17415174D01*
X10210658Y-17415174D02*
X10229705Y-17405650D01*
X10229705Y-17405650D02*
X10258277Y-17405650D01*
X10258277Y-17405650D02*
X10277325Y-17415174D01*
X10277325Y-17415174D02*
X10286848Y-17434222D01*
X10286848Y-17434222D02*
X10286848Y-17538984D01*
X10382086Y-17538984D02*
X10382086Y-17405650D01*
X10382086Y-17424698D02*
X10391610Y-17415174D01*
X10391610Y-17415174D02*
X10410658Y-17405650D01*
X10410658Y-17405650D02*
X10439229Y-17405650D01*
X10439229Y-17405650D02*
X10458277Y-17415174D01*
X10458277Y-17415174D02*
X10467801Y-17434222D01*
X10467801Y-17434222D02*
X10467801Y-17538984D01*
X10467801Y-17434222D02*
X10477325Y-17415174D01*
X10477325Y-17415174D02*
X10496372Y-17405650D01*
X10496372Y-17405650D02*
X10524944Y-17405650D01*
X10524944Y-17405650D02*
X10543991Y-17415174D01*
X10543991Y-17415174D02*
X10553515Y-17434222D01*
X10553515Y-17434222D02*
X10553515Y-17538984D01*
X10943991Y-17329460D02*
X10772563Y-17586603D01*
X11201134Y-17338984D02*
X11220182Y-17338984D01*
X11220182Y-17338984D02*
X11239229Y-17348508D01*
X11239229Y-17348508D02*
X11248753Y-17358031D01*
X11248753Y-17358031D02*
X11258277Y-17377079D01*
X11258277Y-17377079D02*
X11267801Y-17415174D01*
X11267801Y-17415174D02*
X11267801Y-17462793D01*
X11267801Y-17462793D02*
X11258277Y-17500889D01*
X11258277Y-17500889D02*
X11248753Y-17519936D01*
X11248753Y-17519936D02*
X11239229Y-17529460D01*
X11239229Y-17529460D02*
X11220182Y-17538984D01*
X11220182Y-17538984D02*
X11201134Y-17538984D01*
X11201134Y-17538984D02*
X11182087Y-17529460D01*
X11182087Y-17529460D02*
X11172563Y-17519936D01*
X11172563Y-17519936D02*
X11163039Y-17500889D01*
X11163039Y-17500889D02*
X11153515Y-17462793D01*
X11153515Y-17462793D02*
X11153515Y-17415174D01*
X11153515Y-17415174D02*
X11163039Y-17377079D01*
X11163039Y-17377079D02*
X11172563Y-17358031D01*
X11172563Y-17358031D02*
X11182087Y-17348508D01*
X11182087Y-17348508D02*
X11201134Y-17338984D01*
X11353515Y-17519936D02*
X11363039Y-17529460D01*
X11363039Y-17529460D02*
X11353515Y-17538984D01*
X11353515Y-17538984D02*
X11343991Y-17529460D01*
X11343991Y-17529460D02*
X11353515Y-17519936D01*
X11353515Y-17519936D02*
X11353515Y-17538984D01*
X11486848Y-17338984D02*
X11505896Y-17338984D01*
X11505896Y-17338984D02*
X11524944Y-17348508D01*
X11524944Y-17348508D02*
X11534467Y-17358031D01*
X11534467Y-17358031D02*
X11543991Y-17377079D01*
X11543991Y-17377079D02*
X11553515Y-17415174D01*
X11553515Y-17415174D02*
X11553515Y-17462793D01*
X11553515Y-17462793D02*
X11543991Y-17500889D01*
X11543991Y-17500889D02*
X11534467Y-17519936D01*
X11534467Y-17519936D02*
X11524944Y-17529460D01*
X11524944Y-17529460D02*
X11505896Y-17538984D01*
X11505896Y-17538984D02*
X11486848Y-17538984D01*
X11486848Y-17538984D02*
X11467801Y-17529460D01*
X11467801Y-17529460D02*
X11458277Y-17519936D01*
X11458277Y-17519936D02*
X11448753Y-17500889D01*
X11448753Y-17500889D02*
X11439229Y-17462793D01*
X11439229Y-17462793D02*
X11439229Y-17415174D01*
X11439229Y-17415174D02*
X11448753Y-17377079D01*
X11448753Y-17377079D02*
X11458277Y-17358031D01*
X11458277Y-17358031D02*
X11467801Y-17348508D01*
X11467801Y-17348508D02*
X11486848Y-17338984D01*
X11667801Y-17424698D02*
X11648753Y-17415174D01*
X11648753Y-17415174D02*
X11639229Y-17405650D01*
X11639229Y-17405650D02*
X11629706Y-17386603D01*
X11629706Y-17386603D02*
X11629706Y-17377079D01*
X11629706Y-17377079D02*
X11639229Y-17358031D01*
X11639229Y-17358031D02*
X11648753Y-17348508D01*
X11648753Y-17348508D02*
X11667801Y-17338984D01*
X11667801Y-17338984D02*
X11705896Y-17338984D01*
X11705896Y-17338984D02*
X11724944Y-17348508D01*
X11724944Y-17348508D02*
X11734467Y-17358031D01*
X11734467Y-17358031D02*
X11743991Y-17377079D01*
X11743991Y-17377079D02*
X11743991Y-17386603D01*
X11743991Y-17386603D02*
X11734467Y-17405650D01*
X11734467Y-17405650D02*
X11724944Y-17415174D01*
X11724944Y-17415174D02*
X11705896Y-17424698D01*
X11705896Y-17424698D02*
X11667801Y-17424698D01*
X11667801Y-17424698D02*
X11648753Y-17434222D01*
X11648753Y-17434222D02*
X11639229Y-17443746D01*
X11639229Y-17443746D02*
X11629706Y-17462793D01*
X11629706Y-17462793D02*
X11629706Y-17500889D01*
X11629706Y-17500889D02*
X11639229Y-17519936D01*
X11639229Y-17519936D02*
X11648753Y-17529460D01*
X11648753Y-17529460D02*
X11667801Y-17538984D01*
X11667801Y-17538984D02*
X11705896Y-17538984D01*
X11705896Y-17538984D02*
X11724944Y-17529460D01*
X11724944Y-17529460D02*
X11734467Y-17519936D01*
X11734467Y-17519936D02*
X11743991Y-17500889D01*
X11743991Y-17500889D02*
X11743991Y-17462793D01*
X11743991Y-17462793D02*
X11734467Y-17443746D01*
X11734467Y-17443746D02*
X11724944Y-17434222D01*
X11724944Y-17434222D02*
X11705896Y-17424698D01*
X11915420Y-17338984D02*
X11877325Y-17338984D01*
X11877325Y-17338984D02*
X11858277Y-17348508D01*
X11858277Y-17348508D02*
X11848753Y-17358031D01*
X11848753Y-17358031D02*
X11829706Y-17386603D01*
X11829706Y-17386603D02*
X11820182Y-17424698D01*
X11820182Y-17424698D02*
X11820182Y-17500889D01*
X11820182Y-17500889D02*
X11829706Y-17519936D01*
X11829706Y-17519936D02*
X11839229Y-17529460D01*
X11839229Y-17529460D02*
X11858277Y-17538984D01*
X11858277Y-17538984D02*
X11896372Y-17538984D01*
X11896372Y-17538984D02*
X11915420Y-17529460D01*
X11915420Y-17529460D02*
X11924944Y-17519936D01*
X11924944Y-17519936D02*
X11934467Y-17500889D01*
X11934467Y-17500889D02*
X11934467Y-17453270D01*
X11934467Y-17453270D02*
X11924944Y-17434222D01*
X11924944Y-17434222D02*
X11915420Y-17424698D01*
X11915420Y-17424698D02*
X11896372Y-17415174D01*
X11896372Y-17415174D02*
X11858277Y-17415174D01*
X11858277Y-17415174D02*
X11839229Y-17424698D01*
X11839229Y-17424698D02*
X11829706Y-17434222D01*
X11829706Y-17434222D02*
X11820182Y-17453270D01*
X12105896Y-17338984D02*
X12067801Y-17338984D01*
X12067801Y-17338984D02*
X12048753Y-17348508D01*
X12048753Y-17348508D02*
X12039229Y-17358031D01*
X12039229Y-17358031D02*
X12020182Y-17386603D01*
X12020182Y-17386603D02*
X12010658Y-17424698D01*
X12010658Y-17424698D02*
X12010658Y-17500889D01*
X12010658Y-17500889D02*
X12020182Y-17519936D01*
X12020182Y-17519936D02*
X12029706Y-17529460D01*
X12029706Y-17529460D02*
X12048753Y-17538984D01*
X12048753Y-17538984D02*
X12086848Y-17538984D01*
X12086848Y-17538984D02*
X12105896Y-17529460D01*
X12105896Y-17529460D02*
X12115420Y-17519936D01*
X12115420Y-17519936D02*
X12124944Y-17500889D01*
X12124944Y-17500889D02*
X12124944Y-17453270D01*
X12124944Y-17453270D02*
X12115420Y-17434222D01*
X12115420Y-17434222D02*
X12105896Y-17424698D01*
X12105896Y-17424698D02*
X12086848Y-17415174D01*
X12086848Y-17415174D02*
X12048753Y-17415174D01*
X12048753Y-17415174D02*
X12029706Y-17424698D01*
X12029706Y-17424698D02*
X12020182Y-17434222D01*
X12020182Y-17434222D02*
X12010658Y-17453270D01*
X12201134Y-17338984D02*
X12201134Y-17377079D01*
X12277325Y-17338984D02*
X12277325Y-17377079D01*
X12572563Y-17615174D02*
X12563039Y-17605650D01*
X12563039Y-17605650D02*
X12543991Y-17577079D01*
X12543991Y-17577079D02*
X12534468Y-17558031D01*
X12534468Y-17558031D02*
X12524944Y-17529460D01*
X12524944Y-17529460D02*
X12515420Y-17481841D01*
X12515420Y-17481841D02*
X12515420Y-17443746D01*
X12515420Y-17443746D02*
X12524944Y-17396127D01*
X12524944Y-17396127D02*
X12534468Y-17367555D01*
X12534468Y-17367555D02*
X12543991Y-17348508D01*
X12543991Y-17348508D02*
X12563039Y-17319936D01*
X12563039Y-17319936D02*
X12572563Y-17310412D01*
X12639229Y-17358031D02*
X12648753Y-17348508D01*
X12648753Y-17348508D02*
X12667801Y-17338984D01*
X12667801Y-17338984D02*
X12715420Y-17338984D01*
X12715420Y-17338984D02*
X12734468Y-17348508D01*
X12734468Y-17348508D02*
X12743991Y-17358031D01*
X12743991Y-17358031D02*
X12753515Y-17377079D01*
X12753515Y-17377079D02*
X12753515Y-17396127D01*
X12753515Y-17396127D02*
X12743991Y-17424698D01*
X12743991Y-17424698D02*
X12629706Y-17538984D01*
X12629706Y-17538984D02*
X12753515Y-17538984D01*
X12991610Y-17538984D02*
X12991610Y-17338984D01*
X13077325Y-17538984D02*
X13077325Y-17434222D01*
X13077325Y-17434222D02*
X13067801Y-17415174D01*
X13067801Y-17415174D02*
X13048753Y-17405650D01*
X13048753Y-17405650D02*
X13020182Y-17405650D01*
X13020182Y-17405650D02*
X13001134Y-17415174D01*
X13001134Y-17415174D02*
X12991610Y-17424698D01*
X13201134Y-17538984D02*
X13182087Y-17529460D01*
X13182087Y-17529460D02*
X13172563Y-17519936D01*
X13172563Y-17519936D02*
X13163039Y-17500889D01*
X13163039Y-17500889D02*
X13163039Y-17443746D01*
X13163039Y-17443746D02*
X13172563Y-17424698D01*
X13172563Y-17424698D02*
X13182087Y-17415174D01*
X13182087Y-17415174D02*
X13201134Y-17405650D01*
X13201134Y-17405650D02*
X13229706Y-17405650D01*
X13229706Y-17405650D02*
X13248753Y-17415174D01*
X13248753Y-17415174D02*
X13258277Y-17424698D01*
X13258277Y-17424698D02*
X13267801Y-17443746D01*
X13267801Y-17443746D02*
X13267801Y-17500889D01*
X13267801Y-17500889D02*
X13258277Y-17519936D01*
X13258277Y-17519936D02*
X13248753Y-17529460D01*
X13248753Y-17529460D02*
X13229706Y-17538984D01*
X13229706Y-17538984D02*
X13201134Y-17538984D01*
X13382087Y-17538984D02*
X13363039Y-17529460D01*
X13363039Y-17529460D02*
X13353515Y-17510412D01*
X13353515Y-17510412D02*
X13353515Y-17338984D01*
X13534468Y-17529460D02*
X13515420Y-17538984D01*
X13515420Y-17538984D02*
X13477325Y-17538984D01*
X13477325Y-17538984D02*
X13458277Y-17529460D01*
X13458277Y-17529460D02*
X13448753Y-17510412D01*
X13448753Y-17510412D02*
X13448753Y-17434222D01*
X13448753Y-17434222D02*
X13458277Y-17415174D01*
X13458277Y-17415174D02*
X13477325Y-17405650D01*
X13477325Y-17405650D02*
X13515420Y-17405650D01*
X13515420Y-17405650D02*
X13534468Y-17415174D01*
X13534468Y-17415174D02*
X13543991Y-17434222D01*
X13543991Y-17434222D02*
X13543991Y-17453270D01*
X13543991Y-17453270D02*
X13448753Y-17472317D01*
X13620182Y-17529460D02*
X13639230Y-17538984D01*
X13639230Y-17538984D02*
X13677325Y-17538984D01*
X13677325Y-17538984D02*
X13696372Y-17529460D01*
X13696372Y-17529460D02*
X13705896Y-17510412D01*
X13705896Y-17510412D02*
X13705896Y-17500889D01*
X13705896Y-17500889D02*
X13696372Y-17481841D01*
X13696372Y-17481841D02*
X13677325Y-17472317D01*
X13677325Y-17472317D02*
X13648753Y-17472317D01*
X13648753Y-17472317D02*
X13629706Y-17462793D01*
X13629706Y-17462793D02*
X13620182Y-17443746D01*
X13620182Y-17443746D02*
X13620182Y-17434222D01*
X13620182Y-17434222D02*
X13629706Y-17415174D01*
X13629706Y-17415174D02*
X13648753Y-17405650D01*
X13648753Y-17405650D02*
X13677325Y-17405650D01*
X13677325Y-17405650D02*
X13696372Y-17415174D01*
X13772563Y-17615174D02*
X13782087Y-17605650D01*
X13782087Y-17605650D02*
X13801134Y-17577079D01*
X13801134Y-17577079D02*
X13810658Y-17558031D01*
X13810658Y-17558031D02*
X13820182Y-17529460D01*
X13820182Y-17529460D02*
X13829706Y-17481841D01*
X13829706Y-17481841D02*
X13829706Y-17443746D01*
X13829706Y-17443746D02*
X13820182Y-17396127D01*
X13820182Y-17396127D02*
X13810658Y-17367555D01*
X13810658Y-17367555D02*
X13801134Y-17348508D01*
X13801134Y-17348508D02*
X13782087Y-17319936D01*
X13782087Y-17319936D02*
X13772563Y-17310412D01*
X14134468Y-17615174D02*
X14124944Y-17605650D01*
X14124944Y-17605650D02*
X14105896Y-17577079D01*
X14105896Y-17577079D02*
X14096372Y-17558031D01*
X14096372Y-17558031D02*
X14086849Y-17529460D01*
X14086849Y-17529460D02*
X14077325Y-17481841D01*
X14077325Y-17481841D02*
X14077325Y-17443746D01*
X14077325Y-17443746D02*
X14086849Y-17396127D01*
X14086849Y-17396127D02*
X14096372Y-17367555D01*
X14096372Y-17367555D02*
X14105896Y-17348508D01*
X14105896Y-17348508D02*
X14124944Y-17319936D01*
X14124944Y-17319936D02*
X14134468Y-17310412D01*
X14210658Y-17405650D02*
X14210658Y-17538984D01*
X14210658Y-17424698D02*
X14220182Y-17415174D01*
X14220182Y-17415174D02*
X14239230Y-17405650D01*
X14239230Y-17405650D02*
X14267801Y-17405650D01*
X14267801Y-17405650D02*
X14286849Y-17415174D01*
X14286849Y-17415174D02*
X14296372Y-17434222D01*
X14296372Y-17434222D02*
X14296372Y-17538984D01*
X14420182Y-17538984D02*
X14401134Y-17529460D01*
X14401134Y-17529460D02*
X14391611Y-17519936D01*
X14391611Y-17519936D02*
X14382087Y-17500889D01*
X14382087Y-17500889D02*
X14382087Y-17443746D01*
X14382087Y-17443746D02*
X14391611Y-17424698D01*
X14391611Y-17424698D02*
X14401134Y-17415174D01*
X14401134Y-17415174D02*
X14420182Y-17405650D01*
X14420182Y-17405650D02*
X14448753Y-17405650D01*
X14448753Y-17405650D02*
X14467801Y-17415174D01*
X14467801Y-17415174D02*
X14477325Y-17424698D01*
X14477325Y-17424698D02*
X14486849Y-17443746D01*
X14486849Y-17443746D02*
X14486849Y-17500889D01*
X14486849Y-17500889D02*
X14477325Y-17519936D01*
X14477325Y-17519936D02*
X14467801Y-17529460D01*
X14467801Y-17529460D02*
X14448753Y-17538984D01*
X14448753Y-17538984D02*
X14420182Y-17538984D01*
X14543992Y-17405650D02*
X14620182Y-17405650D01*
X14572563Y-17338984D02*
X14572563Y-17510412D01*
X14572563Y-17510412D02*
X14582087Y-17529460D01*
X14582087Y-17529460D02*
X14601134Y-17538984D01*
X14601134Y-17538984D02*
X14620182Y-17538984D01*
X14839230Y-17405650D02*
X14839230Y-17605650D01*
X14839230Y-17415174D02*
X14858277Y-17405650D01*
X14858277Y-17405650D02*
X14896373Y-17405650D01*
X14896373Y-17405650D02*
X14915420Y-17415174D01*
X14915420Y-17415174D02*
X14924944Y-17424698D01*
X14924944Y-17424698D02*
X14934468Y-17443746D01*
X14934468Y-17443746D02*
X14934468Y-17500889D01*
X14934468Y-17500889D02*
X14924944Y-17519936D01*
X14924944Y-17519936D02*
X14915420Y-17529460D01*
X14915420Y-17529460D02*
X14896373Y-17538984D01*
X14896373Y-17538984D02*
X14858277Y-17538984D01*
X14858277Y-17538984D02*
X14839230Y-17529460D01*
X15048753Y-17538984D02*
X15029706Y-17529460D01*
X15029706Y-17529460D02*
X15020182Y-17510412D01*
X15020182Y-17510412D02*
X15020182Y-17338984D01*
X15210658Y-17538984D02*
X15210658Y-17434222D01*
X15210658Y-17434222D02*
X15201134Y-17415174D01*
X15201134Y-17415174D02*
X15182087Y-17405650D01*
X15182087Y-17405650D02*
X15143992Y-17405650D01*
X15143992Y-17405650D02*
X15124944Y-17415174D01*
X15210658Y-17529460D02*
X15191611Y-17538984D01*
X15191611Y-17538984D02*
X15143992Y-17538984D01*
X15143992Y-17538984D02*
X15124944Y-17529460D01*
X15124944Y-17529460D02*
X15115420Y-17510412D01*
X15115420Y-17510412D02*
X15115420Y-17491365D01*
X15115420Y-17491365D02*
X15124944Y-17472317D01*
X15124944Y-17472317D02*
X15143992Y-17462793D01*
X15143992Y-17462793D02*
X15191611Y-17462793D01*
X15191611Y-17462793D02*
X15210658Y-17453270D01*
X15277325Y-17405650D02*
X15353515Y-17405650D01*
X15305896Y-17338984D02*
X15305896Y-17510412D01*
X15305896Y-17510412D02*
X15315420Y-17529460D01*
X15315420Y-17529460D02*
X15334468Y-17538984D01*
X15334468Y-17538984D02*
X15353515Y-17538984D01*
X15496373Y-17529460D02*
X15477325Y-17538984D01*
X15477325Y-17538984D02*
X15439230Y-17538984D01*
X15439230Y-17538984D02*
X15420182Y-17529460D01*
X15420182Y-17529460D02*
X15410658Y-17510412D01*
X15410658Y-17510412D02*
X15410658Y-17434222D01*
X15410658Y-17434222D02*
X15420182Y-17415174D01*
X15420182Y-17415174D02*
X15439230Y-17405650D01*
X15439230Y-17405650D02*
X15477325Y-17405650D01*
X15477325Y-17405650D02*
X15496373Y-17415174D01*
X15496373Y-17415174D02*
X15505896Y-17434222D01*
X15505896Y-17434222D02*
X15505896Y-17453270D01*
X15505896Y-17453270D02*
X15410658Y-17472317D01*
X15677325Y-17538984D02*
X15677325Y-17338984D01*
X15677325Y-17529460D02*
X15658277Y-17538984D01*
X15658277Y-17538984D02*
X15620182Y-17538984D01*
X15620182Y-17538984D02*
X15601134Y-17529460D01*
X15601134Y-17529460D02*
X15591611Y-17519936D01*
X15591611Y-17519936D02*
X15582087Y-17500889D01*
X15582087Y-17500889D02*
X15582087Y-17443746D01*
X15582087Y-17443746D02*
X15591611Y-17424698D01*
X15591611Y-17424698D02*
X15601134Y-17415174D01*
X15601134Y-17415174D02*
X15620182Y-17405650D01*
X15620182Y-17405650D02*
X15658277Y-17405650D01*
X15658277Y-17405650D02*
X15677325Y-17415174D01*
X15753515Y-17615174D02*
X15763039Y-17605650D01*
X15763039Y-17605650D02*
X15782087Y-17577079D01*
X15782087Y-17577079D02*
X15791611Y-17558031D01*
X15791611Y-17558031D02*
X15801134Y-17529460D01*
X15801134Y-17529460D02*
X15810658Y-17481841D01*
X15810658Y-17481841D02*
X15810658Y-17443746D01*
X15810658Y-17443746D02*
X15801134Y-17396127D01*
X15801134Y-17396127D02*
X15791611Y-17367555D01*
X15791611Y-17367555D02*
X15782087Y-17348508D01*
X15782087Y-17348508D02*
X15763039Y-17319936D01*
X15763039Y-17319936D02*
X15753515Y-17310412D01*
M02*
