%TF.GenerationSoftware,KiCad,Pcbnew,9.0.6*%
%TF.CreationDate,2025-12-22T22:41:29-05:00*%
%TF.ProjectId,TacoCopter_Flight_Controller,5461636f-436f-4707-9465-725f466c6967,rev?*%
%TF.SameCoordinates,Original*%
%TF.FileFunction,Copper,L2,Bot*%
%TF.FilePolarity,Positive*%
%FSLAX46Y46*%
G04 Gerber Fmt 4.6, Leading zero omitted, Abs format (unit mm)*
G04 Created by KiCad (PCBNEW 9.0.6) date 2025-12-22 22:41:29*
%MOMM*%
%LPD*%
G01*
G04 APERTURE LIST*
G04 Aperture macros list*
%AMRoundRect*
0 Rectangle with rounded corners*
0 $1 Rounding radius*
0 $2 $3 $4 $5 $6 $7 $8 $9 X,Y pos of 4 corners*
0 Add a 4 corners polygon primitive as box body*
4,1,4,$2,$3,$4,$5,$6,$7,$8,$9,$2,$3,0*
0 Add four circle primitives for the rounded corners*
1,1,$1+$1,$2,$3*
1,1,$1+$1,$4,$5*
1,1,$1+$1,$6,$7*
1,1,$1+$1,$8,$9*
0 Add four rect primitives between the rounded corners*
20,1,$1+$1,$2,$3,$4,$5,0*
20,1,$1+$1,$4,$5,$6,$7,0*
20,1,$1+$1,$6,$7,$8,$9,0*
20,1,$1+$1,$8,$9,$2,$3,0*%
%AMFreePoly0*
4,1,37,0.000000,0.796148,0.078414,0.796148,0.232228,0.765552,0.377117,0.705537,0.507515,0.618408,0.618408,0.507515,0.705537,0.377117,0.765552,0.232228,0.796148,0.078414,0.796148,-0.078414,0.765552,-0.232228,0.705537,-0.377117,0.618408,-0.507515,0.507515,-0.618408,0.377117,-0.705537,0.232228,-0.765552,0.078414,-0.796148,0.000000,-0.796148,0.000000,-0.800000,-0.600000,-0.800000,
-0.603843,-0.796157,-0.639018,-0.796157,-0.711114,-0.766294,-0.766294,-0.711114,-0.796157,-0.639018,-0.796157,-0.603843,-0.800000,-0.600000,-0.800000,0.600000,-0.796157,0.603843,-0.796157,0.639018,-0.766294,0.711114,-0.711114,0.766294,-0.639018,0.796157,-0.603843,0.796157,-0.600000,0.800000,0.000000,0.800000,0.000000,0.796148,0.000000,0.796148,$1*%
%AMFreePoly1*
4,1,37,0.603843,0.796157,0.639018,0.796157,0.711114,0.766294,0.766294,0.711114,0.796157,0.639018,0.796157,0.603843,0.800000,0.600000,0.800000,-0.600000,0.796157,-0.603843,0.796157,-0.639018,0.766294,-0.711114,0.711114,-0.766294,0.639018,-0.796157,0.603843,-0.796157,0.600000,-0.800000,0.000000,-0.800000,0.000000,-0.796148,-0.078414,-0.796148,-0.232228,-0.765552,-0.377117,-0.705537,
-0.507515,-0.618408,-0.618408,-0.507515,-0.705537,-0.377117,-0.765552,-0.232228,-0.796148,-0.078414,-0.796148,0.078414,-0.765552,0.232228,-0.705537,0.377117,-0.618408,0.507515,-0.507515,0.618408,-0.377117,0.705537,-0.232228,0.765552,-0.078414,0.796148,0.000000,0.796148,0.000000,0.800000,0.600000,0.800000,0.603843,0.796157,0.603843,0.796157,$1*%
G04 Aperture macros list end*
%TA.AperFunction,ComponentPad*%
%ADD10R,1.700000X1.700000*%
%TD*%
%TA.AperFunction,ComponentPad*%
%ADD11C,1.700000*%
%TD*%
%TA.AperFunction,ComponentPad*%
%ADD12C,1.600000*%
%TD*%
%TA.AperFunction,ComponentPad*%
%ADD13FreePoly0,90.000000*%
%TD*%
%TA.AperFunction,ComponentPad*%
%ADD14FreePoly1,90.000000*%
%TD*%
%TA.AperFunction,ComponentPad*%
%ADD15RoundRect,0.200000X0.600000X-0.600000X0.600000X0.600000X-0.600000X0.600000X-0.600000X-0.600000X0*%
%TD*%
%TA.AperFunction,ComponentPad*%
%ADD16RoundRect,0.250000X-0.550000X-0.550000X0.550000X-0.550000X0.550000X0.550000X-0.550000X0.550000X0*%
%TD*%
%TA.AperFunction,ComponentPad*%
%ADD17R,1.800000X1.800000*%
%TD*%
%TA.AperFunction,ComponentPad*%
%ADD18C,1.800000*%
%TD*%
%TA.AperFunction,ComponentPad*%
%ADD19R,1.370000X1.370000*%
%TD*%
%TA.AperFunction,ComponentPad*%
%ADD20C,1.370000*%
%TD*%
%TA.AperFunction,ComponentPad*%
%ADD21RoundRect,0.250000X-0.650000X0.650000X-0.650000X-0.650000X0.650000X-0.650000X0.650000X0.650000X0*%
%TD*%
%TA.AperFunction,ViaPad*%
%ADD22C,0.600000*%
%TD*%
%TA.AperFunction,Conductor*%
%ADD23C,0.200000*%
%TD*%
G04 APERTURE END LIST*
D10*
%TO.P,U1,1,VCC*%
%TO.N,+3V3*%
X157759637Y-108700000D03*
D11*
%TO.P,U1,2,GND*%
%TO.N,GND*%
X157759637Y-106160000D03*
%TO.P,U1,3,SCL*%
%TO.N,Net-(A1-GPIO15)*%
X157759637Y-103620000D03*
%TO.P,U1,4,SDA*%
%TO.N,Net-(A1-GPIO14)*%
X157759637Y-101080000D03*
%TO.P,U1,5,XDA*%
%TO.N,unconnected-(U1-XDA-Pad5)*%
X157759637Y-98540000D03*
%TO.P,U1,6,XCL*%
%TO.N,unconnected-(U1-XCL-Pad6)*%
X157759637Y-96000000D03*
%TO.P,U1,7,AD0*%
%TO.N,GND*%
X157759637Y-93460000D03*
%TO.P,U1,8,INT*%
%TO.N,unconnected-(U1-INT-Pad8)*%
X157759637Y-90920000D03*
%TD*%
D12*
%TO.P,A1,40,VBUS*%
%TO.N,unconnected-(A1-VBUS-Pad40)*%
X91900000Y-91000000D03*
%TO.P,A1,39,VSYS*%
%TO.N,VCC*%
X94440000Y-91000000D03*
D13*
%TO.P,A1,38,GND*%
%TO.N,GND*%
X96980000Y-91000000D03*
D12*
%TO.P,A1,37,3V3_EN*%
%TO.N,Net-(A1-3V3_EN)*%
X99520000Y-91000000D03*
%TO.P,A1,36,3V3*%
%TO.N,+3V3*%
X102060000Y-91000000D03*
%TO.P,A1,35,ADC_VREF*%
%TO.N,unconnected-(A1-ADC_VREF-Pad35)*%
X104600000Y-91000000D03*
%TO.P,A1,34,GPIO28_ADC2*%
%TO.N,unconnected-(A1-GPIO28_ADC2-Pad34)*%
X107140000Y-91000000D03*
D13*
%TO.P,A1,33,AGND*%
%TO.N,unconnected-(A1-AGND-Pad33)*%
X109680000Y-91000000D03*
D12*
%TO.P,A1,32,GPIO27_ADC1*%
%TO.N,unconnected-(A1-GPIO27_ADC1-Pad32)*%
X112220000Y-91000000D03*
%TO.P,A1,31,GPIO26_ADC0*%
%TO.N,unconnected-(A1-GPIO26_ADC0-Pad31)*%
X114760000Y-91000000D03*
%TO.P,A1,30,RUN*%
%TO.N,Net-(A1-3V3_EN)*%
X117300000Y-91000000D03*
%TO.P,A1,29,GPIO22*%
%TO.N,unconnected-(A1-GPIO22-Pad29)*%
X119840000Y-91000000D03*
D13*
%TO.P,A1,28,GND*%
%TO.N,GND*%
X122380000Y-91000000D03*
D12*
%TO.P,A1,27,GPIO21*%
%TO.N,/SCL 0*%
X124920000Y-91000000D03*
%TO.P,A1,26,GPIO20*%
%TO.N,/SDA 0*%
X127460000Y-91000000D03*
%TO.P,A1,25,GPIO19*%
%TO.N,Net-(A1-GPIO19)*%
X130000000Y-91000000D03*
%TO.P,A1,24,GPIO18*%
%TO.N,Net-(A1-GPIO18)*%
X132540000Y-91000000D03*
D13*
%TO.P,A1,23,GND*%
%TO.N,GND*%
X135080000Y-91000000D03*
D12*
%TO.P,A1,22,GPIO17*%
%TO.N,Net-(A1-GPIO17)*%
X137620000Y-91000000D03*
%TO.P,A1,21,GPIO16*%
%TO.N,Net-(A1-GPIO16)*%
X140160000Y-91000000D03*
%TO.P,A1,20,GPIO15*%
%TO.N,Net-(A1-GPIO15)*%
X140160000Y-108780000D03*
%TO.P,A1,19,GPIO14*%
%TO.N,Net-(A1-GPIO14)*%
X137620000Y-108780000D03*
D14*
%TO.P,A1,18,GND*%
%TO.N,GND*%
X135080000Y-108780000D03*
D12*
%TO.P,A1,17,GPIO13*%
%TO.N,unconnected-(A1-GPIO13-Pad17)*%
X132540000Y-108780000D03*
%TO.P,A1,16,GPIO12*%
%TO.N,unconnected-(A1-GPIO12-Pad16)*%
X130000000Y-108780000D03*
%TO.P,A1,15,GPIO11*%
%TO.N,unconnected-(A1-GPIO11-Pad15)*%
X127460000Y-108780000D03*
%TO.P,A1,14,GPIO10*%
%TO.N,unconnected-(A1-GPIO10-Pad14)*%
X124920000Y-108780000D03*
D14*
%TO.P,A1,13,GND*%
%TO.N,GND*%
X122380000Y-108780000D03*
D12*
%TO.P,A1,12,GPIO9*%
%TO.N,Net-(A1-GPIO9)*%
X119840000Y-108780000D03*
%TO.P,A1,11,GPIO8*%
%TO.N,Net-(A1-GPIO8)*%
X117300000Y-108780000D03*
%TO.P,A1,10,GPIO7*%
%TO.N,Net-(A1-GPIO7)*%
X114760000Y-108780000D03*
%TO.P,A1,9,GPIO6*%
%TO.N,Net-(A1-GPIO6)*%
X112220000Y-108780000D03*
D14*
%TO.P,A1,8,GND*%
%TO.N,GND*%
X109680000Y-108780000D03*
D12*
%TO.P,A1,7,GPIO5*%
%TO.N,Net-(A1-GPIO5)*%
X107140000Y-108780000D03*
%TO.P,A1,6,GPIO4*%
%TO.N,Net-(A1-GPIO4)*%
X104600000Y-108780000D03*
%TO.P,A1,5,GPIO3*%
%TO.N,Net-(A1-GPIO3)*%
X102060000Y-108780000D03*
%TO.P,A1,4,GPIO2*%
%TO.N,Net-(A1-GPIO2)*%
X99520000Y-108780000D03*
D14*
%TO.P,A1,3,GND*%
%TO.N,GND*%
X96980000Y-108780000D03*
D12*
%TO.P,A1,2,GPIO1*%
%TO.N,Net-(A1-GPIO1)*%
X94440000Y-108780000D03*
D15*
%TO.P,A1,1,GPIO0*%
%TO.N,Net-(A1-GPIO0)*%
X91900000Y-108780000D03*
%TD*%
D12*
%TO.P,C7,1*%
%TO.N,GND*%
X98000000Y-85000000D03*
%TO.P,C7,2*%
%TO.N,VCC*%
X93000000Y-85000000D03*
%TD*%
%TO.P,C6,1*%
%TO.N,GND*%
X156000000Y-33000000D03*
%TO.P,C6,2*%
%TO.N,VCC*%
X151000000Y-33000000D03*
%TD*%
%TO.P,C5,1*%
%TO.N,+3V3*%
X161500000Y-110500000D03*
%TO.P,C5,2*%
%TO.N,GND*%
X161500000Y-105500000D03*
%TD*%
%TO.P,C4,1*%
%TO.N,VCC*%
X161500000Y-148000000D03*
%TO.P,C4,2*%
%TO.N,GND*%
X156500000Y-148000000D03*
%TD*%
%TO.P,C3,1*%
%TO.N,GND*%
X164500000Y-33000000D03*
%TO.P,C3,2*%
%TO.N,VCC*%
X159500000Y-33000000D03*
%TD*%
D16*
%TO.P,C2,1*%
%TO.N,VCC*%
X138794888Y-141000000D03*
D12*
%TO.P,C2,2*%
%TO.N,GND*%
X141294888Y-141000000D03*
%TD*%
%TO.P,C1,1*%
%TO.N,GND*%
X144500000Y-67000000D03*
%TO.P,C1,2*%
%TO.N,+3V3*%
X139500000Y-67000000D03*
%TD*%
%TO.P,R1,1*%
%TO.N,Net-(J5-Pin_2)*%
X159000000Y-37500000D03*
%TO.P,R1,2*%
%TO.N,Net-(A1-GPIO19)*%
X159000000Y-45120000D03*
%TD*%
D17*
%TO.P,SW1,1,1*%
%TO.N,GND*%
X135077500Y-27577500D03*
D18*
%TO.P,SW1,2,2*%
%TO.N,Net-(A1-3V3_EN)*%
X140077500Y-27577500D03*
%TO.P,SW1,3,3*%
%TO.N,GND*%
X135077500Y-33577500D03*
%TO.P,SW1,4,4*%
%TO.N,Net-(A1-3V3_EN)*%
X140077500Y-33577500D03*
%TD*%
D10*
%TO.P,J4,1,Pin_1*%
%TO.N,Net-(A1-GPIO3)*%
X181000000Y-117460000D03*
D11*
%TO.P,J4,2,Pin_2*%
%TO.N,Net-(A1-GPIO2)*%
X181000000Y-120000000D03*
%TO.P,J4,3,Pin_3*%
%TO.N,Net-(A1-GPIO1)*%
X181000000Y-122540000D03*
%TO.P,J4,4,Pin_4*%
%TO.N,Net-(A1-GPIO0)*%
X181000000Y-125080000D03*
%TD*%
D19*
%TO.P,J2,01,01*%
%TO.N,Net-(A1-GPIO4)*%
X94000000Y-117920000D03*
D20*
%TO.P,J2,02,02*%
%TO.N,unconnected-(J2-Pad02)*%
X96540000Y-117920000D03*
%TO.P,J2,03,03*%
%TO.N,GND*%
X99080000Y-117920000D03*
%TO.P,J2,04,04*%
%TO.N,Net-(A1-GPIO5)*%
X94000000Y-120460000D03*
%TO.P,J2,05,05*%
%TO.N,unconnected-(J2-Pad05)*%
X96540000Y-120460000D03*
%TO.P,J2,06,06*%
%TO.N,GND*%
X99080000Y-120460000D03*
%TO.P,J2,07,07*%
%TO.N,Net-(A1-GPIO6)*%
X94000000Y-123000000D03*
%TO.P,J2,08,08*%
%TO.N,unconnected-(J2-Pad08)*%
X96540000Y-123000000D03*
%TO.P,J2,09,09*%
%TO.N,GND*%
X99080000Y-123000000D03*
%TO.P,J2,10,10*%
%TO.N,Net-(A1-GPIO7)*%
X94000000Y-125540000D03*
%TO.P,J2,11,11*%
%TO.N,unconnected-(J2-Pad11)*%
X96540000Y-125540000D03*
%TO.P,J2,12,12*%
%TO.N,GND*%
X99080000Y-125540000D03*
%TD*%
D10*
%TO.P,J6,1,Pin_1*%
%TO.N,GND*%
X158190000Y-144500000D03*
D11*
%TO.P,J6,2,Pin_2*%
%TO.N,VCC*%
X160730000Y-144500000D03*
%TO.P,J6,3,Pin_3*%
%TO.N,Net-(A1-GPIO17)*%
X163270000Y-144500000D03*
%TO.P,J6,4,Pin_4*%
%TO.N,Net-(A1-GPIO16)*%
X165810000Y-144500000D03*
%TD*%
D10*
%TO.P,U2,1,VIN*%
%TO.N,+3V3*%
X141300000Y-70500000D03*
D11*
%TO.P,U2,2,3Vo*%
%TO.N,unconnected-(U2-3Vo-Pad2)*%
X143840000Y-70500000D03*
%TO.P,U2,3,GND*%
%TO.N,GND*%
X146380000Y-70500000D03*
%TO.P,U2,4,SCL*%
%TO.N,/SCL 0*%
X148920000Y-70500000D03*
%TO.P,U2,5,SDO*%
%TO.N,unconnected-(U2-SDO-Pad5)*%
X151460000Y-70500000D03*
%TO.P,U2,6,SDA*%
%TO.N,/SDA 0*%
X154000000Y-70500000D03*
%TO.P,U2,7,CS*%
%TO.N,unconnected-(U2-CS-Pad7)*%
X156540000Y-70500000D03*
%TO.P,U2,8,INT*%
%TO.N,unconnected-(U2-INT-Pad8)*%
X159080000Y-70500000D03*
%TD*%
D21*
%TO.P,D1,1,K*%
%TO.N,VCC*%
X134500000Y-140920000D03*
D18*
%TO.P,D1,2,A*%
%TO.N,Net-(D1-A)*%
X134500000Y-151080000D03*
%TD*%
D12*
%TO.P,R2,1*%
%TO.N,GND*%
X166620000Y-48550000D03*
%TO.P,R2,2*%
%TO.N,Net-(A1-GPIO19)*%
X159000000Y-48550000D03*
%TD*%
D10*
%TO.P,J5,1,Pin_1*%
%TO.N,VCC*%
X158380000Y-29500000D03*
D11*
%TO.P,J5,2,Pin_2*%
%TO.N,Net-(J5-Pin_2)*%
X160920000Y-29500000D03*
%TO.P,J5,3,Pin_3*%
%TO.N,Net-(A1-GPIO18)*%
X163460000Y-29500000D03*
%TO.P,J5,4,Pin_4*%
%TO.N,GND*%
X166000000Y-29500000D03*
%TD*%
D22*
%TO.N,+3V3*%
X149000000Y-111500000D03*
%TO.N,VCC*%
X140500000Y-103000000D03*
%TO.N,Net-(A1-GPIO9)*%
X148500000Y-45000000D03*
%TO.N,Net-(A1-GPIO8)*%
X147000000Y-45000000D03*
%TO.N,/SDA 0*%
X125000000Y-114500000D03*
%TO.N,/SCL 0*%
X124920000Y-101500000D03*
%TD*%
D23*
%TO.N,+3V3*%
X157759637Y-108700000D02*
X154959637Y-111500000D01*
X154959637Y-111500000D02*
X149000000Y-111500000D01*
%TO.N,VCC*%
X141500000Y-103000000D02*
X163000000Y-81500000D01*
X156000000Y-50500000D02*
X156000000Y-40500000D01*
X163000000Y-81500000D02*
X163000000Y-57500000D01*
X140500000Y-103000000D02*
X141500000Y-103000000D01*
X163000000Y-57500000D02*
X156000000Y-50500000D01*
X156000000Y-40500000D02*
X151000000Y-35500000D01*
X151000000Y-35500000D02*
X151000000Y-33000000D01*
%TO.N,+3V3*%
X102060000Y-91000000D02*
X102060000Y-87440000D01*
X102060000Y-87440000D02*
X105000000Y-84500000D01*
X105000000Y-84500000D02*
X124000000Y-84500000D01*
X124000000Y-84500000D02*
X138000000Y-70500000D01*
X138000000Y-70500000D02*
X141300000Y-70500000D01*
%TO.N,Net-(A1-3V3_EN)*%
X140077500Y-27577500D02*
X140077500Y-33577500D01*
%TO.N,Net-(A1-GPIO8)*%
X117300000Y-108780000D02*
X123486000Y-102594000D01*
X123486000Y-102594000D02*
X123486000Y-87514000D01*
X147000000Y-48500000D02*
X147000000Y-45000000D01*
X123486000Y-87514000D02*
X132000000Y-79000000D01*
X132000000Y-79000000D02*
X155000000Y-79000000D01*
X155000000Y-79000000D02*
X161000000Y-73000000D01*
X161000000Y-73000000D02*
X161000000Y-62500000D01*
X161000000Y-62500000D02*
X147000000Y-48500000D01*
%TO.N,Net-(A1-GPIO9)*%
X148500000Y-45000000D02*
X148500000Y-47500000D01*
X119840000Y-108780000D02*
X126248943Y-102371057D01*
X133000000Y-80500000D02*
X155500000Y-80500000D01*
X126248943Y-102371057D02*
X126248943Y-87251057D01*
X126248943Y-87251057D02*
X133000000Y-80500000D01*
X155500000Y-80500000D02*
X162000000Y-74000000D01*
X162000000Y-74000000D02*
X162000000Y-61000000D01*
X162000000Y-61000000D02*
X148500000Y-47500000D01*
%TO.N,/SCL 0*%
X124920000Y-101500000D02*
X124920000Y-91000000D01*
%TO.N,GND*%
X157759637Y-106160000D02*
X154340000Y-106160000D01*
X154340000Y-106160000D02*
X150500000Y-110000000D01*
X150500000Y-110000000D02*
X136300000Y-110000000D01*
X136300000Y-110000000D02*
X135080000Y-108780000D01*
%TO.N,Net-(A1-GPIO14)*%
X157759637Y-101080000D02*
X153420000Y-101080000D01*
X153420000Y-101080000D02*
X148000000Y-106500000D01*
X148000000Y-106500000D02*
X139000000Y-106500000D01*
X139000000Y-106500000D02*
X137620000Y-107880000D01*
X137620000Y-107880000D02*
X137620000Y-108780000D01*
%TO.N,Net-(A1-GPIO15)*%
X157759637Y-103620000D02*
X154380000Y-103620000D01*
X154380000Y-103620000D02*
X149220000Y-108780000D01*
X149220000Y-108780000D02*
X140160000Y-108780000D01*
%TO.N,/SDA 0*%
X125000000Y-114500000D02*
X126500000Y-113000000D01*
X126500000Y-113000000D02*
X127500000Y-113000000D01*
X128899000Y-111601000D02*
X128899000Y-92439000D01*
X127500000Y-113000000D02*
X128899000Y-111601000D01*
X128899000Y-92439000D02*
X127460000Y-91000000D01*
%TO.N,Net-(A1-GPIO0)*%
X181000000Y-125080000D02*
X108200000Y-125080000D01*
X108200000Y-125080000D02*
X91900000Y-108780000D01*
%TO.N,Net-(A1-GPIO1)*%
X181000000Y-122540000D02*
X108200000Y-122540000D01*
X108200000Y-122540000D02*
X94440000Y-108780000D01*
%TO.N,Net-(A1-GPIO2)*%
X181000000Y-120000000D02*
X110740000Y-120000000D01*
X110740000Y-120000000D02*
X99520000Y-108780000D01*
%TO.N,Net-(A1-GPIO3)*%
X181000000Y-117460000D02*
X110740000Y-117460000D01*
X110740000Y-117460000D02*
X102060000Y-108780000D01*
%TD*%
M02*
