%TF.GenerationSoftware,KiCad,Pcbnew,9.0.6*%
%TF.CreationDate,2025-12-22T22:43:43-05:00*%
%TF.ProjectId,TacoCopter_Flight_Controller,5461636f-436f-4707-9465-725f466c6967,rev?*%
%TF.SameCoordinates,Original*%
%TF.FileFunction,Legend,Top*%
%TF.FilePolarity,Positive*%
%FSLAX46Y46*%
G04 Gerber Fmt 4.6, Leading zero omitted, Abs format (unit mm)*
G04 Created by KiCad (PCBNEW 9.0.6) date 2025-12-22 22:43:43*
%MOMM*%
%LPD*%
G01*
G04 APERTURE LIST*
G04 Aperture macros list*
%AMRoundRect*
0 Rectangle with rounded corners*
0 $1 Rounding radius*
0 $2 $3 $4 $5 $6 $7 $8 $9 X,Y pos of 4 corners*
0 Add a 4 corners polygon primitive as box body*
4,1,4,$2,$3,$4,$5,$6,$7,$8,$9,$2,$3,0*
0 Add four circle primitives for the rounded corners*
1,1,$1+$1,$2,$3*
1,1,$1+$1,$4,$5*
1,1,$1+$1,$6,$7*
1,1,$1+$1,$8,$9*
0 Add four rect primitives between the rounded corners*
20,1,$1+$1,$2,$3,$4,$5,0*
20,1,$1+$1,$4,$5,$6,$7,0*
20,1,$1+$1,$6,$7,$8,$9,0*
20,1,$1+$1,$8,$9,$2,$3,0*%
%AMFreePoly0*
4,1,37,0.800000,0.796148,0.878414,0.796148,1.032228,0.765552,1.177117,0.705537,1.307515,0.618408,1.418408,0.507515,1.505537,0.377117,1.565552,0.232228,1.596148,0.078414,1.596148,-0.078414,1.565552,-0.232228,1.505537,-0.377117,1.418408,-0.507515,1.307515,-0.618408,1.177117,-0.705537,1.032228,-0.765552,0.878414,-0.796148,0.800000,-0.796148,0.800000,-0.800000,-1.400000,-0.800000,
-1.403843,-0.796157,-1.439018,-0.796157,-1.511114,-0.766294,-1.566294,-0.711114,-1.596157,-0.639018,-1.596157,-0.603843,-1.600000,-0.600000,-1.600000,0.600000,-1.596157,0.603843,-1.596157,0.639018,-1.566294,0.711114,-1.511114,0.766294,-1.439018,0.796157,-1.403843,0.796157,-1.400000,0.800000,0.800000,0.800000,0.800000,0.796148,0.800000,0.796148,$1*%
%AMFreePoly1*
4,1,37,0.000000,0.796148,0.078414,0.796148,0.232228,0.765552,0.377117,0.705537,0.507515,0.618408,0.618408,0.507515,0.705537,0.377117,0.765552,0.232228,0.796148,0.078414,0.796148,-0.078414,0.765552,-0.232228,0.705537,-0.377117,0.618408,-0.507515,0.507515,-0.618408,0.377117,-0.705537,0.232228,-0.765552,0.078414,-0.796148,0.000000,-0.796148,0.000000,-0.800000,-0.600000,-0.800000,
-0.603843,-0.796157,-0.639018,-0.796157,-0.711114,-0.766294,-0.766294,-0.711114,-0.796157,-0.639018,-0.796157,-0.603843,-0.800000,-0.600000,-0.800000,0.600000,-0.796157,0.603843,-0.796157,0.639018,-0.766294,0.711114,-0.711114,0.766294,-0.639018,0.796157,-0.603843,0.796157,-0.600000,0.800000,0.000000,0.800000,0.000000,0.796148,0.000000,0.796148,$1*%
%AMFreePoly2*
4,1,37,0.603843,0.796157,0.639018,0.796157,0.711114,0.766294,0.766294,0.711114,0.796157,0.639018,0.796157,0.603843,0.800000,0.600000,0.800000,-0.600000,0.796157,-0.603843,0.796157,-0.639018,0.766294,-0.711114,0.711114,-0.766294,0.639018,-0.796157,0.603843,-0.796157,0.600000,-0.800000,0.000000,-0.800000,0.000000,-0.796148,-0.078414,-0.796148,-0.232228,-0.765552,-0.377117,-0.705537,
-0.507515,-0.618408,-0.618408,-0.507515,-0.705537,-0.377117,-0.765552,-0.232228,-0.796148,-0.078414,-0.796148,0.078414,-0.765552,0.232228,-0.705537,0.377117,-0.618408,0.507515,-0.507515,0.618408,-0.377117,0.705537,-0.232228,0.765552,-0.078414,0.796148,0.000000,0.796148,0.000000,0.800000,0.600000,0.800000,0.603843,0.796157,0.603843,0.796157,$1*%
%AMFreePoly3*
4,1,37,1.403843,0.796157,1.439018,0.796157,1.511114,0.766294,1.566294,0.711114,1.596157,0.639018,1.596157,0.603843,1.600000,0.600000,1.600000,-0.600000,1.596157,-0.603843,1.596157,-0.639018,1.566294,-0.711114,1.511114,-0.766294,1.439018,-0.796157,1.403843,-0.796157,1.400000,-0.800000,-0.800000,-0.800000,-0.800000,-0.796148,-0.878414,-0.796148,-1.032228,-0.765552,-1.177117,-0.705537,
-1.307515,-0.618408,-1.418408,-0.507515,-1.505537,-0.377117,-1.565552,-0.232228,-1.596148,-0.078414,-1.596148,0.078414,-1.565552,0.232228,-1.505537,0.377117,-1.418408,0.507515,-1.307515,0.618408,-1.177117,0.705537,-1.032228,0.765552,-0.878414,0.796148,-0.800000,0.796148,-0.800000,0.800000,1.400000,0.800000,1.403843,0.796157,1.403843,0.796157,$1*%
G04 Aperture macros list end*
%ADD10C,0.100000*%
%ADD11C,0.150000*%
%ADD12C,0.300000*%
%ADD13C,0.400000*%
%ADD14C,0.120000*%
%ADD15C,0.200000*%
%ADD16R,1.700000X1.700000*%
%ADD17C,1.700000*%
%ADD18RoundRect,0.800000X0.000010X-0.800000X0.000010X0.800000X-0.000010X0.800000X-0.000010X-0.800000X0*%
%ADD19C,1.600000*%
%ADD20FreePoly0,90.000000*%
%ADD21FreePoly1,90.000000*%
%ADD22FreePoly2,90.000000*%
%ADD23FreePoly3,90.000000*%
%ADD24RoundRect,0.200000X0.600000X-0.600000X0.600000X0.600000X-0.600000X0.600000X-0.600000X-0.600000X0*%
%ADD25C,2.200000*%
%ADD26C,1.850000*%
%ADD27RoundRect,0.250000X-0.550000X-0.550000X0.550000X-0.550000X0.550000X0.550000X-0.550000X0.550000X0*%
%ADD28R,1.800000X1.800000*%
%ADD29C,1.800000*%
%ADD30RoundRect,0.250000X-0.250000X-1.100000X0.250000X-1.100000X0.250000X1.100000X-0.250000X1.100000X0*%
%ADD31RoundRect,0.250000X-0.650000X-1.650000X0.650000X-1.650000X0.650000X1.650000X-0.650000X1.650000X0*%
%ADD32RoundRect,0.102000X-0.685000X0.685000X-0.685000X-0.685000X0.685000X-0.685000X0.685000X0.685000X0*%
%ADD33C,1.574000*%
%ADD34RoundRect,0.150000X-0.150000X-0.625000X0.150000X-0.625000X0.150000X0.625000X-0.150000X0.625000X0*%
%ADD35RoundRect,0.250000X-0.350000X-0.650000X0.350000X-0.650000X0.350000X0.650000X-0.350000X0.650000X0*%
%ADD36RoundRect,0.250000X-0.650000X0.650000X-0.650000X-0.650000X0.650000X-0.650000X0.650000X0.650000X0*%
G04 APERTURE END LIST*
D10*
D11*
X177002200Y-166007200D02*
X285002200Y-166007200D01*
X285002200Y-198007200D01*
X177002200Y-198007200D01*
X177002200Y-166007200D01*
D10*
D11*
X10000000Y-10000000D02*
X287002200Y-10000000D01*
X287002200Y-200007200D01*
X10000000Y-200007200D01*
X10000000Y-10000000D01*
D10*
D11*
X12000000Y-12000000D02*
X285002200Y-12000000D01*
X285002200Y-198007200D01*
X12000000Y-198007200D01*
X12000000Y-12000000D01*
D10*
D11*
X60000000Y-12000000D02*
X60000000Y-10000000D01*
D10*
D11*
X110000000Y-12000000D02*
X110000000Y-10000000D01*
D10*
D11*
X160000000Y-12000000D02*
X160000000Y-10000000D01*
D10*
D11*
X210000000Y-12000000D02*
X210000000Y-10000000D01*
D10*
D11*
X260000000Y-12000000D02*
X260000000Y-10000000D01*
D10*
D11*
X36089160Y-11593604D02*
X35346303Y-11593604D01*
X35717731Y-11593604D02*
X35717731Y-10293604D01*
X35717731Y-10293604D02*
X35593922Y-10479319D01*
X35593922Y-10479319D02*
X35470112Y-10603128D01*
X35470112Y-10603128D02*
X35346303Y-10665033D01*
D10*
D11*
X85346303Y-10417414D02*
X85408207Y-10355509D01*
X85408207Y-10355509D02*
X85532017Y-10293604D01*
X85532017Y-10293604D02*
X85841541Y-10293604D01*
X85841541Y-10293604D02*
X85965350Y-10355509D01*
X85965350Y-10355509D02*
X86027255Y-10417414D01*
X86027255Y-10417414D02*
X86089160Y-10541223D01*
X86089160Y-10541223D02*
X86089160Y-10665033D01*
X86089160Y-10665033D02*
X86027255Y-10850747D01*
X86027255Y-10850747D02*
X85284398Y-11593604D01*
X85284398Y-11593604D02*
X86089160Y-11593604D01*
D10*
D11*
X135284398Y-10293604D02*
X136089160Y-10293604D01*
X136089160Y-10293604D02*
X135655826Y-10788842D01*
X135655826Y-10788842D02*
X135841541Y-10788842D01*
X135841541Y-10788842D02*
X135965350Y-10850747D01*
X135965350Y-10850747D02*
X136027255Y-10912652D01*
X136027255Y-10912652D02*
X136089160Y-11036461D01*
X136089160Y-11036461D02*
X136089160Y-11345985D01*
X136089160Y-11345985D02*
X136027255Y-11469795D01*
X136027255Y-11469795D02*
X135965350Y-11531700D01*
X135965350Y-11531700D02*
X135841541Y-11593604D01*
X135841541Y-11593604D02*
X135470112Y-11593604D01*
X135470112Y-11593604D02*
X135346303Y-11531700D01*
X135346303Y-11531700D02*
X135284398Y-11469795D01*
D10*
D11*
X185965350Y-10726938D02*
X185965350Y-11593604D01*
X185655826Y-10231700D02*
X185346303Y-11160271D01*
X185346303Y-11160271D02*
X186151064Y-11160271D01*
D10*
D11*
X236027255Y-10293604D02*
X235408207Y-10293604D01*
X235408207Y-10293604D02*
X235346303Y-10912652D01*
X235346303Y-10912652D02*
X235408207Y-10850747D01*
X235408207Y-10850747D02*
X235532017Y-10788842D01*
X235532017Y-10788842D02*
X235841541Y-10788842D01*
X235841541Y-10788842D02*
X235965350Y-10850747D01*
X235965350Y-10850747D02*
X236027255Y-10912652D01*
X236027255Y-10912652D02*
X236089160Y-11036461D01*
X236089160Y-11036461D02*
X236089160Y-11345985D01*
X236089160Y-11345985D02*
X236027255Y-11469795D01*
X236027255Y-11469795D02*
X235965350Y-11531700D01*
X235965350Y-11531700D02*
X235841541Y-11593604D01*
X235841541Y-11593604D02*
X235532017Y-11593604D01*
X235532017Y-11593604D02*
X235408207Y-11531700D01*
X235408207Y-11531700D02*
X235346303Y-11469795D01*
D10*
D11*
X285965350Y-10293604D02*
X285717731Y-10293604D01*
X285717731Y-10293604D02*
X285593922Y-10355509D01*
X285593922Y-10355509D02*
X285532017Y-10417414D01*
X285532017Y-10417414D02*
X285408207Y-10603128D01*
X285408207Y-10603128D02*
X285346303Y-10850747D01*
X285346303Y-10850747D02*
X285346303Y-11345985D01*
X285346303Y-11345985D02*
X285408207Y-11469795D01*
X285408207Y-11469795D02*
X285470112Y-11531700D01*
X285470112Y-11531700D02*
X285593922Y-11593604D01*
X285593922Y-11593604D02*
X285841541Y-11593604D01*
X285841541Y-11593604D02*
X285965350Y-11531700D01*
X285965350Y-11531700D02*
X286027255Y-11469795D01*
X286027255Y-11469795D02*
X286089160Y-11345985D01*
X286089160Y-11345985D02*
X286089160Y-11036461D01*
X286089160Y-11036461D02*
X286027255Y-10912652D01*
X286027255Y-10912652D02*
X285965350Y-10850747D01*
X285965350Y-10850747D02*
X285841541Y-10788842D01*
X285841541Y-10788842D02*
X285593922Y-10788842D01*
X285593922Y-10788842D02*
X285470112Y-10850747D01*
X285470112Y-10850747D02*
X285408207Y-10912652D01*
X285408207Y-10912652D02*
X285346303Y-11036461D01*
D10*
D11*
X60000000Y-198007200D02*
X60000000Y-200007200D01*
D10*
D11*
X110000000Y-198007200D02*
X110000000Y-200007200D01*
D10*
D11*
X160000000Y-198007200D02*
X160000000Y-200007200D01*
D10*
D11*
X210000000Y-198007200D02*
X210000000Y-200007200D01*
D10*
D11*
X260000000Y-198007200D02*
X260000000Y-200007200D01*
D10*
D11*
X36089160Y-199600804D02*
X35346303Y-199600804D01*
X35717731Y-199600804D02*
X35717731Y-198300804D01*
X35717731Y-198300804D02*
X35593922Y-198486519D01*
X35593922Y-198486519D02*
X35470112Y-198610328D01*
X35470112Y-198610328D02*
X35346303Y-198672233D01*
D10*
D11*
X85346303Y-198424614D02*
X85408207Y-198362709D01*
X85408207Y-198362709D02*
X85532017Y-198300804D01*
X85532017Y-198300804D02*
X85841541Y-198300804D01*
X85841541Y-198300804D02*
X85965350Y-198362709D01*
X85965350Y-198362709D02*
X86027255Y-198424614D01*
X86027255Y-198424614D02*
X86089160Y-198548423D01*
X86089160Y-198548423D02*
X86089160Y-198672233D01*
X86089160Y-198672233D02*
X86027255Y-198857947D01*
X86027255Y-198857947D02*
X85284398Y-199600804D01*
X85284398Y-199600804D02*
X86089160Y-199600804D01*
D10*
D11*
X135284398Y-198300804D02*
X136089160Y-198300804D01*
X136089160Y-198300804D02*
X135655826Y-198796042D01*
X135655826Y-198796042D02*
X135841541Y-198796042D01*
X135841541Y-198796042D02*
X135965350Y-198857947D01*
X135965350Y-198857947D02*
X136027255Y-198919852D01*
X136027255Y-198919852D02*
X136089160Y-199043661D01*
X136089160Y-199043661D02*
X136089160Y-199353185D01*
X136089160Y-199353185D02*
X136027255Y-199476995D01*
X136027255Y-199476995D02*
X135965350Y-199538900D01*
X135965350Y-199538900D02*
X135841541Y-199600804D01*
X135841541Y-199600804D02*
X135470112Y-199600804D01*
X135470112Y-199600804D02*
X135346303Y-199538900D01*
X135346303Y-199538900D02*
X135284398Y-199476995D01*
D10*
D11*
X185965350Y-198734138D02*
X185965350Y-199600804D01*
X185655826Y-198238900D02*
X185346303Y-199167471D01*
X185346303Y-199167471D02*
X186151064Y-199167471D01*
D10*
D11*
X236027255Y-198300804D02*
X235408207Y-198300804D01*
X235408207Y-198300804D02*
X235346303Y-198919852D01*
X235346303Y-198919852D02*
X235408207Y-198857947D01*
X235408207Y-198857947D02*
X235532017Y-198796042D01*
X235532017Y-198796042D02*
X235841541Y-198796042D01*
X235841541Y-198796042D02*
X235965350Y-198857947D01*
X235965350Y-198857947D02*
X236027255Y-198919852D01*
X236027255Y-198919852D02*
X236089160Y-199043661D01*
X236089160Y-199043661D02*
X236089160Y-199353185D01*
X236089160Y-199353185D02*
X236027255Y-199476995D01*
X236027255Y-199476995D02*
X235965350Y-199538900D01*
X235965350Y-199538900D02*
X235841541Y-199600804D01*
X235841541Y-199600804D02*
X235532017Y-199600804D01*
X235532017Y-199600804D02*
X235408207Y-199538900D01*
X235408207Y-199538900D02*
X235346303Y-199476995D01*
D10*
D11*
X285965350Y-198300804D02*
X285717731Y-198300804D01*
X285717731Y-198300804D02*
X285593922Y-198362709D01*
X285593922Y-198362709D02*
X285532017Y-198424614D01*
X285532017Y-198424614D02*
X285408207Y-198610328D01*
X285408207Y-198610328D02*
X285346303Y-198857947D01*
X285346303Y-198857947D02*
X285346303Y-199353185D01*
X285346303Y-199353185D02*
X285408207Y-199476995D01*
X285408207Y-199476995D02*
X285470112Y-199538900D01*
X285470112Y-199538900D02*
X285593922Y-199600804D01*
X285593922Y-199600804D02*
X285841541Y-199600804D01*
X285841541Y-199600804D02*
X285965350Y-199538900D01*
X285965350Y-199538900D02*
X286027255Y-199476995D01*
X286027255Y-199476995D02*
X286089160Y-199353185D01*
X286089160Y-199353185D02*
X286089160Y-199043661D01*
X286089160Y-199043661D02*
X286027255Y-198919852D01*
X286027255Y-198919852D02*
X285965350Y-198857947D01*
X285965350Y-198857947D02*
X285841541Y-198796042D01*
X285841541Y-198796042D02*
X285593922Y-198796042D01*
X285593922Y-198796042D02*
X285470112Y-198857947D01*
X285470112Y-198857947D02*
X285408207Y-198919852D01*
X285408207Y-198919852D02*
X285346303Y-199043661D01*
D10*
D11*
X10000000Y-60000000D02*
X12000000Y-60000000D01*
D10*
D11*
X10000000Y-110000000D02*
X12000000Y-110000000D01*
D10*
D11*
X10000000Y-160000000D02*
X12000000Y-160000000D01*
D10*
D11*
X10690476Y-35222176D02*
X11309523Y-35222176D01*
X10566666Y-35593604D02*
X10999999Y-34293604D01*
X10999999Y-34293604D02*
X11433333Y-35593604D01*
D10*
D11*
X11092857Y-84912652D02*
X11278571Y-84974557D01*
X11278571Y-84974557D02*
X11340476Y-85036461D01*
X11340476Y-85036461D02*
X11402380Y-85160271D01*
X11402380Y-85160271D02*
X11402380Y-85345985D01*
X11402380Y-85345985D02*
X11340476Y-85469795D01*
X11340476Y-85469795D02*
X11278571Y-85531700D01*
X11278571Y-85531700D02*
X11154761Y-85593604D01*
X11154761Y-85593604D02*
X10659523Y-85593604D01*
X10659523Y-85593604D02*
X10659523Y-84293604D01*
X10659523Y-84293604D02*
X11092857Y-84293604D01*
X11092857Y-84293604D02*
X11216666Y-84355509D01*
X11216666Y-84355509D02*
X11278571Y-84417414D01*
X11278571Y-84417414D02*
X11340476Y-84541223D01*
X11340476Y-84541223D02*
X11340476Y-84665033D01*
X11340476Y-84665033D02*
X11278571Y-84788842D01*
X11278571Y-84788842D02*
X11216666Y-84850747D01*
X11216666Y-84850747D02*
X11092857Y-84912652D01*
X11092857Y-84912652D02*
X10659523Y-84912652D01*
D10*
D11*
X11402380Y-135469795D02*
X11340476Y-135531700D01*
X11340476Y-135531700D02*
X11154761Y-135593604D01*
X11154761Y-135593604D02*
X11030952Y-135593604D01*
X11030952Y-135593604D02*
X10845238Y-135531700D01*
X10845238Y-135531700D02*
X10721428Y-135407890D01*
X10721428Y-135407890D02*
X10659523Y-135284080D01*
X10659523Y-135284080D02*
X10597619Y-135036461D01*
X10597619Y-135036461D02*
X10597619Y-134850747D01*
X10597619Y-134850747D02*
X10659523Y-134603128D01*
X10659523Y-134603128D02*
X10721428Y-134479319D01*
X10721428Y-134479319D02*
X10845238Y-134355509D01*
X10845238Y-134355509D02*
X11030952Y-134293604D01*
X11030952Y-134293604D02*
X11154761Y-134293604D01*
X11154761Y-134293604D02*
X11340476Y-134355509D01*
X11340476Y-134355509D02*
X11402380Y-134417414D01*
D10*
D11*
X10659523Y-185593604D02*
X10659523Y-184293604D01*
X10659523Y-184293604D02*
X10969047Y-184293604D01*
X10969047Y-184293604D02*
X11154761Y-184355509D01*
X11154761Y-184355509D02*
X11278571Y-184479319D01*
X11278571Y-184479319D02*
X11340476Y-184603128D01*
X11340476Y-184603128D02*
X11402380Y-184850747D01*
X11402380Y-184850747D02*
X11402380Y-185036461D01*
X11402380Y-185036461D02*
X11340476Y-185284080D01*
X11340476Y-185284080D02*
X11278571Y-185407890D01*
X11278571Y-185407890D02*
X11154761Y-185531700D01*
X11154761Y-185531700D02*
X10969047Y-185593604D01*
X10969047Y-185593604D02*
X10659523Y-185593604D01*
D10*
D11*
X287002200Y-60000000D02*
X285002200Y-60000000D01*
D10*
D11*
X287002200Y-110000000D02*
X285002200Y-110000000D01*
D10*
D11*
X287002200Y-160000000D02*
X285002200Y-160000000D01*
D10*
D11*
X285692676Y-35222176D02*
X286311723Y-35222176D01*
X285568866Y-35593604D02*
X286002199Y-34293604D01*
X286002199Y-34293604D02*
X286435533Y-35593604D01*
D10*
D11*
X286095057Y-84912652D02*
X286280771Y-84974557D01*
X286280771Y-84974557D02*
X286342676Y-85036461D01*
X286342676Y-85036461D02*
X286404580Y-85160271D01*
X286404580Y-85160271D02*
X286404580Y-85345985D01*
X286404580Y-85345985D02*
X286342676Y-85469795D01*
X286342676Y-85469795D02*
X286280771Y-85531700D01*
X286280771Y-85531700D02*
X286156961Y-85593604D01*
X286156961Y-85593604D02*
X285661723Y-85593604D01*
X285661723Y-85593604D02*
X285661723Y-84293604D01*
X285661723Y-84293604D02*
X286095057Y-84293604D01*
X286095057Y-84293604D02*
X286218866Y-84355509D01*
X286218866Y-84355509D02*
X286280771Y-84417414D01*
X286280771Y-84417414D02*
X286342676Y-84541223D01*
X286342676Y-84541223D02*
X286342676Y-84665033D01*
X286342676Y-84665033D02*
X286280771Y-84788842D01*
X286280771Y-84788842D02*
X286218866Y-84850747D01*
X286218866Y-84850747D02*
X286095057Y-84912652D01*
X286095057Y-84912652D02*
X285661723Y-84912652D01*
D10*
D11*
X286404580Y-135469795D02*
X286342676Y-135531700D01*
X286342676Y-135531700D02*
X286156961Y-135593604D01*
X286156961Y-135593604D02*
X286033152Y-135593604D01*
X286033152Y-135593604D02*
X285847438Y-135531700D01*
X285847438Y-135531700D02*
X285723628Y-135407890D01*
X285723628Y-135407890D02*
X285661723Y-135284080D01*
X285661723Y-135284080D02*
X285599819Y-135036461D01*
X285599819Y-135036461D02*
X285599819Y-134850747D01*
X285599819Y-134850747D02*
X285661723Y-134603128D01*
X285661723Y-134603128D02*
X285723628Y-134479319D01*
X285723628Y-134479319D02*
X285847438Y-134355509D01*
X285847438Y-134355509D02*
X286033152Y-134293604D01*
X286033152Y-134293604D02*
X286156961Y-134293604D01*
X286156961Y-134293604D02*
X286342676Y-134355509D01*
X286342676Y-134355509D02*
X286404580Y-134417414D01*
D10*
D11*
X285661723Y-185593604D02*
X285661723Y-184293604D01*
X285661723Y-184293604D02*
X285971247Y-184293604D01*
X285971247Y-184293604D02*
X286156961Y-184355509D01*
X286156961Y-184355509D02*
X286280771Y-184479319D01*
X286280771Y-184479319D02*
X286342676Y-184603128D01*
X286342676Y-184603128D02*
X286404580Y-184850747D01*
X286404580Y-184850747D02*
X286404580Y-185036461D01*
X286404580Y-185036461D02*
X286342676Y-185284080D01*
X286342676Y-185284080D02*
X286280771Y-185407890D01*
X286280771Y-185407890D02*
X286156961Y-185531700D01*
X286156961Y-185531700D02*
X285971247Y-185593604D01*
X285971247Y-185593604D02*
X285661723Y-185593604D01*
D10*
D11*
X200458026Y-193793328D02*
X200458026Y-192293328D01*
X200458026Y-192293328D02*
X200815169Y-192293328D01*
X200815169Y-192293328D02*
X201029455Y-192364757D01*
X201029455Y-192364757D02*
X201172312Y-192507614D01*
X201172312Y-192507614D02*
X201243741Y-192650471D01*
X201243741Y-192650471D02*
X201315169Y-192936185D01*
X201315169Y-192936185D02*
X201315169Y-193150471D01*
X201315169Y-193150471D02*
X201243741Y-193436185D01*
X201243741Y-193436185D02*
X201172312Y-193579042D01*
X201172312Y-193579042D02*
X201029455Y-193721900D01*
X201029455Y-193721900D02*
X200815169Y-193793328D01*
X200815169Y-193793328D02*
X200458026Y-193793328D01*
X202600884Y-193793328D02*
X202600884Y-193007614D01*
X202600884Y-193007614D02*
X202529455Y-192864757D01*
X202529455Y-192864757D02*
X202386598Y-192793328D01*
X202386598Y-192793328D02*
X202100884Y-192793328D01*
X202100884Y-192793328D02*
X201958026Y-192864757D01*
X202600884Y-193721900D02*
X202458026Y-193793328D01*
X202458026Y-193793328D02*
X202100884Y-193793328D01*
X202100884Y-193793328D02*
X201958026Y-193721900D01*
X201958026Y-193721900D02*
X201886598Y-193579042D01*
X201886598Y-193579042D02*
X201886598Y-193436185D01*
X201886598Y-193436185D02*
X201958026Y-193293328D01*
X201958026Y-193293328D02*
X202100884Y-193221900D01*
X202100884Y-193221900D02*
X202458026Y-193221900D01*
X202458026Y-193221900D02*
X202600884Y-193150471D01*
X203100884Y-192793328D02*
X203672312Y-192793328D01*
X203315169Y-192293328D02*
X203315169Y-193579042D01*
X203315169Y-193579042D02*
X203386598Y-193721900D01*
X203386598Y-193721900D02*
X203529455Y-193793328D01*
X203529455Y-193793328D02*
X203672312Y-193793328D01*
X204743741Y-193721900D02*
X204600884Y-193793328D01*
X204600884Y-193793328D02*
X204315170Y-193793328D01*
X204315170Y-193793328D02*
X204172312Y-193721900D01*
X204172312Y-193721900D02*
X204100884Y-193579042D01*
X204100884Y-193579042D02*
X204100884Y-193007614D01*
X204100884Y-193007614D02*
X204172312Y-192864757D01*
X204172312Y-192864757D02*
X204315170Y-192793328D01*
X204315170Y-192793328D02*
X204600884Y-192793328D01*
X204600884Y-192793328D02*
X204743741Y-192864757D01*
X204743741Y-192864757D02*
X204815170Y-193007614D01*
X204815170Y-193007614D02*
X204815170Y-193150471D01*
X204815170Y-193150471D02*
X204100884Y-193293328D01*
X205458026Y-193650471D02*
X205529455Y-193721900D01*
X205529455Y-193721900D02*
X205458026Y-193793328D01*
X205458026Y-193793328D02*
X205386598Y-193721900D01*
X205386598Y-193721900D02*
X205458026Y-193650471D01*
X205458026Y-193650471D02*
X205458026Y-193793328D01*
X205458026Y-192864757D02*
X205529455Y-192936185D01*
X205529455Y-192936185D02*
X205458026Y-193007614D01*
X205458026Y-193007614D02*
X205386598Y-192936185D01*
X205386598Y-192936185D02*
X205458026Y-192864757D01*
X205458026Y-192864757D02*
X205458026Y-193007614D01*
D10*
D11*
X177002200Y-194507200D02*
X285002200Y-194507200D01*
D10*
D11*
X178458026Y-196593328D02*
X178458026Y-195093328D01*
X179315169Y-196593328D02*
X178672312Y-195736185D01*
X179315169Y-195093328D02*
X178458026Y-195950471D01*
X179958026Y-196593328D02*
X179958026Y-195593328D01*
X179958026Y-195093328D02*
X179886598Y-195164757D01*
X179886598Y-195164757D02*
X179958026Y-195236185D01*
X179958026Y-195236185D02*
X180029455Y-195164757D01*
X180029455Y-195164757D02*
X179958026Y-195093328D01*
X179958026Y-195093328D02*
X179958026Y-195236185D01*
X181529455Y-196450471D02*
X181458027Y-196521900D01*
X181458027Y-196521900D02*
X181243741Y-196593328D01*
X181243741Y-196593328D02*
X181100884Y-196593328D01*
X181100884Y-196593328D02*
X180886598Y-196521900D01*
X180886598Y-196521900D02*
X180743741Y-196379042D01*
X180743741Y-196379042D02*
X180672312Y-196236185D01*
X180672312Y-196236185D02*
X180600884Y-195950471D01*
X180600884Y-195950471D02*
X180600884Y-195736185D01*
X180600884Y-195736185D02*
X180672312Y-195450471D01*
X180672312Y-195450471D02*
X180743741Y-195307614D01*
X180743741Y-195307614D02*
X180886598Y-195164757D01*
X180886598Y-195164757D02*
X181100884Y-195093328D01*
X181100884Y-195093328D02*
X181243741Y-195093328D01*
X181243741Y-195093328D02*
X181458027Y-195164757D01*
X181458027Y-195164757D02*
X181529455Y-195236185D01*
X182815170Y-196593328D02*
X182815170Y-195807614D01*
X182815170Y-195807614D02*
X182743741Y-195664757D01*
X182743741Y-195664757D02*
X182600884Y-195593328D01*
X182600884Y-195593328D02*
X182315170Y-195593328D01*
X182315170Y-195593328D02*
X182172312Y-195664757D01*
X182815170Y-196521900D02*
X182672312Y-196593328D01*
X182672312Y-196593328D02*
X182315170Y-196593328D01*
X182315170Y-196593328D02*
X182172312Y-196521900D01*
X182172312Y-196521900D02*
X182100884Y-196379042D01*
X182100884Y-196379042D02*
X182100884Y-196236185D01*
X182100884Y-196236185D02*
X182172312Y-196093328D01*
X182172312Y-196093328D02*
X182315170Y-196021900D01*
X182315170Y-196021900D02*
X182672312Y-196021900D01*
X182672312Y-196021900D02*
X182815170Y-195950471D01*
X184172313Y-196593328D02*
X184172313Y-195093328D01*
X184172313Y-196521900D02*
X184029455Y-196593328D01*
X184029455Y-196593328D02*
X183743741Y-196593328D01*
X183743741Y-196593328D02*
X183600884Y-196521900D01*
X183600884Y-196521900D02*
X183529455Y-196450471D01*
X183529455Y-196450471D02*
X183458027Y-196307614D01*
X183458027Y-196307614D02*
X183458027Y-195879042D01*
X183458027Y-195879042D02*
X183529455Y-195736185D01*
X183529455Y-195736185D02*
X183600884Y-195664757D01*
X183600884Y-195664757D02*
X183743741Y-195593328D01*
X183743741Y-195593328D02*
X184029455Y-195593328D01*
X184029455Y-195593328D02*
X184172313Y-195664757D01*
X186029455Y-195807614D02*
X186529455Y-195807614D01*
X186743741Y-196593328D02*
X186029455Y-196593328D01*
X186029455Y-196593328D02*
X186029455Y-195093328D01*
X186029455Y-195093328D02*
X186743741Y-195093328D01*
X187386598Y-196450471D02*
X187458027Y-196521900D01*
X187458027Y-196521900D02*
X187386598Y-196593328D01*
X187386598Y-196593328D02*
X187315170Y-196521900D01*
X187315170Y-196521900D02*
X187386598Y-196450471D01*
X187386598Y-196450471D02*
X187386598Y-196593328D01*
X188100884Y-196593328D02*
X188100884Y-195093328D01*
X188100884Y-195093328D02*
X188458027Y-195093328D01*
X188458027Y-195093328D02*
X188672313Y-195164757D01*
X188672313Y-195164757D02*
X188815170Y-195307614D01*
X188815170Y-195307614D02*
X188886599Y-195450471D01*
X188886599Y-195450471D02*
X188958027Y-195736185D01*
X188958027Y-195736185D02*
X188958027Y-195950471D01*
X188958027Y-195950471D02*
X188886599Y-196236185D01*
X188886599Y-196236185D02*
X188815170Y-196379042D01*
X188815170Y-196379042D02*
X188672313Y-196521900D01*
X188672313Y-196521900D02*
X188458027Y-196593328D01*
X188458027Y-196593328D02*
X188100884Y-196593328D01*
X189600884Y-196450471D02*
X189672313Y-196521900D01*
X189672313Y-196521900D02*
X189600884Y-196593328D01*
X189600884Y-196593328D02*
X189529456Y-196521900D01*
X189529456Y-196521900D02*
X189600884Y-196450471D01*
X189600884Y-196450471D02*
X189600884Y-196593328D01*
X190243742Y-196164757D02*
X190958028Y-196164757D01*
X190100885Y-196593328D02*
X190600885Y-195093328D01*
X190600885Y-195093328D02*
X191100885Y-196593328D01*
X191600884Y-196450471D02*
X191672313Y-196521900D01*
X191672313Y-196521900D02*
X191600884Y-196593328D01*
X191600884Y-196593328D02*
X191529456Y-196521900D01*
X191529456Y-196521900D02*
X191600884Y-196450471D01*
X191600884Y-196450471D02*
X191600884Y-196593328D01*
X193529456Y-196593328D02*
X193815170Y-196593328D01*
X193815170Y-196593328D02*
X193958027Y-196521900D01*
X193958027Y-196521900D02*
X194029456Y-196450471D01*
X194029456Y-196450471D02*
X194172313Y-196236185D01*
X194172313Y-196236185D02*
X194243742Y-195950471D01*
X194243742Y-195950471D02*
X194243742Y-195379042D01*
X194243742Y-195379042D02*
X194172313Y-195236185D01*
X194172313Y-195236185D02*
X194100885Y-195164757D01*
X194100885Y-195164757D02*
X193958027Y-195093328D01*
X193958027Y-195093328D02*
X193672313Y-195093328D01*
X193672313Y-195093328D02*
X193529456Y-195164757D01*
X193529456Y-195164757D02*
X193458027Y-195236185D01*
X193458027Y-195236185D02*
X193386599Y-195379042D01*
X193386599Y-195379042D02*
X193386599Y-195736185D01*
X193386599Y-195736185D02*
X193458027Y-195879042D01*
X193458027Y-195879042D02*
X193529456Y-195950471D01*
X193529456Y-195950471D02*
X193672313Y-196021900D01*
X193672313Y-196021900D02*
X193958027Y-196021900D01*
X193958027Y-196021900D02*
X194100885Y-195950471D01*
X194100885Y-195950471D02*
X194172313Y-195879042D01*
X194172313Y-195879042D02*
X194243742Y-195736185D01*
X194886598Y-196450471D02*
X194958027Y-196521900D01*
X194958027Y-196521900D02*
X194886598Y-196593328D01*
X194886598Y-196593328D02*
X194815170Y-196521900D01*
X194815170Y-196521900D02*
X194886598Y-196450471D01*
X194886598Y-196450471D02*
X194886598Y-196593328D01*
X195886599Y-195093328D02*
X196029456Y-195093328D01*
X196029456Y-195093328D02*
X196172313Y-195164757D01*
X196172313Y-195164757D02*
X196243742Y-195236185D01*
X196243742Y-195236185D02*
X196315170Y-195379042D01*
X196315170Y-195379042D02*
X196386599Y-195664757D01*
X196386599Y-195664757D02*
X196386599Y-196021900D01*
X196386599Y-196021900D02*
X196315170Y-196307614D01*
X196315170Y-196307614D02*
X196243742Y-196450471D01*
X196243742Y-196450471D02*
X196172313Y-196521900D01*
X196172313Y-196521900D02*
X196029456Y-196593328D01*
X196029456Y-196593328D02*
X195886599Y-196593328D01*
X195886599Y-196593328D02*
X195743742Y-196521900D01*
X195743742Y-196521900D02*
X195672313Y-196450471D01*
X195672313Y-196450471D02*
X195600884Y-196307614D01*
X195600884Y-196307614D02*
X195529456Y-196021900D01*
X195529456Y-196021900D02*
X195529456Y-195664757D01*
X195529456Y-195664757D02*
X195600884Y-195379042D01*
X195600884Y-195379042D02*
X195672313Y-195236185D01*
X195672313Y-195236185D02*
X195743742Y-195164757D01*
X195743742Y-195164757D02*
X195886599Y-195093328D01*
X197029455Y-196450471D02*
X197100884Y-196521900D01*
X197100884Y-196521900D02*
X197029455Y-196593328D01*
X197029455Y-196593328D02*
X196958027Y-196521900D01*
X196958027Y-196521900D02*
X197029455Y-196450471D01*
X197029455Y-196450471D02*
X197029455Y-196593328D01*
X198386599Y-195093328D02*
X198100884Y-195093328D01*
X198100884Y-195093328D02*
X197958027Y-195164757D01*
X197958027Y-195164757D02*
X197886599Y-195236185D01*
X197886599Y-195236185D02*
X197743741Y-195450471D01*
X197743741Y-195450471D02*
X197672313Y-195736185D01*
X197672313Y-195736185D02*
X197672313Y-196307614D01*
X197672313Y-196307614D02*
X197743741Y-196450471D01*
X197743741Y-196450471D02*
X197815170Y-196521900D01*
X197815170Y-196521900D02*
X197958027Y-196593328D01*
X197958027Y-196593328D02*
X198243741Y-196593328D01*
X198243741Y-196593328D02*
X198386599Y-196521900D01*
X198386599Y-196521900D02*
X198458027Y-196450471D01*
X198458027Y-196450471D02*
X198529456Y-196307614D01*
X198529456Y-196307614D02*
X198529456Y-195950471D01*
X198529456Y-195950471D02*
X198458027Y-195807614D01*
X198458027Y-195807614D02*
X198386599Y-195736185D01*
X198386599Y-195736185D02*
X198243741Y-195664757D01*
X198243741Y-195664757D02*
X197958027Y-195664757D01*
X197958027Y-195664757D02*
X197815170Y-195736185D01*
X197815170Y-195736185D02*
X197743741Y-195807614D01*
X197743741Y-195807614D02*
X197672313Y-195950471D01*
D10*
D11*
X177002200Y-191507200D02*
X285002200Y-191507200D01*
D10*
D12*
X264413853Y-193785528D02*
X263913853Y-193071242D01*
X263556710Y-193785528D02*
X263556710Y-192285528D01*
X263556710Y-192285528D02*
X264128139Y-192285528D01*
X264128139Y-192285528D02*
X264270996Y-192356957D01*
X264270996Y-192356957D02*
X264342425Y-192428385D01*
X264342425Y-192428385D02*
X264413853Y-192571242D01*
X264413853Y-192571242D02*
X264413853Y-192785528D01*
X264413853Y-192785528D02*
X264342425Y-192928385D01*
X264342425Y-192928385D02*
X264270996Y-192999814D01*
X264270996Y-192999814D02*
X264128139Y-193071242D01*
X264128139Y-193071242D02*
X263556710Y-193071242D01*
X265628139Y-193714100D02*
X265485282Y-193785528D01*
X265485282Y-193785528D02*
X265199568Y-193785528D01*
X265199568Y-193785528D02*
X265056710Y-193714100D01*
X265056710Y-193714100D02*
X264985282Y-193571242D01*
X264985282Y-193571242D02*
X264985282Y-192999814D01*
X264985282Y-192999814D02*
X265056710Y-192856957D01*
X265056710Y-192856957D02*
X265199568Y-192785528D01*
X265199568Y-192785528D02*
X265485282Y-192785528D01*
X265485282Y-192785528D02*
X265628139Y-192856957D01*
X265628139Y-192856957D02*
X265699568Y-192999814D01*
X265699568Y-192999814D02*
X265699568Y-193142671D01*
X265699568Y-193142671D02*
X264985282Y-193285528D01*
X266199567Y-192785528D02*
X266556710Y-193785528D01*
X266556710Y-193785528D02*
X266913853Y-192785528D01*
X267485281Y-193642671D02*
X267556710Y-193714100D01*
X267556710Y-193714100D02*
X267485281Y-193785528D01*
X267485281Y-193785528D02*
X267413853Y-193714100D01*
X267413853Y-193714100D02*
X267485281Y-193642671D01*
X267485281Y-193642671D02*
X267485281Y-193785528D01*
X267485281Y-192856957D02*
X267556710Y-192928385D01*
X267556710Y-192928385D02*
X267485281Y-192999814D01*
X267485281Y-192999814D02*
X267413853Y-192928385D01*
X267413853Y-192928385D02*
X267485281Y-192856957D01*
X267485281Y-192856957D02*
X267485281Y-192999814D01*
D10*
D11*
X178386598Y-193721900D02*
X178600884Y-193793328D01*
X178600884Y-193793328D02*
X178958026Y-193793328D01*
X178958026Y-193793328D02*
X179100884Y-193721900D01*
X179100884Y-193721900D02*
X179172312Y-193650471D01*
X179172312Y-193650471D02*
X179243741Y-193507614D01*
X179243741Y-193507614D02*
X179243741Y-193364757D01*
X179243741Y-193364757D02*
X179172312Y-193221900D01*
X179172312Y-193221900D02*
X179100884Y-193150471D01*
X179100884Y-193150471D02*
X178958026Y-193079042D01*
X178958026Y-193079042D02*
X178672312Y-193007614D01*
X178672312Y-193007614D02*
X178529455Y-192936185D01*
X178529455Y-192936185D02*
X178458026Y-192864757D01*
X178458026Y-192864757D02*
X178386598Y-192721900D01*
X178386598Y-192721900D02*
X178386598Y-192579042D01*
X178386598Y-192579042D02*
X178458026Y-192436185D01*
X178458026Y-192436185D02*
X178529455Y-192364757D01*
X178529455Y-192364757D02*
X178672312Y-192293328D01*
X178672312Y-192293328D02*
X179029455Y-192293328D01*
X179029455Y-192293328D02*
X179243741Y-192364757D01*
X179886597Y-193793328D02*
X179886597Y-192793328D01*
X179886597Y-192293328D02*
X179815169Y-192364757D01*
X179815169Y-192364757D02*
X179886597Y-192436185D01*
X179886597Y-192436185D02*
X179958026Y-192364757D01*
X179958026Y-192364757D02*
X179886597Y-192293328D01*
X179886597Y-192293328D02*
X179886597Y-192436185D01*
X180458026Y-192793328D02*
X181243741Y-192793328D01*
X181243741Y-192793328D02*
X180458026Y-193793328D01*
X180458026Y-193793328D02*
X181243741Y-193793328D01*
X182386598Y-193721900D02*
X182243741Y-193793328D01*
X182243741Y-193793328D02*
X181958027Y-193793328D01*
X181958027Y-193793328D02*
X181815169Y-193721900D01*
X181815169Y-193721900D02*
X181743741Y-193579042D01*
X181743741Y-193579042D02*
X181743741Y-193007614D01*
X181743741Y-193007614D02*
X181815169Y-192864757D01*
X181815169Y-192864757D02*
X181958027Y-192793328D01*
X181958027Y-192793328D02*
X182243741Y-192793328D01*
X182243741Y-192793328D02*
X182386598Y-192864757D01*
X182386598Y-192864757D02*
X182458027Y-193007614D01*
X182458027Y-193007614D02*
X182458027Y-193150471D01*
X182458027Y-193150471D02*
X181743741Y-193293328D01*
X183100883Y-193650471D02*
X183172312Y-193721900D01*
X183172312Y-193721900D02*
X183100883Y-193793328D01*
X183100883Y-193793328D02*
X183029455Y-193721900D01*
X183029455Y-193721900D02*
X183100883Y-193650471D01*
X183100883Y-193650471D02*
X183100883Y-193793328D01*
X183100883Y-192864757D02*
X183172312Y-192936185D01*
X183172312Y-192936185D02*
X183100883Y-193007614D01*
X183100883Y-193007614D02*
X183029455Y-192936185D01*
X183029455Y-192936185D02*
X183100883Y-192864757D01*
X183100883Y-192864757D02*
X183100883Y-193007614D01*
X184886598Y-193364757D02*
X185600884Y-193364757D01*
X184743741Y-193793328D02*
X185243741Y-192293328D01*
X185243741Y-192293328D02*
X185743741Y-193793328D01*
X186886598Y-192793328D02*
X186886598Y-193793328D01*
X186529455Y-192221900D02*
X186172312Y-193293328D01*
X186172312Y-193293328D02*
X187100883Y-193293328D01*
D10*
D11*
X263458026Y-196593328D02*
X263458026Y-195093328D01*
X264815170Y-196593328D02*
X264815170Y-195093328D01*
X264815170Y-196521900D02*
X264672312Y-196593328D01*
X264672312Y-196593328D02*
X264386598Y-196593328D01*
X264386598Y-196593328D02*
X264243741Y-196521900D01*
X264243741Y-196521900D02*
X264172312Y-196450471D01*
X264172312Y-196450471D02*
X264100884Y-196307614D01*
X264100884Y-196307614D02*
X264100884Y-195879042D01*
X264100884Y-195879042D02*
X264172312Y-195736185D01*
X264172312Y-195736185D02*
X264243741Y-195664757D01*
X264243741Y-195664757D02*
X264386598Y-195593328D01*
X264386598Y-195593328D02*
X264672312Y-195593328D01*
X264672312Y-195593328D02*
X264815170Y-195664757D01*
X265529455Y-196450471D02*
X265600884Y-196521900D01*
X265600884Y-196521900D02*
X265529455Y-196593328D01*
X265529455Y-196593328D02*
X265458027Y-196521900D01*
X265458027Y-196521900D02*
X265529455Y-196450471D01*
X265529455Y-196450471D02*
X265529455Y-196593328D01*
X265529455Y-195664757D02*
X265600884Y-195736185D01*
X265600884Y-195736185D02*
X265529455Y-195807614D01*
X265529455Y-195807614D02*
X265458027Y-195736185D01*
X265458027Y-195736185D02*
X265529455Y-195664757D01*
X265529455Y-195664757D02*
X265529455Y-195807614D01*
X268100884Y-195093328D02*
X267386598Y-195093328D01*
X267386598Y-195093328D02*
X267315170Y-195807614D01*
X267315170Y-195807614D02*
X267386598Y-195736185D01*
X267386598Y-195736185D02*
X267529456Y-195664757D01*
X267529456Y-195664757D02*
X267886598Y-195664757D01*
X267886598Y-195664757D02*
X268029456Y-195736185D01*
X268029456Y-195736185D02*
X268100884Y-195807614D01*
X268100884Y-195807614D02*
X268172313Y-195950471D01*
X268172313Y-195950471D02*
X268172313Y-196307614D01*
X268172313Y-196307614D02*
X268100884Y-196450471D01*
X268100884Y-196450471D02*
X268029456Y-196521900D01*
X268029456Y-196521900D02*
X267886598Y-196593328D01*
X267886598Y-196593328D02*
X267529456Y-196593328D01*
X267529456Y-196593328D02*
X267386598Y-196521900D01*
X267386598Y-196521900D02*
X267315170Y-196450471D01*
X269886598Y-195021900D02*
X268600884Y-196950471D01*
X270458027Y-196593328D02*
X270743741Y-196593328D01*
X270743741Y-196593328D02*
X270886598Y-196521900D01*
X270886598Y-196521900D02*
X270958027Y-196450471D01*
X270958027Y-196450471D02*
X271100884Y-196236185D01*
X271100884Y-196236185D02*
X271172313Y-195950471D01*
X271172313Y-195950471D02*
X271172313Y-195379042D01*
X271172313Y-195379042D02*
X271100884Y-195236185D01*
X271100884Y-195236185D02*
X271029456Y-195164757D01*
X271029456Y-195164757D02*
X270886598Y-195093328D01*
X270886598Y-195093328D02*
X270600884Y-195093328D01*
X270600884Y-195093328D02*
X270458027Y-195164757D01*
X270458027Y-195164757D02*
X270386598Y-195236185D01*
X270386598Y-195236185D02*
X270315170Y-195379042D01*
X270315170Y-195379042D02*
X270315170Y-195736185D01*
X270315170Y-195736185D02*
X270386598Y-195879042D01*
X270386598Y-195879042D02*
X270458027Y-195950471D01*
X270458027Y-195950471D02*
X270600884Y-196021900D01*
X270600884Y-196021900D02*
X270886598Y-196021900D01*
X270886598Y-196021900D02*
X271029456Y-195950471D01*
X271029456Y-195950471D02*
X271100884Y-195879042D01*
X271100884Y-195879042D02*
X271172313Y-195736185D01*
D10*
D11*
X177002200Y-187507200D02*
X285002200Y-187507200D01*
D10*
D13*
X178693928Y-188211638D02*
X179836785Y-188211638D01*
X179015357Y-190211638D02*
X179265357Y-188211638D01*
X180253452Y-190211638D02*
X180420119Y-188878304D01*
X180503452Y-188211638D02*
X180396309Y-188306876D01*
X180396309Y-188306876D02*
X180479643Y-188402114D01*
X180479643Y-188402114D02*
X180586786Y-188306876D01*
X180586786Y-188306876D02*
X180503452Y-188211638D01*
X180503452Y-188211638D02*
X180479643Y-188402114D01*
X181086786Y-188878304D02*
X181848690Y-188878304D01*
X181455833Y-188211638D02*
X181241548Y-189925923D01*
X181241548Y-189925923D02*
X181312976Y-190116400D01*
X181312976Y-190116400D02*
X181491548Y-190211638D01*
X181491548Y-190211638D02*
X181682024Y-190211638D01*
X182634405Y-190211638D02*
X182455833Y-190116400D01*
X182455833Y-190116400D02*
X182384405Y-189925923D01*
X182384405Y-189925923D02*
X182598690Y-188211638D01*
X184170119Y-190116400D02*
X183967738Y-190211638D01*
X183967738Y-190211638D02*
X183586785Y-190211638D01*
X183586785Y-190211638D02*
X183408214Y-190116400D01*
X183408214Y-190116400D02*
X183336785Y-189925923D01*
X183336785Y-189925923D02*
X183432024Y-189164019D01*
X183432024Y-189164019D02*
X183551071Y-188973542D01*
X183551071Y-188973542D02*
X183753452Y-188878304D01*
X183753452Y-188878304D02*
X184134404Y-188878304D01*
X184134404Y-188878304D02*
X184312976Y-188973542D01*
X184312976Y-188973542D02*
X184384404Y-189164019D01*
X184384404Y-189164019D02*
X184360595Y-189354495D01*
X184360595Y-189354495D02*
X183384404Y-189544971D01*
X185134405Y-190021161D02*
X185217738Y-190116400D01*
X185217738Y-190116400D02*
X185110595Y-190211638D01*
X185110595Y-190211638D02*
X185027262Y-190116400D01*
X185027262Y-190116400D02*
X185134405Y-190021161D01*
X185134405Y-190021161D02*
X185110595Y-190211638D01*
X185265357Y-188973542D02*
X185348690Y-189068780D01*
X185348690Y-189068780D02*
X185241548Y-189164019D01*
X185241548Y-189164019D02*
X185158214Y-189068780D01*
X185158214Y-189068780D02*
X185265357Y-188973542D01*
X185265357Y-188973542D02*
X185241548Y-189164019D01*
D10*
D11*
X178958026Y-185607614D02*
X178458026Y-185607614D01*
X178458026Y-186393328D02*
X178458026Y-184893328D01*
X178458026Y-184893328D02*
X179172312Y-184893328D01*
X179743740Y-186393328D02*
X179743740Y-185393328D01*
X179743740Y-184893328D02*
X179672312Y-184964757D01*
X179672312Y-184964757D02*
X179743740Y-185036185D01*
X179743740Y-185036185D02*
X179815169Y-184964757D01*
X179815169Y-184964757D02*
X179743740Y-184893328D01*
X179743740Y-184893328D02*
X179743740Y-185036185D01*
X180672312Y-186393328D02*
X180529455Y-186321900D01*
X180529455Y-186321900D02*
X180458026Y-186179042D01*
X180458026Y-186179042D02*
X180458026Y-184893328D01*
X181815169Y-186321900D02*
X181672312Y-186393328D01*
X181672312Y-186393328D02*
X181386598Y-186393328D01*
X181386598Y-186393328D02*
X181243740Y-186321900D01*
X181243740Y-186321900D02*
X181172312Y-186179042D01*
X181172312Y-186179042D02*
X181172312Y-185607614D01*
X181172312Y-185607614D02*
X181243740Y-185464757D01*
X181243740Y-185464757D02*
X181386598Y-185393328D01*
X181386598Y-185393328D02*
X181672312Y-185393328D01*
X181672312Y-185393328D02*
X181815169Y-185464757D01*
X181815169Y-185464757D02*
X181886598Y-185607614D01*
X181886598Y-185607614D02*
X181886598Y-185750471D01*
X181886598Y-185750471D02*
X181172312Y-185893328D01*
X182529454Y-186250471D02*
X182600883Y-186321900D01*
X182600883Y-186321900D02*
X182529454Y-186393328D01*
X182529454Y-186393328D02*
X182458026Y-186321900D01*
X182458026Y-186321900D02*
X182529454Y-186250471D01*
X182529454Y-186250471D02*
X182529454Y-186393328D01*
X182529454Y-185464757D02*
X182600883Y-185536185D01*
X182600883Y-185536185D02*
X182529454Y-185607614D01*
X182529454Y-185607614D02*
X182458026Y-185536185D01*
X182458026Y-185536185D02*
X182529454Y-185464757D01*
X182529454Y-185464757D02*
X182529454Y-185607614D01*
X184172312Y-184893328D02*
X185029455Y-184893328D01*
X184600883Y-186393328D02*
X184600883Y-184893328D01*
X186172312Y-186393328D02*
X186172312Y-185607614D01*
X186172312Y-185607614D02*
X186100883Y-185464757D01*
X186100883Y-185464757D02*
X185958026Y-185393328D01*
X185958026Y-185393328D02*
X185672312Y-185393328D01*
X185672312Y-185393328D02*
X185529454Y-185464757D01*
X186172312Y-186321900D02*
X186029454Y-186393328D01*
X186029454Y-186393328D02*
X185672312Y-186393328D01*
X185672312Y-186393328D02*
X185529454Y-186321900D01*
X185529454Y-186321900D02*
X185458026Y-186179042D01*
X185458026Y-186179042D02*
X185458026Y-186036185D01*
X185458026Y-186036185D02*
X185529454Y-185893328D01*
X185529454Y-185893328D02*
X185672312Y-185821900D01*
X185672312Y-185821900D02*
X186029454Y-185821900D01*
X186029454Y-185821900D02*
X186172312Y-185750471D01*
X187529455Y-186321900D02*
X187386597Y-186393328D01*
X187386597Y-186393328D02*
X187100883Y-186393328D01*
X187100883Y-186393328D02*
X186958026Y-186321900D01*
X186958026Y-186321900D02*
X186886597Y-186250471D01*
X186886597Y-186250471D02*
X186815169Y-186107614D01*
X186815169Y-186107614D02*
X186815169Y-185679042D01*
X186815169Y-185679042D02*
X186886597Y-185536185D01*
X186886597Y-185536185D02*
X186958026Y-185464757D01*
X186958026Y-185464757D02*
X187100883Y-185393328D01*
X187100883Y-185393328D02*
X187386597Y-185393328D01*
X187386597Y-185393328D02*
X187529455Y-185464757D01*
X188386597Y-186393328D02*
X188243740Y-186321900D01*
X188243740Y-186321900D02*
X188172311Y-186250471D01*
X188172311Y-186250471D02*
X188100883Y-186107614D01*
X188100883Y-186107614D02*
X188100883Y-185679042D01*
X188100883Y-185679042D02*
X188172311Y-185536185D01*
X188172311Y-185536185D02*
X188243740Y-185464757D01*
X188243740Y-185464757D02*
X188386597Y-185393328D01*
X188386597Y-185393328D02*
X188600883Y-185393328D01*
X188600883Y-185393328D02*
X188743740Y-185464757D01*
X188743740Y-185464757D02*
X188815169Y-185536185D01*
X188815169Y-185536185D02*
X188886597Y-185679042D01*
X188886597Y-185679042D02*
X188886597Y-186107614D01*
X188886597Y-186107614D02*
X188815169Y-186250471D01*
X188815169Y-186250471D02*
X188743740Y-186321900D01*
X188743740Y-186321900D02*
X188600883Y-186393328D01*
X188600883Y-186393328D02*
X188386597Y-186393328D01*
X190386597Y-186250471D02*
X190315169Y-186321900D01*
X190315169Y-186321900D02*
X190100883Y-186393328D01*
X190100883Y-186393328D02*
X189958026Y-186393328D01*
X189958026Y-186393328D02*
X189743740Y-186321900D01*
X189743740Y-186321900D02*
X189600883Y-186179042D01*
X189600883Y-186179042D02*
X189529454Y-186036185D01*
X189529454Y-186036185D02*
X189458026Y-185750471D01*
X189458026Y-185750471D02*
X189458026Y-185536185D01*
X189458026Y-185536185D02*
X189529454Y-185250471D01*
X189529454Y-185250471D02*
X189600883Y-185107614D01*
X189600883Y-185107614D02*
X189743740Y-184964757D01*
X189743740Y-184964757D02*
X189958026Y-184893328D01*
X189958026Y-184893328D02*
X190100883Y-184893328D01*
X190100883Y-184893328D02*
X190315169Y-184964757D01*
X190315169Y-184964757D02*
X190386597Y-185036185D01*
X191243740Y-186393328D02*
X191100883Y-186321900D01*
X191100883Y-186321900D02*
X191029454Y-186250471D01*
X191029454Y-186250471D02*
X190958026Y-186107614D01*
X190958026Y-186107614D02*
X190958026Y-185679042D01*
X190958026Y-185679042D02*
X191029454Y-185536185D01*
X191029454Y-185536185D02*
X191100883Y-185464757D01*
X191100883Y-185464757D02*
X191243740Y-185393328D01*
X191243740Y-185393328D02*
X191458026Y-185393328D01*
X191458026Y-185393328D02*
X191600883Y-185464757D01*
X191600883Y-185464757D02*
X191672312Y-185536185D01*
X191672312Y-185536185D02*
X191743740Y-185679042D01*
X191743740Y-185679042D02*
X191743740Y-186107614D01*
X191743740Y-186107614D02*
X191672312Y-186250471D01*
X191672312Y-186250471D02*
X191600883Y-186321900D01*
X191600883Y-186321900D02*
X191458026Y-186393328D01*
X191458026Y-186393328D02*
X191243740Y-186393328D01*
X192386597Y-185393328D02*
X192386597Y-186893328D01*
X192386597Y-185464757D02*
X192529455Y-185393328D01*
X192529455Y-185393328D02*
X192815169Y-185393328D01*
X192815169Y-185393328D02*
X192958026Y-185464757D01*
X192958026Y-185464757D02*
X193029455Y-185536185D01*
X193029455Y-185536185D02*
X193100883Y-185679042D01*
X193100883Y-185679042D02*
X193100883Y-186107614D01*
X193100883Y-186107614D02*
X193029455Y-186250471D01*
X193029455Y-186250471D02*
X192958026Y-186321900D01*
X192958026Y-186321900D02*
X192815169Y-186393328D01*
X192815169Y-186393328D02*
X192529455Y-186393328D01*
X192529455Y-186393328D02*
X192386597Y-186321900D01*
X193529455Y-185393328D02*
X194100883Y-185393328D01*
X193743740Y-184893328D02*
X193743740Y-186179042D01*
X193743740Y-186179042D02*
X193815169Y-186321900D01*
X193815169Y-186321900D02*
X193958026Y-186393328D01*
X193958026Y-186393328D02*
X194100883Y-186393328D01*
X195172312Y-186321900D02*
X195029455Y-186393328D01*
X195029455Y-186393328D02*
X194743741Y-186393328D01*
X194743741Y-186393328D02*
X194600883Y-186321900D01*
X194600883Y-186321900D02*
X194529455Y-186179042D01*
X194529455Y-186179042D02*
X194529455Y-185607614D01*
X194529455Y-185607614D02*
X194600883Y-185464757D01*
X194600883Y-185464757D02*
X194743741Y-185393328D01*
X194743741Y-185393328D02*
X195029455Y-185393328D01*
X195029455Y-185393328D02*
X195172312Y-185464757D01*
X195172312Y-185464757D02*
X195243741Y-185607614D01*
X195243741Y-185607614D02*
X195243741Y-185750471D01*
X195243741Y-185750471D02*
X194529455Y-185893328D01*
X195886597Y-186393328D02*
X195886597Y-185393328D01*
X195886597Y-185679042D02*
X195958026Y-185536185D01*
X195958026Y-185536185D02*
X196029455Y-185464757D01*
X196029455Y-185464757D02*
X196172312Y-185393328D01*
X196172312Y-185393328D02*
X196315169Y-185393328D01*
X196458026Y-186536185D02*
X197600883Y-186536185D01*
X198458025Y-185607614D02*
X197958025Y-185607614D01*
X197958025Y-186393328D02*
X197958025Y-184893328D01*
X197958025Y-184893328D02*
X198672311Y-184893328D01*
X199458025Y-186393328D02*
X199315168Y-186321900D01*
X199315168Y-186321900D02*
X199243739Y-186179042D01*
X199243739Y-186179042D02*
X199243739Y-184893328D01*
X200029453Y-186393328D02*
X200029453Y-185393328D01*
X200029453Y-184893328D02*
X199958025Y-184964757D01*
X199958025Y-184964757D02*
X200029453Y-185036185D01*
X200029453Y-185036185D02*
X200100882Y-184964757D01*
X200100882Y-184964757D02*
X200029453Y-184893328D01*
X200029453Y-184893328D02*
X200029453Y-185036185D01*
X201386597Y-185393328D02*
X201386597Y-186607614D01*
X201386597Y-186607614D02*
X201315168Y-186750471D01*
X201315168Y-186750471D02*
X201243739Y-186821900D01*
X201243739Y-186821900D02*
X201100882Y-186893328D01*
X201100882Y-186893328D02*
X200886597Y-186893328D01*
X200886597Y-186893328D02*
X200743739Y-186821900D01*
X201386597Y-186321900D02*
X201243739Y-186393328D01*
X201243739Y-186393328D02*
X200958025Y-186393328D01*
X200958025Y-186393328D02*
X200815168Y-186321900D01*
X200815168Y-186321900D02*
X200743739Y-186250471D01*
X200743739Y-186250471D02*
X200672311Y-186107614D01*
X200672311Y-186107614D02*
X200672311Y-185679042D01*
X200672311Y-185679042D02*
X200743739Y-185536185D01*
X200743739Y-185536185D02*
X200815168Y-185464757D01*
X200815168Y-185464757D02*
X200958025Y-185393328D01*
X200958025Y-185393328D02*
X201243739Y-185393328D01*
X201243739Y-185393328D02*
X201386597Y-185464757D01*
X202100882Y-186393328D02*
X202100882Y-184893328D01*
X202743740Y-186393328D02*
X202743740Y-185607614D01*
X202743740Y-185607614D02*
X202672311Y-185464757D01*
X202672311Y-185464757D02*
X202529454Y-185393328D01*
X202529454Y-185393328D02*
X202315168Y-185393328D01*
X202315168Y-185393328D02*
X202172311Y-185464757D01*
X202172311Y-185464757D02*
X202100882Y-185536185D01*
X203243740Y-185393328D02*
X203815168Y-185393328D01*
X203458025Y-184893328D02*
X203458025Y-186179042D01*
X203458025Y-186179042D02*
X203529454Y-186321900D01*
X203529454Y-186321900D02*
X203672311Y-186393328D01*
X203672311Y-186393328D02*
X203815168Y-186393328D01*
X203958026Y-186536185D02*
X205100883Y-186536185D01*
X206315168Y-186250471D02*
X206243740Y-186321900D01*
X206243740Y-186321900D02*
X206029454Y-186393328D01*
X206029454Y-186393328D02*
X205886597Y-186393328D01*
X205886597Y-186393328D02*
X205672311Y-186321900D01*
X205672311Y-186321900D02*
X205529454Y-186179042D01*
X205529454Y-186179042D02*
X205458025Y-186036185D01*
X205458025Y-186036185D02*
X205386597Y-185750471D01*
X205386597Y-185750471D02*
X205386597Y-185536185D01*
X205386597Y-185536185D02*
X205458025Y-185250471D01*
X205458025Y-185250471D02*
X205529454Y-185107614D01*
X205529454Y-185107614D02*
X205672311Y-184964757D01*
X205672311Y-184964757D02*
X205886597Y-184893328D01*
X205886597Y-184893328D02*
X206029454Y-184893328D01*
X206029454Y-184893328D02*
X206243740Y-184964757D01*
X206243740Y-184964757D02*
X206315168Y-185036185D01*
X207172311Y-186393328D02*
X207029454Y-186321900D01*
X207029454Y-186321900D02*
X206958025Y-186250471D01*
X206958025Y-186250471D02*
X206886597Y-186107614D01*
X206886597Y-186107614D02*
X206886597Y-185679042D01*
X206886597Y-185679042D02*
X206958025Y-185536185D01*
X206958025Y-185536185D02*
X207029454Y-185464757D01*
X207029454Y-185464757D02*
X207172311Y-185393328D01*
X207172311Y-185393328D02*
X207386597Y-185393328D01*
X207386597Y-185393328D02*
X207529454Y-185464757D01*
X207529454Y-185464757D02*
X207600883Y-185536185D01*
X207600883Y-185536185D02*
X207672311Y-185679042D01*
X207672311Y-185679042D02*
X207672311Y-186107614D01*
X207672311Y-186107614D02*
X207600883Y-186250471D01*
X207600883Y-186250471D02*
X207529454Y-186321900D01*
X207529454Y-186321900D02*
X207386597Y-186393328D01*
X207386597Y-186393328D02*
X207172311Y-186393328D01*
X208315168Y-185393328D02*
X208315168Y-186393328D01*
X208315168Y-185536185D02*
X208386597Y-185464757D01*
X208386597Y-185464757D02*
X208529454Y-185393328D01*
X208529454Y-185393328D02*
X208743740Y-185393328D01*
X208743740Y-185393328D02*
X208886597Y-185464757D01*
X208886597Y-185464757D02*
X208958026Y-185607614D01*
X208958026Y-185607614D02*
X208958026Y-186393328D01*
X209458026Y-185393328D02*
X210029454Y-185393328D01*
X209672311Y-184893328D02*
X209672311Y-186179042D01*
X209672311Y-186179042D02*
X209743740Y-186321900D01*
X209743740Y-186321900D02*
X209886597Y-186393328D01*
X209886597Y-186393328D02*
X210029454Y-186393328D01*
X210529454Y-186393328D02*
X210529454Y-185393328D01*
X210529454Y-185679042D02*
X210600883Y-185536185D01*
X210600883Y-185536185D02*
X210672312Y-185464757D01*
X210672312Y-185464757D02*
X210815169Y-185393328D01*
X210815169Y-185393328D02*
X210958026Y-185393328D01*
X211672311Y-186393328D02*
X211529454Y-186321900D01*
X211529454Y-186321900D02*
X211458025Y-186250471D01*
X211458025Y-186250471D02*
X211386597Y-186107614D01*
X211386597Y-186107614D02*
X211386597Y-185679042D01*
X211386597Y-185679042D02*
X211458025Y-185536185D01*
X211458025Y-185536185D02*
X211529454Y-185464757D01*
X211529454Y-185464757D02*
X211672311Y-185393328D01*
X211672311Y-185393328D02*
X211886597Y-185393328D01*
X211886597Y-185393328D02*
X212029454Y-185464757D01*
X212029454Y-185464757D02*
X212100883Y-185536185D01*
X212100883Y-185536185D02*
X212172311Y-185679042D01*
X212172311Y-185679042D02*
X212172311Y-186107614D01*
X212172311Y-186107614D02*
X212100883Y-186250471D01*
X212100883Y-186250471D02*
X212029454Y-186321900D01*
X212029454Y-186321900D02*
X211886597Y-186393328D01*
X211886597Y-186393328D02*
X211672311Y-186393328D01*
X213029454Y-186393328D02*
X212886597Y-186321900D01*
X212886597Y-186321900D02*
X212815168Y-186179042D01*
X212815168Y-186179042D02*
X212815168Y-184893328D01*
X213815168Y-186393328D02*
X213672311Y-186321900D01*
X213672311Y-186321900D02*
X213600882Y-186179042D01*
X213600882Y-186179042D02*
X213600882Y-184893328D01*
X214958025Y-186321900D02*
X214815168Y-186393328D01*
X214815168Y-186393328D02*
X214529454Y-186393328D01*
X214529454Y-186393328D02*
X214386596Y-186321900D01*
X214386596Y-186321900D02*
X214315168Y-186179042D01*
X214315168Y-186179042D02*
X214315168Y-185607614D01*
X214315168Y-185607614D02*
X214386596Y-185464757D01*
X214386596Y-185464757D02*
X214529454Y-185393328D01*
X214529454Y-185393328D02*
X214815168Y-185393328D01*
X214815168Y-185393328D02*
X214958025Y-185464757D01*
X214958025Y-185464757D02*
X215029454Y-185607614D01*
X215029454Y-185607614D02*
X215029454Y-185750471D01*
X215029454Y-185750471D02*
X214315168Y-185893328D01*
X215672310Y-186393328D02*
X215672310Y-185393328D01*
X215672310Y-185679042D02*
X215743739Y-185536185D01*
X215743739Y-185536185D02*
X215815168Y-185464757D01*
X215815168Y-185464757D02*
X215958025Y-185393328D01*
X215958025Y-185393328D02*
X216100882Y-185393328D01*
X216600881Y-186250471D02*
X216672310Y-186321900D01*
X216672310Y-186321900D02*
X216600881Y-186393328D01*
X216600881Y-186393328D02*
X216529453Y-186321900D01*
X216529453Y-186321900D02*
X216600881Y-186250471D01*
X216600881Y-186250471D02*
X216600881Y-186393328D01*
X217315167Y-186393328D02*
X217315167Y-184893328D01*
X217458025Y-185821900D02*
X217886596Y-186393328D01*
X217886596Y-185393328D02*
X217315167Y-185964757D01*
X218529453Y-186393328D02*
X218529453Y-185393328D01*
X218529453Y-184893328D02*
X218458025Y-184964757D01*
X218458025Y-184964757D02*
X218529453Y-185036185D01*
X218529453Y-185036185D02*
X218600882Y-184964757D01*
X218600882Y-184964757D02*
X218529453Y-184893328D01*
X218529453Y-184893328D02*
X218529453Y-185036185D01*
X219886597Y-186321900D02*
X219743739Y-186393328D01*
X219743739Y-186393328D02*
X219458025Y-186393328D01*
X219458025Y-186393328D02*
X219315168Y-186321900D01*
X219315168Y-186321900D02*
X219243739Y-186250471D01*
X219243739Y-186250471D02*
X219172311Y-186107614D01*
X219172311Y-186107614D02*
X219172311Y-185679042D01*
X219172311Y-185679042D02*
X219243739Y-185536185D01*
X219243739Y-185536185D02*
X219315168Y-185464757D01*
X219315168Y-185464757D02*
X219458025Y-185393328D01*
X219458025Y-185393328D02*
X219743739Y-185393328D01*
X219743739Y-185393328D02*
X219886597Y-185464757D01*
X221172311Y-186393328D02*
X221172311Y-185607614D01*
X221172311Y-185607614D02*
X221100882Y-185464757D01*
X221100882Y-185464757D02*
X220958025Y-185393328D01*
X220958025Y-185393328D02*
X220672311Y-185393328D01*
X220672311Y-185393328D02*
X220529453Y-185464757D01*
X221172311Y-186321900D02*
X221029453Y-186393328D01*
X221029453Y-186393328D02*
X220672311Y-186393328D01*
X220672311Y-186393328D02*
X220529453Y-186321900D01*
X220529453Y-186321900D02*
X220458025Y-186179042D01*
X220458025Y-186179042D02*
X220458025Y-186036185D01*
X220458025Y-186036185D02*
X220529453Y-185893328D01*
X220529453Y-185893328D02*
X220672311Y-185821900D01*
X220672311Y-185821900D02*
X221029453Y-185821900D01*
X221029453Y-185821900D02*
X221172311Y-185750471D01*
X222529454Y-186393328D02*
X222529454Y-184893328D01*
X222529454Y-186321900D02*
X222386596Y-186393328D01*
X222386596Y-186393328D02*
X222100882Y-186393328D01*
X222100882Y-186393328D02*
X221958025Y-186321900D01*
X221958025Y-186321900D02*
X221886596Y-186250471D01*
X221886596Y-186250471D02*
X221815168Y-186107614D01*
X221815168Y-186107614D02*
X221815168Y-185679042D01*
X221815168Y-185679042D02*
X221886596Y-185536185D01*
X221886596Y-185536185D02*
X221958025Y-185464757D01*
X221958025Y-185464757D02*
X222100882Y-185393328D01*
X222100882Y-185393328D02*
X222386596Y-185393328D01*
X222386596Y-185393328D02*
X222529454Y-185464757D01*
X222886597Y-186536185D02*
X224029454Y-186536185D01*
X224386596Y-185393328D02*
X224386596Y-186893328D01*
X224386596Y-185464757D02*
X224529454Y-185393328D01*
X224529454Y-185393328D02*
X224815168Y-185393328D01*
X224815168Y-185393328D02*
X224958025Y-185464757D01*
X224958025Y-185464757D02*
X225029454Y-185536185D01*
X225029454Y-185536185D02*
X225100882Y-185679042D01*
X225100882Y-185679042D02*
X225100882Y-186107614D01*
X225100882Y-186107614D02*
X225029454Y-186250471D01*
X225029454Y-186250471D02*
X224958025Y-186321900D01*
X224958025Y-186321900D02*
X224815168Y-186393328D01*
X224815168Y-186393328D02*
X224529454Y-186393328D01*
X224529454Y-186393328D02*
X224386596Y-186321900D01*
X226386597Y-186321900D02*
X226243739Y-186393328D01*
X226243739Y-186393328D02*
X225958025Y-186393328D01*
X225958025Y-186393328D02*
X225815168Y-186321900D01*
X225815168Y-186321900D02*
X225743739Y-186250471D01*
X225743739Y-186250471D02*
X225672311Y-186107614D01*
X225672311Y-186107614D02*
X225672311Y-185679042D01*
X225672311Y-185679042D02*
X225743739Y-185536185D01*
X225743739Y-185536185D02*
X225815168Y-185464757D01*
X225815168Y-185464757D02*
X225958025Y-185393328D01*
X225958025Y-185393328D02*
X226243739Y-185393328D01*
X226243739Y-185393328D02*
X226386597Y-185464757D01*
X227029453Y-186393328D02*
X227029453Y-184893328D01*
X227029453Y-185464757D02*
X227172311Y-185393328D01*
X227172311Y-185393328D02*
X227458025Y-185393328D01*
X227458025Y-185393328D02*
X227600882Y-185464757D01*
X227600882Y-185464757D02*
X227672311Y-185536185D01*
X227672311Y-185536185D02*
X227743739Y-185679042D01*
X227743739Y-185679042D02*
X227743739Y-186107614D01*
X227743739Y-186107614D02*
X227672311Y-186250471D01*
X227672311Y-186250471D02*
X227600882Y-186321900D01*
X227600882Y-186321900D02*
X227458025Y-186393328D01*
X227458025Y-186393328D02*
X227172311Y-186393328D01*
X227172311Y-186393328D02*
X227029453Y-186321900D01*
D10*
D11*
X177002200Y-181507200D02*
X285002200Y-181507200D01*
D10*
D11*
X178386598Y-183621900D02*
X178600884Y-183693328D01*
X178600884Y-183693328D02*
X178958026Y-183693328D01*
X178958026Y-183693328D02*
X179100884Y-183621900D01*
X179100884Y-183621900D02*
X179172312Y-183550471D01*
X179172312Y-183550471D02*
X179243741Y-183407614D01*
X179243741Y-183407614D02*
X179243741Y-183264757D01*
X179243741Y-183264757D02*
X179172312Y-183121900D01*
X179172312Y-183121900D02*
X179100884Y-183050471D01*
X179100884Y-183050471D02*
X178958026Y-182979042D01*
X178958026Y-182979042D02*
X178672312Y-182907614D01*
X178672312Y-182907614D02*
X178529455Y-182836185D01*
X178529455Y-182836185D02*
X178458026Y-182764757D01*
X178458026Y-182764757D02*
X178386598Y-182621900D01*
X178386598Y-182621900D02*
X178386598Y-182479042D01*
X178386598Y-182479042D02*
X178458026Y-182336185D01*
X178458026Y-182336185D02*
X178529455Y-182264757D01*
X178529455Y-182264757D02*
X178672312Y-182193328D01*
X178672312Y-182193328D02*
X179029455Y-182193328D01*
X179029455Y-182193328D02*
X179243741Y-182264757D01*
X179886597Y-183693328D02*
X179886597Y-182193328D01*
X180529455Y-183693328D02*
X180529455Y-182907614D01*
X180529455Y-182907614D02*
X180458026Y-182764757D01*
X180458026Y-182764757D02*
X180315169Y-182693328D01*
X180315169Y-182693328D02*
X180100883Y-182693328D01*
X180100883Y-182693328D02*
X179958026Y-182764757D01*
X179958026Y-182764757D02*
X179886597Y-182836185D01*
X181815169Y-183621900D02*
X181672312Y-183693328D01*
X181672312Y-183693328D02*
X181386598Y-183693328D01*
X181386598Y-183693328D02*
X181243740Y-183621900D01*
X181243740Y-183621900D02*
X181172312Y-183479042D01*
X181172312Y-183479042D02*
X181172312Y-182907614D01*
X181172312Y-182907614D02*
X181243740Y-182764757D01*
X181243740Y-182764757D02*
X181386598Y-182693328D01*
X181386598Y-182693328D02*
X181672312Y-182693328D01*
X181672312Y-182693328D02*
X181815169Y-182764757D01*
X181815169Y-182764757D02*
X181886598Y-182907614D01*
X181886598Y-182907614D02*
X181886598Y-183050471D01*
X181886598Y-183050471D02*
X181172312Y-183193328D01*
X183100883Y-183621900D02*
X182958026Y-183693328D01*
X182958026Y-183693328D02*
X182672312Y-183693328D01*
X182672312Y-183693328D02*
X182529454Y-183621900D01*
X182529454Y-183621900D02*
X182458026Y-183479042D01*
X182458026Y-183479042D02*
X182458026Y-182907614D01*
X182458026Y-182907614D02*
X182529454Y-182764757D01*
X182529454Y-182764757D02*
X182672312Y-182693328D01*
X182672312Y-182693328D02*
X182958026Y-182693328D01*
X182958026Y-182693328D02*
X183100883Y-182764757D01*
X183100883Y-182764757D02*
X183172312Y-182907614D01*
X183172312Y-182907614D02*
X183172312Y-183050471D01*
X183172312Y-183050471D02*
X182458026Y-183193328D01*
X183600883Y-182693328D02*
X184172311Y-182693328D01*
X183815168Y-182193328D02*
X183815168Y-183479042D01*
X183815168Y-183479042D02*
X183886597Y-183621900D01*
X183886597Y-183621900D02*
X184029454Y-183693328D01*
X184029454Y-183693328D02*
X184172311Y-183693328D01*
X184672311Y-183550471D02*
X184743740Y-183621900D01*
X184743740Y-183621900D02*
X184672311Y-183693328D01*
X184672311Y-183693328D02*
X184600883Y-183621900D01*
X184600883Y-183621900D02*
X184672311Y-183550471D01*
X184672311Y-183550471D02*
X184672311Y-183693328D01*
X184672311Y-182764757D02*
X184743740Y-182836185D01*
X184743740Y-182836185D02*
X184672311Y-182907614D01*
X184672311Y-182907614D02*
X184600883Y-182836185D01*
X184600883Y-182836185D02*
X184672311Y-182764757D01*
X184672311Y-182764757D02*
X184672311Y-182907614D01*
D10*
D11*
X197002200Y-191507200D02*
X197002200Y-194507200D01*
D10*
D11*
X261002200Y-191507200D02*
X261002200Y-198007200D01*
X156997732Y-110924819D02*
X156997732Y-111734342D01*
X156997732Y-111734342D02*
X157045351Y-111829580D01*
X157045351Y-111829580D02*
X157092970Y-111877200D01*
X157092970Y-111877200D02*
X157188208Y-111924819D01*
X157188208Y-111924819D02*
X157378684Y-111924819D01*
X157378684Y-111924819D02*
X157473922Y-111877200D01*
X157473922Y-111877200D02*
X157521541Y-111829580D01*
X157521541Y-111829580D02*
X157569160Y-111734342D01*
X157569160Y-111734342D02*
X157569160Y-110924819D01*
X158569160Y-111924819D02*
X157997732Y-111924819D01*
X158283446Y-111924819D02*
X158283446Y-110924819D01*
X158283446Y-110924819D02*
X158188208Y-111067676D01*
X158188208Y-111067676D02*
X158092970Y-111162914D01*
X158092970Y-111162914D02*
X157997732Y-111210533D01*
X140964104Y-87853339D02*
X140964104Y-87377149D01*
X141249819Y-87948577D02*
X140249819Y-87615244D01*
X140249819Y-87615244D02*
X141249819Y-87281911D01*
X141249819Y-86424768D02*
X141249819Y-86996196D01*
X141249819Y-86710482D02*
X140249819Y-86710482D01*
X140249819Y-86710482D02*
X140392676Y-86805720D01*
X140392676Y-86805720D02*
X140487914Y-86900958D01*
X140487914Y-86900958D02*
X140535533Y-86996196D01*
X97833333Y-82859580D02*
X97785714Y-82907200D01*
X97785714Y-82907200D02*
X97642857Y-82954819D01*
X97642857Y-82954819D02*
X97547619Y-82954819D01*
X97547619Y-82954819D02*
X97404762Y-82907200D01*
X97404762Y-82907200D02*
X97309524Y-82811961D01*
X97309524Y-82811961D02*
X97261905Y-82716723D01*
X97261905Y-82716723D02*
X97214286Y-82526247D01*
X97214286Y-82526247D02*
X97214286Y-82383390D01*
X97214286Y-82383390D02*
X97261905Y-82192914D01*
X97261905Y-82192914D02*
X97309524Y-82097676D01*
X97309524Y-82097676D02*
X97404762Y-82002438D01*
X97404762Y-82002438D02*
X97547619Y-81954819D01*
X97547619Y-81954819D02*
X97642857Y-81954819D01*
X97642857Y-81954819D02*
X97785714Y-82002438D01*
X97785714Y-82002438D02*
X97833333Y-82050057D01*
X98166667Y-81954819D02*
X98833333Y-81954819D01*
X98833333Y-81954819D02*
X98404762Y-82954819D01*
X153333333Y-35859580D02*
X153285714Y-35907200D01*
X153285714Y-35907200D02*
X153142857Y-35954819D01*
X153142857Y-35954819D02*
X153047619Y-35954819D01*
X153047619Y-35954819D02*
X152904762Y-35907200D01*
X152904762Y-35907200D02*
X152809524Y-35811961D01*
X152809524Y-35811961D02*
X152761905Y-35716723D01*
X152761905Y-35716723D02*
X152714286Y-35526247D01*
X152714286Y-35526247D02*
X152714286Y-35383390D01*
X152714286Y-35383390D02*
X152761905Y-35192914D01*
X152761905Y-35192914D02*
X152809524Y-35097676D01*
X152809524Y-35097676D02*
X152904762Y-35002438D01*
X152904762Y-35002438D02*
X153047619Y-34954819D01*
X153047619Y-34954819D02*
X153142857Y-34954819D01*
X153142857Y-34954819D02*
X153285714Y-35002438D01*
X153285714Y-35002438D02*
X153333333Y-35050057D01*
X154190476Y-34954819D02*
X154000000Y-34954819D01*
X154000000Y-34954819D02*
X153904762Y-35002438D01*
X153904762Y-35002438D02*
X153857143Y-35050057D01*
X153857143Y-35050057D02*
X153761905Y-35192914D01*
X153761905Y-35192914D02*
X153714286Y-35383390D01*
X153714286Y-35383390D02*
X153714286Y-35764342D01*
X153714286Y-35764342D02*
X153761905Y-35859580D01*
X153761905Y-35859580D02*
X153809524Y-35907200D01*
X153809524Y-35907200D02*
X153904762Y-35954819D01*
X153904762Y-35954819D02*
X154095238Y-35954819D01*
X154095238Y-35954819D02*
X154190476Y-35907200D01*
X154190476Y-35907200D02*
X154238095Y-35859580D01*
X154238095Y-35859580D02*
X154285714Y-35764342D01*
X154285714Y-35764342D02*
X154285714Y-35526247D01*
X154285714Y-35526247D02*
X154238095Y-35431009D01*
X154238095Y-35431009D02*
X154190476Y-35383390D01*
X154190476Y-35383390D02*
X154095238Y-35335771D01*
X154095238Y-35335771D02*
X153904762Y-35335771D01*
X153904762Y-35335771D02*
X153809524Y-35383390D01*
X153809524Y-35383390D02*
X153761905Y-35431009D01*
X153761905Y-35431009D02*
X153714286Y-35526247D01*
X164359580Y-106166666D02*
X164407200Y-106214285D01*
X164407200Y-106214285D02*
X164454819Y-106357142D01*
X164454819Y-106357142D02*
X164454819Y-106452380D01*
X164454819Y-106452380D02*
X164407200Y-106595237D01*
X164407200Y-106595237D02*
X164311961Y-106690475D01*
X164311961Y-106690475D02*
X164216723Y-106738094D01*
X164216723Y-106738094D02*
X164026247Y-106785713D01*
X164026247Y-106785713D02*
X163883390Y-106785713D01*
X163883390Y-106785713D02*
X163692914Y-106738094D01*
X163692914Y-106738094D02*
X163597676Y-106690475D01*
X163597676Y-106690475D02*
X163502438Y-106595237D01*
X163502438Y-106595237D02*
X163454819Y-106452380D01*
X163454819Y-106452380D02*
X163454819Y-106357142D01*
X163454819Y-106357142D02*
X163502438Y-106214285D01*
X163502438Y-106214285D02*
X163550057Y-106166666D01*
X163454819Y-105261904D02*
X163454819Y-105738094D01*
X163454819Y-105738094D02*
X163931009Y-105785713D01*
X163931009Y-105785713D02*
X163883390Y-105738094D01*
X163883390Y-105738094D02*
X163835771Y-105642856D01*
X163835771Y-105642856D02*
X163835771Y-105404761D01*
X163835771Y-105404761D02*
X163883390Y-105309523D01*
X163883390Y-105309523D02*
X163931009Y-105261904D01*
X163931009Y-105261904D02*
X164026247Y-105214285D01*
X164026247Y-105214285D02*
X164264342Y-105214285D01*
X164264342Y-105214285D02*
X164359580Y-105261904D01*
X164359580Y-105261904D02*
X164407200Y-105309523D01*
X164407200Y-105309523D02*
X164454819Y-105404761D01*
X164454819Y-105404761D02*
X164454819Y-105642856D01*
X164454819Y-105642856D02*
X164407200Y-105738094D01*
X164407200Y-105738094D02*
X164359580Y-105785713D01*
X156833333Y-150859580D02*
X156785714Y-150907200D01*
X156785714Y-150907200D02*
X156642857Y-150954819D01*
X156642857Y-150954819D02*
X156547619Y-150954819D01*
X156547619Y-150954819D02*
X156404762Y-150907200D01*
X156404762Y-150907200D02*
X156309524Y-150811961D01*
X156309524Y-150811961D02*
X156261905Y-150716723D01*
X156261905Y-150716723D02*
X156214286Y-150526247D01*
X156214286Y-150526247D02*
X156214286Y-150383390D01*
X156214286Y-150383390D02*
X156261905Y-150192914D01*
X156261905Y-150192914D02*
X156309524Y-150097676D01*
X156309524Y-150097676D02*
X156404762Y-150002438D01*
X156404762Y-150002438D02*
X156547619Y-149954819D01*
X156547619Y-149954819D02*
X156642857Y-149954819D01*
X156642857Y-149954819D02*
X156785714Y-150002438D01*
X156785714Y-150002438D02*
X156833333Y-150050057D01*
X157690476Y-150288152D02*
X157690476Y-150954819D01*
X157452381Y-149907200D02*
X157214286Y-150621485D01*
X157214286Y-150621485D02*
X157833333Y-150621485D01*
X163833333Y-35859580D02*
X163785714Y-35907200D01*
X163785714Y-35907200D02*
X163642857Y-35954819D01*
X163642857Y-35954819D02*
X163547619Y-35954819D01*
X163547619Y-35954819D02*
X163404762Y-35907200D01*
X163404762Y-35907200D02*
X163309524Y-35811961D01*
X163309524Y-35811961D02*
X163261905Y-35716723D01*
X163261905Y-35716723D02*
X163214286Y-35526247D01*
X163214286Y-35526247D02*
X163214286Y-35383390D01*
X163214286Y-35383390D02*
X163261905Y-35192914D01*
X163261905Y-35192914D02*
X163309524Y-35097676D01*
X163309524Y-35097676D02*
X163404762Y-35002438D01*
X163404762Y-35002438D02*
X163547619Y-34954819D01*
X163547619Y-34954819D02*
X163642857Y-34954819D01*
X163642857Y-34954819D02*
X163785714Y-35002438D01*
X163785714Y-35002438D02*
X163833333Y-35050057D01*
X164166667Y-34954819D02*
X164785714Y-34954819D01*
X164785714Y-34954819D02*
X164452381Y-35335771D01*
X164452381Y-35335771D02*
X164595238Y-35335771D01*
X164595238Y-35335771D02*
X164690476Y-35383390D01*
X164690476Y-35383390D02*
X164738095Y-35431009D01*
X164738095Y-35431009D02*
X164785714Y-35526247D01*
X164785714Y-35526247D02*
X164785714Y-35764342D01*
X164785714Y-35764342D02*
X164738095Y-35859580D01*
X164738095Y-35859580D02*
X164690476Y-35907200D01*
X164690476Y-35907200D02*
X164595238Y-35954819D01*
X164595238Y-35954819D02*
X164309524Y-35954819D01*
X164309524Y-35954819D02*
X164214286Y-35907200D01*
X164214286Y-35907200D02*
X164166667Y-35859580D01*
X139878221Y-137609580D02*
X139830602Y-137657200D01*
X139830602Y-137657200D02*
X139687745Y-137704819D01*
X139687745Y-137704819D02*
X139592507Y-137704819D01*
X139592507Y-137704819D02*
X139449650Y-137657200D01*
X139449650Y-137657200D02*
X139354412Y-137561961D01*
X139354412Y-137561961D02*
X139306793Y-137466723D01*
X139306793Y-137466723D02*
X139259174Y-137276247D01*
X139259174Y-137276247D02*
X139259174Y-137133390D01*
X139259174Y-137133390D02*
X139306793Y-136942914D01*
X139306793Y-136942914D02*
X139354412Y-136847676D01*
X139354412Y-136847676D02*
X139449650Y-136752438D01*
X139449650Y-136752438D02*
X139592507Y-136704819D01*
X139592507Y-136704819D02*
X139687745Y-136704819D01*
X139687745Y-136704819D02*
X139830602Y-136752438D01*
X139830602Y-136752438D02*
X139878221Y-136800057D01*
X140259174Y-136800057D02*
X140306793Y-136752438D01*
X140306793Y-136752438D02*
X140402031Y-136704819D01*
X140402031Y-136704819D02*
X140640126Y-136704819D01*
X140640126Y-136704819D02*
X140735364Y-136752438D01*
X140735364Y-136752438D02*
X140782983Y-136800057D01*
X140782983Y-136800057D02*
X140830602Y-136895295D01*
X140830602Y-136895295D02*
X140830602Y-136990533D01*
X140830602Y-136990533D02*
X140782983Y-137133390D01*
X140782983Y-137133390D02*
X140211555Y-137704819D01*
X140211555Y-137704819D02*
X140830602Y-137704819D01*
X144333333Y-64859580D02*
X144285714Y-64907200D01*
X144285714Y-64907200D02*
X144142857Y-64954819D01*
X144142857Y-64954819D02*
X144047619Y-64954819D01*
X144047619Y-64954819D02*
X143904762Y-64907200D01*
X143904762Y-64907200D02*
X143809524Y-64811961D01*
X143809524Y-64811961D02*
X143761905Y-64716723D01*
X143761905Y-64716723D02*
X143714286Y-64526247D01*
X143714286Y-64526247D02*
X143714286Y-64383390D01*
X143714286Y-64383390D02*
X143761905Y-64192914D01*
X143761905Y-64192914D02*
X143809524Y-64097676D01*
X143809524Y-64097676D02*
X143904762Y-64002438D01*
X143904762Y-64002438D02*
X144047619Y-63954819D01*
X144047619Y-63954819D02*
X144142857Y-63954819D01*
X144142857Y-63954819D02*
X144285714Y-64002438D01*
X144285714Y-64002438D02*
X144333333Y-64050057D01*
X145285714Y-64954819D02*
X144714286Y-64954819D01*
X145000000Y-64954819D02*
X145000000Y-63954819D01*
X145000000Y-63954819D02*
X144904762Y-64097676D01*
X144904762Y-64097676D02*
X144809524Y-64192914D01*
X144809524Y-64192914D02*
X144714286Y-64240533D01*
X161824819Y-41476666D02*
X161348628Y-41809999D01*
X161824819Y-42048094D02*
X160824819Y-42048094D01*
X160824819Y-42048094D02*
X160824819Y-41667142D01*
X160824819Y-41667142D02*
X160872438Y-41571904D01*
X160872438Y-41571904D02*
X160920057Y-41524285D01*
X160920057Y-41524285D02*
X161015295Y-41476666D01*
X161015295Y-41476666D02*
X161158152Y-41476666D01*
X161158152Y-41476666D02*
X161253390Y-41524285D01*
X161253390Y-41524285D02*
X161301009Y-41571904D01*
X161301009Y-41571904D02*
X161348628Y-41667142D01*
X161348628Y-41667142D02*
X161348628Y-42048094D01*
X161824819Y-40524285D02*
X161824819Y-41095713D01*
X161824819Y-40809999D02*
X160824819Y-40809999D01*
X160824819Y-40809999D02*
X160967676Y-40905237D01*
X160967676Y-40905237D02*
X161062914Y-41000475D01*
X161062914Y-41000475D02*
X161110533Y-41095713D01*
X136244167Y-36907200D02*
X136387024Y-36954819D01*
X136387024Y-36954819D02*
X136625119Y-36954819D01*
X136625119Y-36954819D02*
X136720357Y-36907200D01*
X136720357Y-36907200D02*
X136767976Y-36859580D01*
X136767976Y-36859580D02*
X136815595Y-36764342D01*
X136815595Y-36764342D02*
X136815595Y-36669104D01*
X136815595Y-36669104D02*
X136767976Y-36573866D01*
X136767976Y-36573866D02*
X136720357Y-36526247D01*
X136720357Y-36526247D02*
X136625119Y-36478628D01*
X136625119Y-36478628D02*
X136434643Y-36431009D01*
X136434643Y-36431009D02*
X136339405Y-36383390D01*
X136339405Y-36383390D02*
X136291786Y-36335771D01*
X136291786Y-36335771D02*
X136244167Y-36240533D01*
X136244167Y-36240533D02*
X136244167Y-36145295D01*
X136244167Y-36145295D02*
X136291786Y-36050057D01*
X136291786Y-36050057D02*
X136339405Y-36002438D01*
X136339405Y-36002438D02*
X136434643Y-35954819D01*
X136434643Y-35954819D02*
X136672738Y-35954819D01*
X136672738Y-35954819D02*
X136815595Y-36002438D01*
X137148929Y-35954819D02*
X137387024Y-36954819D01*
X137387024Y-36954819D02*
X137577500Y-36240533D01*
X137577500Y-36240533D02*
X137767976Y-36954819D01*
X137767976Y-36954819D02*
X138006072Y-35954819D01*
X138910833Y-36954819D02*
X138339405Y-36954819D01*
X138625119Y-36954819D02*
X138625119Y-35954819D01*
X138625119Y-35954819D02*
X138529881Y-36097676D01*
X138529881Y-36097676D02*
X138434643Y-36192914D01*
X138434643Y-36192914D02*
X138339405Y-36240533D01*
X183166666Y-113954819D02*
X183166666Y-114669104D01*
X183166666Y-114669104D02*
X183119047Y-114811961D01*
X183119047Y-114811961D02*
X183023809Y-114907200D01*
X183023809Y-114907200D02*
X182880952Y-114954819D01*
X182880952Y-114954819D02*
X182785714Y-114954819D01*
X184071428Y-114288152D02*
X184071428Y-114954819D01*
X183833333Y-113907200D02*
X183595238Y-114621485D01*
X183595238Y-114621485D02*
X184214285Y-114621485D01*
X139166666Y-152904819D02*
X139166666Y-153619104D01*
X139166666Y-153619104D02*
X139119047Y-153761961D01*
X139119047Y-153761961D02*
X139023809Y-153857200D01*
X139023809Y-153857200D02*
X138880952Y-153904819D01*
X138880952Y-153904819D02*
X138785714Y-153904819D01*
X140166666Y-153904819D02*
X139595238Y-153904819D01*
X139880952Y-153904819D02*
X139880952Y-152904819D01*
X139880952Y-152904819D02*
X139785714Y-153047676D01*
X139785714Y-153047676D02*
X139690476Y-153142914D01*
X139690476Y-153142914D02*
X139595238Y-153190533D01*
X100454819Y-120333333D02*
X101169104Y-120333333D01*
X101169104Y-120333333D02*
X101311961Y-120380952D01*
X101311961Y-120380952D02*
X101407200Y-120476190D01*
X101407200Y-120476190D02*
X101454819Y-120619047D01*
X101454819Y-120619047D02*
X101454819Y-120714285D01*
X100550057Y-119904761D02*
X100502438Y-119857142D01*
X100502438Y-119857142D02*
X100454819Y-119761904D01*
X100454819Y-119761904D02*
X100454819Y-119523809D01*
X100454819Y-119523809D02*
X100502438Y-119428571D01*
X100502438Y-119428571D02*
X100550057Y-119380952D01*
X100550057Y-119380952D02*
X100645295Y-119333333D01*
X100645295Y-119333333D02*
X100740533Y-119333333D01*
X100740533Y-119333333D02*
X100883390Y-119380952D01*
X100883390Y-119380952D02*
X101454819Y-119952380D01*
X101454819Y-119952380D02*
X101454819Y-119333333D01*
X155264819Y-144833333D02*
X155979104Y-144833333D01*
X155979104Y-144833333D02*
X156121961Y-144880952D01*
X156121961Y-144880952D02*
X156217200Y-144976190D01*
X156217200Y-144976190D02*
X156264819Y-145119047D01*
X156264819Y-145119047D02*
X156264819Y-145214285D01*
X155264819Y-143928571D02*
X155264819Y-144119047D01*
X155264819Y-144119047D02*
X155312438Y-144214285D01*
X155312438Y-144214285D02*
X155360057Y-144261904D01*
X155360057Y-144261904D02*
X155502914Y-144357142D01*
X155502914Y-144357142D02*
X155693390Y-144404761D01*
X155693390Y-144404761D02*
X156074342Y-144404761D01*
X156074342Y-144404761D02*
X156169580Y-144357142D01*
X156169580Y-144357142D02*
X156217200Y-144309523D01*
X156217200Y-144309523D02*
X156264819Y-144214285D01*
X156264819Y-144214285D02*
X156264819Y-144023809D01*
X156264819Y-144023809D02*
X156217200Y-143928571D01*
X156217200Y-143928571D02*
X156169580Y-143880952D01*
X156169580Y-143880952D02*
X156074342Y-143833333D01*
X156074342Y-143833333D02*
X155836247Y-143833333D01*
X155836247Y-143833333D02*
X155741009Y-143880952D01*
X155741009Y-143880952D02*
X155693390Y-143928571D01*
X155693390Y-143928571D02*
X155645771Y-144023809D01*
X155645771Y-144023809D02*
X155645771Y-144214285D01*
X155645771Y-144214285D02*
X155693390Y-144309523D01*
X155693390Y-144309523D02*
X155741009Y-144357142D01*
X155741009Y-144357142D02*
X155836247Y-144404761D01*
X156738095Y-67454819D02*
X156738095Y-68264342D01*
X156738095Y-68264342D02*
X156785714Y-68359580D01*
X156785714Y-68359580D02*
X156833333Y-68407200D01*
X156833333Y-68407200D02*
X156928571Y-68454819D01*
X156928571Y-68454819D02*
X157119047Y-68454819D01*
X157119047Y-68454819D02*
X157214285Y-68407200D01*
X157214285Y-68407200D02*
X157261904Y-68359580D01*
X157261904Y-68359580D02*
X157309523Y-68264342D01*
X157309523Y-68264342D02*
X157309523Y-67454819D01*
X157738095Y-67550057D02*
X157785714Y-67502438D01*
X157785714Y-67502438D02*
X157880952Y-67454819D01*
X157880952Y-67454819D02*
X158119047Y-67454819D01*
X158119047Y-67454819D02*
X158214285Y-67502438D01*
X158214285Y-67502438D02*
X158261904Y-67550057D01*
X158261904Y-67550057D02*
X158309523Y-67645295D01*
X158309523Y-67645295D02*
X158309523Y-67740533D01*
X158309523Y-67740533D02*
X158261904Y-67883390D01*
X158261904Y-67883390D02*
X157690476Y-68454819D01*
X157690476Y-68454819D02*
X158309523Y-68454819D01*
X143666666Y-25954819D02*
X143666666Y-26669104D01*
X143666666Y-26669104D02*
X143619047Y-26811961D01*
X143619047Y-26811961D02*
X143523809Y-26907200D01*
X143523809Y-26907200D02*
X143380952Y-26954819D01*
X143380952Y-26954819D02*
X143285714Y-26954819D01*
X144047619Y-25954819D02*
X144666666Y-25954819D01*
X144666666Y-25954819D02*
X144333333Y-26335771D01*
X144333333Y-26335771D02*
X144476190Y-26335771D01*
X144476190Y-26335771D02*
X144571428Y-26383390D01*
X144571428Y-26383390D02*
X144619047Y-26431009D01*
X144619047Y-26431009D02*
X144666666Y-26526247D01*
X144666666Y-26526247D02*
X144666666Y-26764342D01*
X144666666Y-26764342D02*
X144619047Y-26859580D01*
X144619047Y-26859580D02*
X144571428Y-26907200D01*
X144571428Y-26907200D02*
X144476190Y-26954819D01*
X144476190Y-26954819D02*
X144190476Y-26954819D01*
X144190476Y-26954819D02*
X144095238Y-26907200D01*
X144095238Y-26907200D02*
X144047619Y-26859580D01*
X137424819Y-146738094D02*
X136424819Y-146738094D01*
X136424819Y-146738094D02*
X136424819Y-146499999D01*
X136424819Y-146499999D02*
X136472438Y-146357142D01*
X136472438Y-146357142D02*
X136567676Y-146261904D01*
X136567676Y-146261904D02*
X136662914Y-146214285D01*
X136662914Y-146214285D02*
X136853390Y-146166666D01*
X136853390Y-146166666D02*
X136996247Y-146166666D01*
X136996247Y-146166666D02*
X137186723Y-146214285D01*
X137186723Y-146214285D02*
X137281961Y-146261904D01*
X137281961Y-146261904D02*
X137377200Y-146357142D01*
X137377200Y-146357142D02*
X137424819Y-146499999D01*
X137424819Y-146499999D02*
X137424819Y-146738094D01*
X137424819Y-145214285D02*
X137424819Y-145785713D01*
X137424819Y-145499999D02*
X136424819Y-145499999D01*
X136424819Y-145499999D02*
X136567676Y-145595237D01*
X136567676Y-145595237D02*
X136662914Y-145690475D01*
X136662914Y-145690475D02*
X136710533Y-145785713D01*
X136854819Y-141181904D02*
X135854819Y-141181904D01*
X136854819Y-140610476D02*
X136283390Y-141039047D01*
X135854819Y-140610476D02*
X136426247Y-141181904D01*
X164333333Y-46454819D02*
X164000000Y-45978628D01*
X163761905Y-46454819D02*
X163761905Y-45454819D01*
X163761905Y-45454819D02*
X164142857Y-45454819D01*
X164142857Y-45454819D02*
X164238095Y-45502438D01*
X164238095Y-45502438D02*
X164285714Y-45550057D01*
X164285714Y-45550057D02*
X164333333Y-45645295D01*
X164333333Y-45645295D02*
X164333333Y-45788152D01*
X164333333Y-45788152D02*
X164285714Y-45883390D01*
X164285714Y-45883390D02*
X164238095Y-45931009D01*
X164238095Y-45931009D02*
X164142857Y-45978628D01*
X164142857Y-45978628D02*
X163761905Y-45978628D01*
X164714286Y-45550057D02*
X164761905Y-45502438D01*
X164761905Y-45502438D02*
X164857143Y-45454819D01*
X164857143Y-45454819D02*
X165095238Y-45454819D01*
X165095238Y-45454819D02*
X165190476Y-45502438D01*
X165190476Y-45502438D02*
X165238095Y-45550057D01*
X165238095Y-45550057D02*
X165285714Y-45645295D01*
X165285714Y-45645295D02*
X165285714Y-45740533D01*
X165285714Y-45740533D02*
X165238095Y-45883390D01*
X165238095Y-45883390D02*
X164666667Y-46454819D01*
X164666667Y-46454819D02*
X165285714Y-46454819D01*
X167166666Y-31454819D02*
X167166666Y-32169104D01*
X167166666Y-32169104D02*
X167119047Y-32311961D01*
X167119047Y-32311961D02*
X167023809Y-32407200D01*
X167023809Y-32407200D02*
X166880952Y-32454819D01*
X166880952Y-32454819D02*
X166785714Y-32454819D01*
X168119047Y-31454819D02*
X167642857Y-31454819D01*
X167642857Y-31454819D02*
X167595238Y-31931009D01*
X167595238Y-31931009D02*
X167642857Y-31883390D01*
X167642857Y-31883390D02*
X167738095Y-31835771D01*
X167738095Y-31835771D02*
X167976190Y-31835771D01*
X167976190Y-31835771D02*
X168071428Y-31883390D01*
X168071428Y-31883390D02*
X168119047Y-31931009D01*
X168119047Y-31931009D02*
X168166666Y-32026247D01*
X168166666Y-32026247D02*
X168166666Y-32264342D01*
X168166666Y-32264342D02*
X168119047Y-32359580D01*
X168119047Y-32359580D02*
X168071428Y-32407200D01*
X168071428Y-32407200D02*
X167976190Y-32454819D01*
X167976190Y-32454819D02*
X167738095Y-32454819D01*
X167738095Y-32454819D02*
X167642857Y-32407200D01*
X167642857Y-32407200D02*
X167595238Y-32359580D01*
D14*
%TO.C,U1*%
X159089637Y-107430000D02*
X159089637Y-89590000D01*
X159089637Y-107430000D02*
X156429637Y-107430000D01*
X159089637Y-89590000D02*
X156429637Y-89590000D01*
X157759637Y-110030000D02*
X156429637Y-110030000D01*
X156429637Y-110030000D02*
X156429637Y-108700000D01*
X156429637Y-107430000D02*
X156429637Y-89590000D01*
%TO.C,A1*%
X90840000Y-110469676D02*
G75*
G02*
X90420000Y-109890000I190051J579692D01*
G01*
X90420000Y-89890000D02*
G75*
G02*
X90840063Y-89310324I610000J0D01*
G01*
X141640000Y-109890000D02*
X141640000Y-106052061D01*
X141640000Y-103490000D02*
X141640000Y-105127939D01*
X141640000Y-94652061D02*
X141640000Y-96290000D01*
X141640000Y-93727939D02*
X141640000Y-89890000D01*
X141219937Y-110160000D02*
X141577000Y-110160000D01*
X141219937Y-89620000D02*
X141577000Y-89620000D01*
X140726480Y-107400000D02*
X141640000Y-107400000D01*
X140726480Y-92380000D02*
X141640000Y-92380000D01*
X138680000Y-110500000D02*
X139100000Y-110500000D01*
X138680000Y-110160000D02*
X139100000Y-110160000D01*
X138680000Y-89620000D02*
X139100000Y-89620000D01*
X138680000Y-89280000D02*
X139100000Y-89280000D01*
X136140000Y-110500000D02*
X136560000Y-110500000D01*
X136140000Y-110160000D02*
X136560000Y-110160000D01*
X136140000Y-89620000D02*
X136560000Y-89620000D01*
X136140000Y-89280000D02*
X136560000Y-89280000D01*
X133600000Y-110500000D02*
X134020000Y-110500000D01*
X133600000Y-110160000D02*
X134020000Y-110160000D01*
X133600000Y-89620000D02*
X134020000Y-89620000D01*
X133600000Y-89280000D02*
X134020000Y-89280000D01*
X131060000Y-110500000D02*
X131480000Y-110500000D01*
X131060000Y-110160000D02*
X131480000Y-110160000D01*
X131060000Y-89620000D02*
X131480000Y-89620000D01*
X131060000Y-89280000D02*
X131480000Y-89280000D01*
X128520000Y-110500000D02*
X128940000Y-110500000D01*
X128520000Y-110160000D02*
X128940000Y-110160000D01*
X128520000Y-89620000D02*
X128940000Y-89620000D01*
X128520000Y-89280000D02*
X128940000Y-89280000D01*
X125980000Y-110500000D02*
X126400000Y-110500000D01*
X125980000Y-110160000D02*
X126400000Y-110160000D01*
X125980000Y-89620000D02*
X126400000Y-89620000D01*
X125980000Y-89280000D02*
X126400000Y-89280000D01*
X123440000Y-110500000D02*
X123860000Y-110500000D01*
X123440000Y-110160000D02*
X123860000Y-110160000D01*
X123440000Y-89620000D02*
X123860000Y-89620000D01*
X123440000Y-89280000D02*
X123860000Y-89280000D01*
X120900000Y-110500000D02*
X121320000Y-110500000D01*
X120900000Y-110160000D02*
X121320000Y-110160000D01*
X120900000Y-89620000D02*
X121320000Y-89620000D01*
X120900000Y-89280000D02*
X121320000Y-89280000D01*
X118360000Y-110500000D02*
X118780000Y-110500000D01*
X118360000Y-110160000D02*
X118780000Y-110160000D01*
X118360000Y-89620000D02*
X118780000Y-89620000D01*
X118360000Y-89280000D02*
X118780000Y-89280000D01*
X115820000Y-110500000D02*
X116240000Y-110500000D01*
X115820000Y-110160000D02*
X116240000Y-110160000D01*
X115820000Y-89620000D02*
X116240000Y-89620000D01*
X115820000Y-89280000D02*
X116240000Y-89280000D01*
X113280000Y-110500000D02*
X113700000Y-110500000D01*
X113280000Y-110160000D02*
X113700000Y-110160000D01*
X113280000Y-89620000D02*
X113700000Y-89620000D01*
X113280000Y-89280000D02*
X113700000Y-89280000D01*
X110740000Y-110500000D02*
X111160000Y-110500000D01*
X110740000Y-110160000D02*
X111160000Y-110160000D01*
X110740000Y-89620000D02*
X111160000Y-89620000D01*
X110740000Y-89280000D02*
X111160000Y-89280000D01*
X108200000Y-110500000D02*
X108620000Y-110500000D01*
X108200000Y-110160000D02*
X108620000Y-110160000D01*
X108200000Y-89620000D02*
X108620000Y-89620000D01*
X108200000Y-89280000D02*
X108620000Y-89280000D01*
X105660000Y-110500000D02*
X106080000Y-110500000D01*
X105660000Y-110160000D02*
X106080000Y-110160000D01*
X105660000Y-89620000D02*
X106080000Y-89620000D01*
X105660000Y-89280000D02*
X106080000Y-89280000D01*
X103120000Y-110500000D02*
X103540000Y-110500000D01*
X103120000Y-110160000D02*
X103540000Y-110160000D01*
X103120000Y-89620000D02*
X103540000Y-89620000D01*
X103120000Y-89280000D02*
X103540000Y-89280000D01*
X100580000Y-110500000D02*
X101000000Y-110500000D01*
X100580000Y-110160000D02*
X101000000Y-110160000D01*
X100580000Y-89620000D02*
X101000000Y-89620000D01*
X100580000Y-89280000D02*
X101000000Y-89280000D01*
X98040000Y-110500000D02*
X98460000Y-110500000D01*
X98040000Y-110160000D02*
X98460000Y-110160000D01*
X98040000Y-89620000D02*
X98460000Y-89620000D01*
X98040000Y-89280000D02*
X98460000Y-89280000D01*
X95500000Y-110500000D02*
X95920000Y-110500000D01*
X95500000Y-110160000D02*
X95920000Y-110160000D01*
X95500000Y-89620000D02*
X95920000Y-89620000D01*
X95500000Y-89280000D02*
X95920000Y-89280000D01*
X94940000Y-103790000D02*
X94940000Y-103493910D01*
X94940000Y-101136090D02*
X94940000Y-98643910D01*
X94940000Y-96286090D02*
X94940000Y-95990000D01*
X93726480Y-107400000D02*
X138333520Y-107400000D01*
X93726480Y-92380000D02*
X138333520Y-92380000D01*
X93724000Y-103790000D02*
X94940000Y-103790000D01*
X93724000Y-95990000D02*
X94940000Y-95990000D01*
X92960000Y-110500000D02*
X93380000Y-110500000D01*
X92960000Y-110500000D02*
X92960000Y-110980000D01*
X92960000Y-110160000D02*
X93380000Y-110160000D01*
X92960000Y-89620000D02*
X93380000Y-89620000D01*
X92960000Y-89280000D02*
X93380000Y-89280000D01*
X90840063Y-110160000D02*
X90483000Y-110160000D01*
X90840063Y-89620000D02*
X90483000Y-89620000D01*
X90840000Y-110469676D02*
X90840000Y-110980000D01*
X90420000Y-109890000D02*
X90420000Y-107400000D01*
X90420000Y-107400000D02*
X91333520Y-107400000D01*
X90420000Y-107400000D02*
X90420000Y-106052060D01*
X90420000Y-105127939D02*
X90420000Y-104125000D01*
X90420000Y-104125000D02*
X90420000Y-95655000D01*
X90420000Y-103790000D02*
X91336000Y-103790000D01*
X90420000Y-95990000D02*
X91336000Y-95990000D01*
X90420000Y-95655000D02*
X90420000Y-94652061D01*
X90420000Y-93727939D02*
X90420000Y-92380000D01*
X90420000Y-92380000D02*
X91333520Y-92380000D01*
X90420000Y-89890000D02*
X90420000Y-92380000D01*
%TO.C,C7*%
X98620000Y-86370000D02*
X92380000Y-86370000D01*
X98620000Y-85835000D02*
X98620000Y-86370000D01*
X98620000Y-83630000D02*
X98620000Y-84165000D01*
X92380000Y-86370000D02*
X92380000Y-85835000D01*
X92380000Y-84165000D02*
X92380000Y-83630000D01*
X92380000Y-83630000D02*
X98620000Y-83630000D01*
%TO.C,C6*%
X156620000Y-34370000D02*
X150380000Y-34370000D01*
X156620000Y-33835000D02*
X156620000Y-34370000D01*
X156620000Y-31630000D02*
X156620000Y-32165000D01*
X150380000Y-34370000D02*
X150380000Y-33835000D01*
X150380000Y-32165000D02*
X150380000Y-31630000D01*
X150380000Y-31630000D02*
X156620000Y-31630000D01*
%TO.C,C5*%
X160130000Y-111120000D02*
X160130000Y-104880000D01*
X160665000Y-111120000D02*
X160130000Y-111120000D01*
X162870000Y-111120000D02*
X162335000Y-111120000D01*
X160130000Y-104880000D02*
X160665000Y-104880000D01*
X162335000Y-104880000D02*
X162870000Y-104880000D01*
X162870000Y-104880000D02*
X162870000Y-111120000D01*
%TO.C,C4*%
X162120000Y-149370000D02*
X155880000Y-149370000D01*
X162120000Y-148835000D02*
X162120000Y-149370000D01*
X162120000Y-146630000D02*
X162120000Y-147165000D01*
X155880000Y-149370000D02*
X155880000Y-148835000D01*
X155880000Y-147165000D02*
X155880000Y-146630000D01*
X155880000Y-146630000D02*
X162120000Y-146630000D01*
%TO.C,C3*%
X165120000Y-34370000D02*
X158880000Y-34370000D01*
X165120000Y-33835000D02*
X165120000Y-34370000D01*
X165120000Y-31630000D02*
X165120000Y-32165000D01*
X158880000Y-34370000D02*
X158880000Y-33835000D01*
X158880000Y-32165000D02*
X158880000Y-31630000D01*
X158880000Y-31630000D02*
X165120000Y-31630000D01*
%TO.C,C2*%
X137240113Y-139525000D02*
X137740113Y-139525000D01*
X137490113Y-139275000D02*
X137490113Y-139775000D01*
X140044888Y-138420000D02*
X140044888Y-143580000D01*
X140084888Y-138420000D02*
X140084888Y-143580000D01*
X140124888Y-138421000D02*
X140124888Y-143579000D01*
X140164888Y-138423000D02*
X140164888Y-143577000D01*
X140204888Y-138425000D02*
X140204888Y-143575000D01*
X140244888Y-138428000D02*
X140244888Y-143572000D01*
X140284888Y-138431000D02*
X140284888Y-139960000D01*
X140284888Y-142040000D02*
X140284888Y-143569000D01*
X140324888Y-138435000D02*
X140324888Y-139960000D01*
X140324888Y-142040000D02*
X140324888Y-143565000D01*
X140364888Y-138440000D02*
X140364888Y-139960000D01*
X140364888Y-142040000D02*
X140364888Y-143560000D01*
X140404888Y-138445000D02*
X140404888Y-139960000D01*
X140404888Y-142040000D02*
X140404888Y-143555000D01*
X140444888Y-138451000D02*
X140444888Y-139960000D01*
X140444888Y-142040000D02*
X140444888Y-143549000D01*
X140484888Y-138457000D02*
X140484888Y-139960000D01*
X140484888Y-142040000D02*
X140484888Y-143543000D01*
X140524888Y-138464000D02*
X140524888Y-139960000D01*
X140524888Y-142040000D02*
X140524888Y-143536000D01*
X140564888Y-138472000D02*
X140564888Y-139960000D01*
X140564888Y-142040000D02*
X140564888Y-143528000D01*
X140604888Y-138481000D02*
X140604888Y-139960000D01*
X140604888Y-142040000D02*
X140604888Y-143519000D01*
X140644888Y-138490000D02*
X140644888Y-139960000D01*
X140644888Y-142040000D02*
X140644888Y-143510000D01*
X140684888Y-138499000D02*
X140684888Y-139960000D01*
X140684888Y-142040000D02*
X140684888Y-143501000D01*
X140724888Y-138510000D02*
X140724888Y-139960000D01*
X140724888Y-142040000D02*
X140724888Y-143490000D01*
X140764888Y-138521000D02*
X140764888Y-139960000D01*
X140764888Y-142040000D02*
X140764888Y-143479000D01*
X140804888Y-138533000D02*
X140804888Y-139960000D01*
X140804888Y-142040000D02*
X140804888Y-143467000D01*
X140844888Y-138545000D02*
X140844888Y-139960000D01*
X140844888Y-142040000D02*
X140844888Y-143455000D01*
X140884888Y-138558000D02*
X140884888Y-139960000D01*
X140884888Y-142040000D02*
X140884888Y-143442000D01*
X140924888Y-138572000D02*
X140924888Y-139960000D01*
X140924888Y-142040000D02*
X140924888Y-143428000D01*
X140964888Y-138587000D02*
X140964888Y-139960000D01*
X140964888Y-142040000D02*
X140964888Y-143413000D01*
X141004888Y-138602000D02*
X141004888Y-139960000D01*
X141004888Y-142040000D02*
X141004888Y-143398000D01*
X141044888Y-138618000D02*
X141044888Y-139960000D01*
X141044888Y-142040000D02*
X141044888Y-143382000D01*
X141084888Y-138635000D02*
X141084888Y-139960000D01*
X141084888Y-142040000D02*
X141084888Y-143365000D01*
X141124888Y-138653000D02*
X141124888Y-139960000D01*
X141124888Y-142040000D02*
X141124888Y-143347000D01*
X141164888Y-138671000D02*
X141164888Y-139960000D01*
X141164888Y-142040000D02*
X141164888Y-143329000D01*
X141204888Y-138691000D02*
X141204888Y-139960000D01*
X141204888Y-142040000D02*
X141204888Y-143309000D01*
X141244888Y-138711000D02*
X141244888Y-139960000D01*
X141244888Y-142040000D02*
X141244888Y-143289000D01*
X141284888Y-138732000D02*
X141284888Y-139960000D01*
X141284888Y-142040000D02*
X141284888Y-143268000D01*
X141324888Y-138754000D02*
X141324888Y-139960000D01*
X141324888Y-142040000D02*
X141324888Y-143246000D01*
X141364888Y-138777000D02*
X141364888Y-139960000D01*
X141364888Y-142040000D02*
X141364888Y-143223000D01*
X141404888Y-138801000D02*
X141404888Y-139960000D01*
X141404888Y-142040000D02*
X141404888Y-143199000D01*
X141444888Y-138825000D02*
X141444888Y-139960000D01*
X141444888Y-142040000D02*
X141444888Y-143175000D01*
X141484888Y-138851000D02*
X141484888Y-139960000D01*
X141484888Y-142040000D02*
X141484888Y-143149000D01*
X141524888Y-138878000D02*
X141524888Y-139960000D01*
X141524888Y-142040000D02*
X141524888Y-143122000D01*
X141564888Y-138906000D02*
X141564888Y-139960000D01*
X141564888Y-142040000D02*
X141564888Y-143094000D01*
X141604888Y-138935000D02*
X141604888Y-139960000D01*
X141604888Y-142040000D02*
X141604888Y-143065000D01*
X141644888Y-138965000D02*
X141644888Y-139960000D01*
X141644888Y-142040000D02*
X141644888Y-143035000D01*
X141684888Y-138997000D02*
X141684888Y-139960000D01*
X141684888Y-142040000D02*
X141684888Y-143003000D01*
X141724888Y-139030000D02*
X141724888Y-139960000D01*
X141724888Y-142040000D02*
X141724888Y-142970000D01*
X141764888Y-139064000D02*
X141764888Y-139960000D01*
X141764888Y-142040000D02*
X141764888Y-142936000D01*
X141804888Y-139099000D02*
X141804888Y-139960000D01*
X141804888Y-142040000D02*
X141804888Y-142901000D01*
X141844888Y-139136000D02*
X141844888Y-139960000D01*
X141844888Y-142040000D02*
X141844888Y-142864000D01*
X141884888Y-139175000D02*
X141884888Y-139960000D01*
X141884888Y-142040000D02*
X141884888Y-142825000D01*
X141924888Y-139215000D02*
X141924888Y-139960000D01*
X141924888Y-142040000D02*
X141924888Y-142785000D01*
X141964888Y-139257000D02*
X141964888Y-139960000D01*
X141964888Y-142040000D02*
X141964888Y-142743000D01*
X142004888Y-139301000D02*
X142004888Y-139960000D01*
X142004888Y-142040000D02*
X142004888Y-142699000D01*
X142044888Y-139348000D02*
X142044888Y-139960000D01*
X142044888Y-142040000D02*
X142044888Y-142652000D01*
X142084888Y-139396000D02*
X142084888Y-139960000D01*
X142084888Y-142040000D02*
X142084888Y-142604000D01*
X142124888Y-139447000D02*
X142124888Y-139960000D01*
X142124888Y-142040000D02*
X142124888Y-142553000D01*
X142164888Y-139501000D02*
X142164888Y-139960000D01*
X142164888Y-142040000D02*
X142164888Y-142499000D01*
X142204888Y-139557000D02*
X142204888Y-139960000D01*
X142204888Y-142040000D02*
X142204888Y-142443000D01*
X142244888Y-139617000D02*
X142244888Y-139960000D01*
X142244888Y-142040000D02*
X142244888Y-142383000D01*
X142284888Y-139681000D02*
X142284888Y-139960000D01*
X142284888Y-142040000D02*
X142284888Y-142319000D01*
X142324888Y-139749000D02*
X142324888Y-139960000D01*
X142324888Y-142040000D02*
X142324888Y-142251000D01*
X142364888Y-139823000D02*
X142364888Y-142177000D01*
X142404888Y-139902000D02*
X142404888Y-142098000D01*
X142444888Y-139989000D02*
X142444888Y-142011000D01*
X142484888Y-140086000D02*
X142484888Y-141914000D01*
X142524888Y-140195000D02*
X142524888Y-141805000D01*
X142564888Y-140323000D02*
X142564888Y-141677000D01*
X142604888Y-140483000D02*
X142604888Y-141517000D01*
X142644888Y-140717000D02*
X142644888Y-141283000D01*
X142664888Y-141000000D02*
G75*
G02*
X137424888Y-141000000I-2620000J0D01*
G01*
X137424888Y-141000000D02*
G75*
G02*
X142664888Y-141000000I2620000J0D01*
G01*
%TO.C,C1*%
X145120000Y-68370000D02*
X138880000Y-68370000D01*
X145120000Y-67835000D02*
X145120000Y-68370000D01*
X145120000Y-65630000D02*
X145120000Y-66165000D01*
X138880000Y-68370000D02*
X138880000Y-67835000D01*
X138880000Y-66165000D02*
X138880000Y-65630000D01*
X138880000Y-65630000D02*
X145120000Y-65630000D01*
%TO.C,R1*%
X160370000Y-38040000D02*
X160370000Y-44580000D01*
X160040000Y-38040000D02*
X160370000Y-38040000D01*
X157960000Y-38040000D02*
X157630000Y-38040000D01*
X157630000Y-38040000D02*
X157630000Y-44580000D01*
X160370000Y-44580000D02*
X160040000Y-44580000D01*
X157630000Y-44580000D02*
X157960000Y-44580000D01*
%TO.C,SW1*%
X132307500Y-26607500D02*
X132307500Y-25607500D01*
X132557500Y-35297500D02*
X132557500Y-25857500D01*
X133307500Y-25607500D02*
X132307500Y-25607500D01*
X135877500Y-28877500D02*
X135877500Y-32177500D01*
X139177500Y-28877500D02*
X135877500Y-28877500D01*
X139177500Y-28877500D02*
X139177500Y-32177500D01*
X139177500Y-32177500D02*
X135877500Y-32177500D01*
X142597500Y-25857500D02*
X132557500Y-25857500D01*
X142597500Y-35297500D02*
X132557500Y-35297500D01*
X142597500Y-35297500D02*
X142597500Y-25857500D01*
%TO.C,J4*%
X179730000Y-116190000D02*
X181000000Y-116190000D01*
X179730000Y-117460000D02*
X179730000Y-116190000D01*
X182077358Y-119570000D02*
X182390000Y-119570000D01*
X182077358Y-120430000D02*
X182390000Y-120430000D01*
X182077358Y-122110000D02*
X182390000Y-122110000D01*
X182077358Y-122970000D02*
X182390000Y-122970000D01*
X182077358Y-124650000D02*
X182390000Y-124650000D01*
X182077358Y-125510000D02*
X182390000Y-125510000D01*
X182160000Y-117030000D02*
X182390000Y-117030000D01*
X182160000Y-117890000D02*
X182390000Y-117890000D01*
X182390000Y-116080000D02*
X182390000Y-126460000D01*
X182390000Y-118730000D02*
X185150000Y-118730000D01*
X182390000Y-121270000D02*
X185150000Y-121270000D01*
X182390000Y-123810000D02*
X185150000Y-123810000D01*
X182390000Y-126460000D02*
X185150000Y-126460000D01*
X185150000Y-116080000D02*
X182390000Y-116080000D01*
X185150000Y-119570000D02*
X191150000Y-119570000D01*
X185150000Y-122110000D02*
X191150000Y-122110000D01*
X185150000Y-124650000D02*
X191150000Y-124650000D01*
X185150000Y-126460000D02*
X185150000Y-116080000D01*
X191150000Y-119570000D02*
X191150000Y-120430000D01*
X191150000Y-120430000D02*
X185150000Y-120430000D01*
X191150000Y-122110000D02*
X191150000Y-122970000D01*
X191150000Y-122970000D02*
X185150000Y-122970000D01*
X191150000Y-124650000D02*
X191150000Y-125510000D01*
X191150000Y-125510000D02*
X185150000Y-125510000D01*
X185150000Y-117030000D02*
X191150000Y-117030000D01*
X191150000Y-117890000D01*
X185150000Y-117890000D01*
X185150000Y-117030000D01*
G36*
X185150000Y-117030000D02*
G01*
X191150000Y-117030000D01*
X191150000Y-117890000D01*
X185150000Y-117890000D01*
X185150000Y-117030000D01*
G37*
%TO.C,J1*%
X131390000Y-156590000D02*
X133740000Y-156590000D01*
X131390000Y-158290000D02*
X131390000Y-156590000D01*
X133310000Y-163760000D02*
X145690000Y-163760000D01*
X133740000Y-156590000D02*
X133740000Y-154650000D01*
X147610000Y-156590000D02*
X145260000Y-156590000D01*
X147610000Y-158290000D02*
X147610000Y-156590000D01*
D15*
%TO.C,J2*%
X92500000Y-126810000D02*
X92500000Y-116650000D01*
X92500000Y-126810000D02*
X89960000Y-126810000D01*
X89960000Y-126810000D02*
X89960000Y-116650000D01*
X89960000Y-116650000D02*
X92500000Y-116650000D01*
X94100000Y-116000000D02*
G75*
G02*
X93900000Y-116000000I-100000J0D01*
G01*
X93900000Y-116000000D02*
G75*
G02*
X94100000Y-116000000I100000J0D01*
G01*
D14*
%TO.C,J6*%
X156810000Y-145880000D02*
X156810000Y-144500000D01*
X158190000Y-145880000D02*
X156810000Y-145880000D01*
X159460000Y-145880000D02*
X167190000Y-145880000D01*
X159460000Y-145880000D02*
X159460000Y-143120000D01*
X167190000Y-145880000D02*
X167190000Y-143120000D01*
X159460000Y-143120000D02*
X167190000Y-143120000D01*
%TO.C,U2*%
X142570000Y-71830000D02*
X160410000Y-71830000D01*
X142570000Y-71830000D02*
X142570000Y-69170000D01*
X160410000Y-71830000D02*
X160410000Y-69170000D01*
X139970000Y-70500000D02*
X139970000Y-69170000D01*
X139970000Y-69170000D02*
X141300000Y-69170000D01*
X142570000Y-69170000D02*
X160410000Y-69170000D01*
%TO.C,J3*%
X145890000Y-27635000D02*
X145890000Y-28785000D01*
X145890000Y-28785000D02*
X146940000Y-28785000D01*
X146940000Y-28785000D02*
X146940000Y-29775000D01*
X147060000Y-25665000D02*
X152940000Y-25665000D01*
X154110000Y-27635000D02*
X154110000Y-28785000D01*
X154110000Y-28785000D02*
X153060000Y-28785000D01*
%TO.C,D1*%
X134500000Y-142060000D02*
X134500000Y-143280000D01*
X135970000Y-144060000D02*
X133030000Y-144060000D01*
X135970000Y-144180000D02*
X133030000Y-144180000D01*
X135970000Y-144300000D02*
X133030000Y-144300000D01*
X134500000Y-149940000D02*
X134500000Y-148720000D01*
X135970000Y-143280000D02*
X133030000Y-143280000D01*
X133030000Y-148720000D01*
X135970000Y-148720000D01*
X135970000Y-143280000D01*
%TO.C,R2*%
X166080000Y-49920000D02*
X159540000Y-49920000D01*
X166080000Y-49590000D02*
X166080000Y-49920000D01*
X166080000Y-47510000D02*
X166080000Y-47180000D01*
X166080000Y-47180000D02*
X159540000Y-47180000D01*
X159540000Y-49920000D02*
X159540000Y-49590000D01*
X159540000Y-47180000D02*
X159540000Y-47510000D01*
%TO.C,J5*%
X166430000Y-19350000D02*
X166430000Y-25350000D01*
X165570000Y-19350000D02*
X166430000Y-19350000D01*
X163890000Y-19350000D02*
X163890000Y-25350000D01*
X163030000Y-19350000D02*
X163890000Y-19350000D01*
X161350000Y-19350000D02*
X161350000Y-25350000D01*
X160490000Y-19350000D02*
X161350000Y-19350000D01*
X167380000Y-25350000D02*
X157000000Y-25350000D01*
X165570000Y-25350000D02*
X165570000Y-19350000D01*
X163030000Y-25350000D02*
X163030000Y-19350000D01*
X160490000Y-25350000D02*
X160490000Y-19350000D01*
X157000000Y-25350000D02*
X157000000Y-28110000D01*
X167380000Y-28110000D02*
X167380000Y-25350000D01*
X164730000Y-28110000D02*
X164730000Y-25350000D01*
X162190000Y-28110000D02*
X162190000Y-25350000D01*
X159650000Y-28110000D02*
X159650000Y-25350000D01*
X157000000Y-28110000D02*
X167380000Y-28110000D01*
X158810000Y-28340000D02*
X158810000Y-28110000D01*
X157950000Y-28340000D02*
X157950000Y-28110000D01*
X166430000Y-28422642D02*
X166430000Y-28110000D01*
X165570000Y-28422642D02*
X165570000Y-28110000D01*
X163890000Y-28422642D02*
X163890000Y-28110000D01*
X163030000Y-28422642D02*
X163030000Y-28110000D01*
X161350000Y-28422642D02*
X161350000Y-28110000D01*
X160490000Y-28422642D02*
X160490000Y-28110000D01*
X158380000Y-30770000D02*
X157110000Y-30770000D01*
X157110000Y-30770000D02*
X157110000Y-29500000D01*
X157950000Y-25350000D02*
X158810000Y-25350000D01*
X158810000Y-19350000D01*
X157950000Y-19350000D01*
X157950000Y-25350000D01*
G36*
X157950000Y-25350000D02*
G01*
X158810000Y-25350000D01*
X158810000Y-19350000D01*
X157950000Y-19350000D01*
X157950000Y-25350000D01*
G37*
%TD*%
%LPC*%
D16*
%TO.C,U1*%
X157759637Y-108700000D03*
D17*
X157759637Y-106160000D03*
X157759637Y-103620000D03*
X157759637Y-101080000D03*
X157759637Y-98540000D03*
X157759637Y-96000000D03*
X157759637Y-93460000D03*
X157759637Y-90920000D03*
%TD*%
D18*
%TO.C,A1*%
X91900000Y-90200000D03*
D19*
X91900000Y-91000000D03*
D18*
X94440000Y-90200000D03*
D19*
X94440000Y-91000000D03*
D20*
X96980000Y-90200000D03*
D21*
X96980000Y-91000000D03*
D18*
X99520000Y-90200000D03*
D19*
X99520000Y-91000000D03*
D18*
X102060000Y-90200000D03*
D19*
X102060000Y-91000000D03*
D18*
X104600000Y-90200000D03*
D19*
X104600000Y-91000000D03*
D18*
X107140000Y-90200000D03*
D19*
X107140000Y-91000000D03*
D20*
X109680000Y-90200000D03*
D21*
X109680000Y-91000000D03*
D18*
X112220000Y-90200000D03*
D19*
X112220000Y-91000000D03*
D18*
X114760000Y-90200000D03*
D19*
X114760000Y-91000000D03*
D18*
X117300000Y-90200000D03*
D19*
X117300000Y-91000000D03*
D18*
X119840000Y-90200000D03*
D19*
X119840000Y-91000000D03*
D20*
X122380000Y-90200000D03*
D21*
X122380000Y-91000000D03*
D18*
X124920000Y-90200000D03*
D19*
X124920000Y-91000000D03*
D18*
X127460000Y-90200000D03*
D19*
X127460000Y-91000000D03*
D18*
X130000000Y-90200000D03*
D19*
X130000000Y-91000000D03*
D18*
X132540000Y-90200000D03*
D19*
X132540000Y-91000000D03*
D20*
X135080000Y-90200000D03*
D21*
X135080000Y-91000000D03*
D18*
X137620000Y-90200000D03*
D19*
X137620000Y-91000000D03*
D18*
X140160000Y-90200000D03*
D19*
X140160000Y-91000000D03*
X140160000Y-108780000D03*
D18*
X140160000Y-109580000D03*
D19*
X137620000Y-108780000D03*
D18*
X137620000Y-109580000D03*
D22*
X135080000Y-108780000D03*
D23*
X135080000Y-109580000D03*
D19*
X132540000Y-108780000D03*
D18*
X132540000Y-109580000D03*
D19*
X130000000Y-108780000D03*
D18*
X130000000Y-109580000D03*
D19*
X127460000Y-108780000D03*
D18*
X127460000Y-109580000D03*
D19*
X124920000Y-108780000D03*
D18*
X124920000Y-109580000D03*
D22*
X122380000Y-108780000D03*
D23*
X122380000Y-109580000D03*
D19*
X119840000Y-108780000D03*
D18*
X119840000Y-109580000D03*
D19*
X117300000Y-108780000D03*
D18*
X117300000Y-109580000D03*
D19*
X114760000Y-108780000D03*
D18*
X114760000Y-109580000D03*
D19*
X112220000Y-108780000D03*
D18*
X112220000Y-109580000D03*
D22*
X109680000Y-108780000D03*
D23*
X109680000Y-109580000D03*
D19*
X107140000Y-108780000D03*
D18*
X107140000Y-109580000D03*
D19*
X104600000Y-108780000D03*
D18*
X104600000Y-109580000D03*
D19*
X102060000Y-108780000D03*
D18*
X102060000Y-109580000D03*
D19*
X99520000Y-108780000D03*
D18*
X99520000Y-109580000D03*
D22*
X96980000Y-108780000D03*
D23*
X96980000Y-109580000D03*
D19*
X94440000Y-108780000D03*
D18*
X94440000Y-109580000D03*
D24*
X91900000Y-108780000D03*
D20*
X91900000Y-109580000D03*
D25*
X92030000Y-97165000D03*
D26*
X95060000Y-97465000D03*
X95060000Y-102315000D03*
D25*
X92030000Y-102615000D03*
%TD*%
D19*
%TO.C,C7*%
X98000000Y-85000000D03*
X93000000Y-85000000D03*
%TD*%
%TO.C,C6*%
X156000000Y-33000000D03*
X151000000Y-33000000D03*
%TD*%
%TO.C,C5*%
X161500000Y-110500000D03*
X161500000Y-105500000D03*
%TD*%
%TO.C,C4*%
X161500000Y-148000000D03*
X156500000Y-148000000D03*
%TD*%
%TO.C,C3*%
X164500000Y-33000000D03*
X159500000Y-33000000D03*
%TD*%
D27*
%TO.C,C2*%
X138794888Y-141000000D03*
D19*
X141294888Y-141000000D03*
%TD*%
%TO.C,C1*%
X144500000Y-67000000D03*
X139500000Y-67000000D03*
%TD*%
%TO.C,R1*%
X159000000Y-37500000D03*
X159000000Y-45120000D03*
%TD*%
D28*
%TO.C,SW1*%
X135077500Y-27577500D03*
D29*
X140077500Y-27577500D03*
X135077500Y-33577500D03*
X140077500Y-33577500D03*
%TD*%
D16*
%TO.C,J4*%
X181000000Y-117460000D03*
D17*
X181000000Y-120000000D03*
X181000000Y-122540000D03*
X181000000Y-125080000D03*
%TD*%
D30*
%TO.C,J1*%
X134500000Y-156000000D03*
X136500000Y-156000000D03*
X138500000Y-156000000D03*
X140500000Y-156000000D03*
X142500000Y-156000000D03*
X144500000Y-156000000D03*
D31*
X132150000Y-160450000D03*
X146850000Y-160450000D03*
%TD*%
D32*
%TO.C,J2*%
X94000000Y-117920000D03*
D33*
X96540000Y-117920000D03*
X99080000Y-117920000D03*
X94000000Y-120460000D03*
X96540000Y-120460000D03*
X99080000Y-120460000D03*
X94000000Y-123000000D03*
X96540000Y-123000000D03*
X99080000Y-123000000D03*
X94000000Y-125540000D03*
X96540000Y-125540000D03*
X99080000Y-125540000D03*
%TD*%
D16*
%TO.C,J6*%
X158190000Y-144500000D03*
D17*
X160730000Y-144500000D03*
X163270000Y-144500000D03*
X165810000Y-144500000D03*
%TD*%
D16*
%TO.C,U2*%
X141300000Y-70500000D03*
D17*
X143840000Y-70500000D03*
X146380000Y-70500000D03*
X148920000Y-70500000D03*
X151460000Y-70500000D03*
X154000000Y-70500000D03*
X156540000Y-70500000D03*
X159080000Y-70500000D03*
%TD*%
D34*
%TO.C,J3*%
X147500000Y-29000000D03*
X148500000Y-29000000D03*
X149500000Y-29000000D03*
X150500000Y-29000000D03*
X151500000Y-29000000D03*
X152500000Y-29000000D03*
D35*
X146200000Y-26475000D03*
X153800000Y-26475000D03*
%TD*%
D36*
%TO.C,D1*%
X134500000Y-140920000D03*
D29*
X134500000Y-151080000D03*
%TD*%
D19*
%TO.C,R2*%
X166620000Y-48550000D03*
X159000000Y-48550000D03*
%TD*%
D16*
%TO.C,J5*%
X158380000Y-29500000D03*
D17*
X160920000Y-29500000D03*
X163460000Y-29500000D03*
X166000000Y-29500000D03*
%TD*%
%LPD*%
M02*
