%TF.GenerationSoftware,KiCad,Pcbnew,9.0.6*%
%TF.CreationDate,2025-12-22T22:41:29-05:00*%
%TF.ProjectId,TacoCopter_Flight_Controller,5461636f-436f-4707-9465-725f466c6967,rev?*%
%TF.SameCoordinates,Original*%
%TF.FileFunction,Soldermask,Bot*%
%TF.FilePolarity,Negative*%
%FSLAX46Y46*%
G04 Gerber Fmt 4.6, Leading zero omitted, Abs format (unit mm)*
G04 Created by KiCad (PCBNEW 9.0.6) date 2025-12-22 22:41:29*
%MOMM*%
%LPD*%
G01*
G04 APERTURE LIST*
G04 Aperture macros list*
%AMRoundRect*
0 Rectangle with rounded corners*
0 $1 Rounding radius*
0 $2 $3 $4 $5 $6 $7 $8 $9 X,Y pos of 4 corners*
0 Add a 4 corners polygon primitive as box body*
4,1,4,$2,$3,$4,$5,$6,$7,$8,$9,$2,$3,0*
0 Add four circle primitives for the rounded corners*
1,1,$1+$1,$2,$3*
1,1,$1+$1,$4,$5*
1,1,$1+$1,$6,$7*
1,1,$1+$1,$8,$9*
0 Add four rect primitives between the rounded corners*
20,1,$1+$1,$2,$3,$4,$5,0*
20,1,$1+$1,$4,$5,$6,$7,0*
20,1,$1+$1,$6,$7,$8,$9,0*
20,1,$1+$1,$8,$9,$2,$3,0*%
%AMFreePoly0*
4,1,37,0.000000,0.796148,0.078414,0.796148,0.232228,0.765552,0.377117,0.705537,0.507515,0.618408,0.618408,0.507515,0.705537,0.377117,0.765552,0.232228,0.796148,0.078414,0.796148,-0.078414,0.765552,-0.232228,0.705537,-0.377117,0.618408,-0.507515,0.507515,-0.618408,0.377117,-0.705537,0.232228,-0.765552,0.078414,-0.796148,0.000000,-0.796148,0.000000,-0.800000,-0.600000,-0.800000,
-0.603843,-0.796157,-0.639018,-0.796157,-0.711114,-0.766294,-0.766294,-0.711114,-0.796157,-0.639018,-0.796157,-0.603843,-0.800000,-0.600000,-0.800000,0.600000,-0.796157,0.603843,-0.796157,0.639018,-0.766294,0.711114,-0.711114,0.766294,-0.639018,0.796157,-0.603843,0.796157,-0.600000,0.800000,0.000000,0.800000,0.000000,0.796148,0.000000,0.796148,$1*%
%AMFreePoly1*
4,1,37,0.603843,0.796157,0.639018,0.796157,0.711114,0.766294,0.766294,0.711114,0.796157,0.639018,0.796157,0.603843,0.800000,0.600000,0.800000,-0.600000,0.796157,-0.603843,0.796157,-0.639018,0.766294,-0.711114,0.711114,-0.766294,0.639018,-0.796157,0.603843,-0.796157,0.600000,-0.800000,0.000000,-0.800000,0.000000,-0.796148,-0.078414,-0.796148,-0.232228,-0.765552,-0.377117,-0.705537,
-0.507515,-0.618408,-0.618408,-0.507515,-0.705537,-0.377117,-0.765552,-0.232228,-0.796148,-0.078414,-0.796148,0.078414,-0.765552,0.232228,-0.705537,0.377117,-0.618408,0.507515,-0.507515,0.618408,-0.377117,0.705537,-0.232228,0.765552,-0.078414,0.796148,0.000000,0.796148,0.000000,0.800000,0.600000,0.800000,0.603843,0.796157,0.603843,0.796157,$1*%
G04 Aperture macros list end*
%ADD10R,1.700000X1.700000*%
%ADD11C,1.700000*%
%ADD12C,1.600000*%
%ADD13FreePoly0,90.000000*%
%ADD14FreePoly1,90.000000*%
%ADD15RoundRect,0.200000X0.600000X-0.600000X0.600000X0.600000X-0.600000X0.600000X-0.600000X-0.600000X0*%
%ADD16C,2.200000*%
%ADD17C,1.850000*%
%ADD18RoundRect,0.250000X-0.550000X-0.550000X0.550000X-0.550000X0.550000X0.550000X-0.550000X0.550000X0*%
%ADD19R,1.800000X1.800000*%
%ADD20C,1.800000*%
%ADD21RoundRect,0.102000X-0.685000X0.685000X-0.685000X-0.685000X0.685000X-0.685000X0.685000X0.685000X0*%
%ADD22C,1.574000*%
%ADD23RoundRect,0.250000X-0.650000X0.650000X-0.650000X-0.650000X0.650000X-0.650000X0.650000X0.650000X0*%
G04 APERTURE END LIST*
D10*
%TO.C,U1*%
X157759637Y-108700000D03*
D11*
X157759637Y-106160000D03*
X157759637Y-103620000D03*
X157759637Y-101080000D03*
X157759637Y-98540000D03*
X157759637Y-96000000D03*
X157759637Y-93460000D03*
X157759637Y-90920000D03*
%TD*%
D12*
%TO.C,A1*%
X91900000Y-91000000D03*
X94440000Y-91000000D03*
D13*
X96980000Y-91000000D03*
D12*
X99520000Y-91000000D03*
X102060000Y-91000000D03*
X104600000Y-91000000D03*
X107140000Y-91000000D03*
D13*
X109680000Y-91000000D03*
D12*
X112220000Y-91000000D03*
X114760000Y-91000000D03*
X117300000Y-91000000D03*
X119840000Y-91000000D03*
D13*
X122380000Y-91000000D03*
D12*
X124920000Y-91000000D03*
X127460000Y-91000000D03*
X130000000Y-91000000D03*
X132540000Y-91000000D03*
D13*
X135080000Y-91000000D03*
D12*
X137620000Y-91000000D03*
X140160000Y-91000000D03*
X140160000Y-108780000D03*
X137620000Y-108780000D03*
D14*
X135080000Y-108780000D03*
D12*
X132540000Y-108780000D03*
X130000000Y-108780000D03*
X127460000Y-108780000D03*
X124920000Y-108780000D03*
D14*
X122380000Y-108780000D03*
D12*
X119840000Y-108780000D03*
X117300000Y-108780000D03*
X114760000Y-108780000D03*
X112220000Y-108780000D03*
D14*
X109680000Y-108780000D03*
D12*
X107140000Y-108780000D03*
X104600000Y-108780000D03*
X102060000Y-108780000D03*
X99520000Y-108780000D03*
D14*
X96980000Y-108780000D03*
D12*
X94440000Y-108780000D03*
D15*
X91900000Y-108780000D03*
D16*
X92030000Y-97165000D03*
D17*
X95060000Y-97465000D03*
X95060000Y-102315000D03*
D16*
X92030000Y-102615000D03*
%TD*%
D12*
%TO.C,C7*%
X98000000Y-85000000D03*
X93000000Y-85000000D03*
%TD*%
%TO.C,C6*%
X156000000Y-33000000D03*
X151000000Y-33000000D03*
%TD*%
%TO.C,C5*%
X161500000Y-110500000D03*
X161500000Y-105500000D03*
%TD*%
%TO.C,C4*%
X161500000Y-148000000D03*
X156500000Y-148000000D03*
%TD*%
%TO.C,C3*%
X164500000Y-33000000D03*
X159500000Y-33000000D03*
%TD*%
D18*
%TO.C,C2*%
X138794888Y-141000000D03*
D12*
X141294888Y-141000000D03*
%TD*%
%TO.C,C1*%
X144500000Y-67000000D03*
X139500000Y-67000000D03*
%TD*%
%TO.C,R1*%
X159000000Y-37500000D03*
X159000000Y-45120000D03*
%TD*%
D19*
%TO.C,SW1*%
X135077500Y-27577500D03*
D20*
X140077500Y-27577500D03*
X135077500Y-33577500D03*
X140077500Y-33577500D03*
%TD*%
D10*
%TO.C,J4*%
X181000000Y-117460000D03*
D11*
X181000000Y-120000000D03*
X181000000Y-122540000D03*
X181000000Y-125080000D03*
%TD*%
D21*
%TO.C,J2*%
X94000000Y-117920000D03*
D22*
X96540000Y-117920000D03*
X99080000Y-117920000D03*
X94000000Y-120460000D03*
X96540000Y-120460000D03*
X99080000Y-120460000D03*
X94000000Y-123000000D03*
X96540000Y-123000000D03*
X99080000Y-123000000D03*
X94000000Y-125540000D03*
X96540000Y-125540000D03*
X99080000Y-125540000D03*
%TD*%
D10*
%TO.C,J6*%
X158190000Y-144500000D03*
D11*
X160730000Y-144500000D03*
X163270000Y-144500000D03*
X165810000Y-144500000D03*
%TD*%
D10*
%TO.C,U2*%
X141300000Y-70500000D03*
D11*
X143840000Y-70500000D03*
X146380000Y-70500000D03*
X148920000Y-70500000D03*
X151460000Y-70500000D03*
X154000000Y-70500000D03*
X156540000Y-70500000D03*
X159080000Y-70500000D03*
%TD*%
D23*
%TO.C,D1*%
X134500000Y-140920000D03*
D20*
X134500000Y-151080000D03*
%TD*%
D12*
%TO.C,R2*%
X166620000Y-48550000D03*
X159000000Y-48550000D03*
%TD*%
D10*
%TO.C,J5*%
X158380000Y-29500000D03*
D11*
X160920000Y-29500000D03*
X163460000Y-29500000D03*
X166000000Y-29500000D03*
%TD*%
M02*
