M48
; DRILL file {KiCad 9.0.6} date 2025-12-22T22:45:33-0500
; FORMAT={-:-/ absolute / metric / decimal}
; #@! TF.CreationDate,2025-12-22T22:45:33-05:00
; #@! TF.GenerationSoftware,Kicad,Pcbnew,9.0.6
; #@! TF.FileFunction,Plated,1,2,PTH
FMAT,2
METRIC
; #@! TA.AperFunction,Plated,PTH,ViaDrill
T1C0.300
; #@! TA.AperFunction,Plated,PTH,ComponentDrill
T2C0.800
; #@! TA.AperFunction,Plated,PTH,ComponentDrill
T3C0.900
; #@! TA.AperFunction,Plated,PTH,ComponentDrill
T4C1.000
; #@! TA.AperFunction,Plated,PTH,ComponentDrill
T5C1.020
%
G90
G05
T1
X124.92Y-101.5
X125.0Y-114.5
X140.5Y-103.0
X147.0Y-45.0
X148.5Y-45.0
X149.0Y-111.5
T2
X93.0Y-85.0
X98.0Y-85.0
X138.795Y-141.0
X139.5Y-67.0
X141.295Y-141.0
X144.5Y-67.0
X151.0Y-33.0
X156.0Y-33.0
X156.5Y-148.0
X159.0Y-37.5
X159.0Y-45.12
X159.0Y-48.55
X159.5Y-33.0
X161.5Y-105.5
X161.5Y-110.5
X161.5Y-148.0
X164.5Y-33.0
X166.62Y-48.55
T3
X134.5Y-140.92
X134.5Y-151.08
X135.077Y-27.577
X135.077Y-33.578
X140.077Y-27.577
X140.077Y-33.578
T4
X91.9Y-91.0
X91.9Y-108.78
X94.44Y-91.0
X94.44Y-108.78
X96.98Y-91.0
X96.98Y-108.78
X99.52Y-91.0
X99.52Y-108.78
X102.06Y-91.0
X102.06Y-108.78
X104.6Y-91.0
X104.6Y-108.78
X107.14Y-91.0
X107.14Y-108.78
X109.68Y-91.0
X109.68Y-108.78
X112.22Y-91.0
X112.22Y-108.78
X114.76Y-91.0
X114.76Y-108.78
X117.3Y-91.0
X117.3Y-108.78
X119.84Y-91.0
X119.84Y-108.78
X122.38Y-91.0
X122.38Y-108.78
X124.92Y-91.0
X124.92Y-108.78
X127.46Y-91.0
X127.46Y-108.78
X130.0Y-91.0
X130.0Y-108.78
X132.54Y-91.0
X132.54Y-108.78
X135.08Y-91.0
X135.08Y-108.78
X137.62Y-91.0
X137.62Y-108.78
X140.16Y-91.0
X140.16Y-108.78
X141.3Y-70.5
X143.84Y-70.5
X146.38Y-70.5
X148.92Y-70.5
X151.46Y-70.5
X154.0Y-70.5
X156.54Y-70.5
X157.76Y-90.92
X157.76Y-93.46
X157.76Y-96.0
X157.76Y-98.54
X157.76Y-101.08
X157.76Y-103.62
X157.76Y-106.16
X157.76Y-108.7
X158.19Y-144.5
X158.38Y-29.5
X159.08Y-70.5
X160.73Y-144.5
X160.92Y-29.5
X163.27Y-144.5
X163.46Y-29.5
X165.81Y-144.5
X166.0Y-29.5
X181.0Y-117.46
X181.0Y-120.0
X181.0Y-122.54
X181.0Y-125.08
T5
X94.0Y-117.92
X94.0Y-120.46
X94.0Y-123.0
X94.0Y-125.54
X96.54Y-117.92
X96.54Y-120.46
X96.54Y-123.0
X96.54Y-125.54
X99.08Y-117.92
X99.08Y-120.46
X99.08Y-123.0
X99.08Y-125.54
M30
