%TF.GenerationSoftware,KiCad,Pcbnew,9.0.6*%
%TF.CreationDate,2025-12-23T20:17:27-05:00*%
%TF.ProjectId,TacoCopter_Flight_Controller,5461636f-436f-4707-9465-725f466c6967,rev?*%
%TF.SameCoordinates,Original*%
%TF.FileFunction,Drillmap*%
%TF.FilePolarity,Positive*%
%FSLAX45Y45*%
G04 Gerber Fmt 4.5, Leading zero omitted, Abs format (unit mm)*
G04 Created by KiCad (PCBNEW 9.0.6) date 2025-12-23 20:17:27*
%MOMM*%
%LPD*%
G01*
G04 APERTURE LIST*
%ADD10C,0.050000*%
%ADD11C,0.200000*%
G04 APERTURE END LIST*
D10*
X18900000Y-11700000D02*
X18900000Y-8250000D01*
X9600000Y-8650000D02*
G75*
G02*
X9200000Y-8650000I-200000J0D01*
G01*
X9200000Y-8650000D02*
G75*
G02*
X9600000Y-8650000I200000J0D01*
G01*
X9600000Y-11350000D02*
G75*
G02*
X9200000Y-11350000I-200000J0D01*
G01*
X9200000Y-11350000D02*
G75*
G02*
X9600000Y-11350000I200000J0D01*
G01*
X13100000Y-7650000D02*
X9000000Y-7650000D01*
X16900000Y-7650000D02*
X16900000Y-2500000D01*
X18300000Y-11350000D02*
G75*
G02*
X17900000Y-11350000I-200000J0D01*
G01*
X17900000Y-11350000D02*
G75*
G02*
X18300000Y-11350000I200000J0D01*
G01*
X9000000Y-7650000D02*
X9000000Y-12900000D01*
X18300000Y-8650000D02*
G75*
G02*
X17900000Y-8650000I-200000J0D01*
G01*
X17900000Y-8650000D02*
G75*
G02*
X18300000Y-8650000I200000J0D01*
G01*
X13100000Y-2500000D02*
X13100000Y-7650000D01*
X9000000Y-12900000D02*
X12900000Y-12900000D01*
X18900000Y-8250000D02*
X16900000Y-7650000D01*
X17100000Y-12700000D02*
X18900000Y-11700000D01*
X12900000Y-16500000D02*
X17100000Y-16500000D01*
X12100000Y-11350000D02*
G75*
G02*
X11700000Y-11350000I-200000J0D01*
G01*
X11700000Y-11350000D02*
G75*
G02*
X12100000Y-11350000I200000J0D01*
G01*
X17100000Y-16500000D02*
X17100000Y-12700000D01*
X12900000Y-12900000D02*
X12900000Y-16500000D01*
X12100000Y-8650000D02*
G75*
G02*
X11700000Y-8650000I-200000J0D01*
G01*
X11700000Y-8650000D02*
G75*
G02*
X12100000Y-8650000I200000J0D01*
G01*
X16900000Y-2500000D02*
X13100000Y-2500000D01*
D11*
X9258277Y-16813984D02*
X9258277Y-16613984D01*
X9258277Y-16613984D02*
X9305896Y-16613984D01*
X9305896Y-16613984D02*
X9334467Y-16623508D01*
X9334467Y-16623508D02*
X9353515Y-16642555D01*
X9353515Y-16642555D02*
X9363039Y-16661603D01*
X9363039Y-16661603D02*
X9372563Y-16699698D01*
X9372563Y-16699698D02*
X9372563Y-16728269D01*
X9372563Y-16728269D02*
X9363039Y-16766365D01*
X9363039Y-16766365D02*
X9353515Y-16785412D01*
X9353515Y-16785412D02*
X9334467Y-16804460D01*
X9334467Y-16804460D02*
X9305896Y-16813984D01*
X9305896Y-16813984D02*
X9258277Y-16813984D01*
X9458277Y-16813984D02*
X9458277Y-16680650D01*
X9458277Y-16718746D02*
X9467801Y-16699698D01*
X9467801Y-16699698D02*
X9477324Y-16690174D01*
X9477324Y-16690174D02*
X9496372Y-16680650D01*
X9496372Y-16680650D02*
X9515420Y-16680650D01*
X9582086Y-16813984D02*
X9582086Y-16680650D01*
X9582086Y-16613984D02*
X9572563Y-16623508D01*
X9572563Y-16623508D02*
X9582086Y-16633031D01*
X9582086Y-16633031D02*
X9591610Y-16623508D01*
X9591610Y-16623508D02*
X9582086Y-16613984D01*
X9582086Y-16613984D02*
X9582086Y-16633031D01*
X9705896Y-16813984D02*
X9686848Y-16804460D01*
X9686848Y-16804460D02*
X9677324Y-16785412D01*
X9677324Y-16785412D02*
X9677324Y-16613984D01*
X9810658Y-16813984D02*
X9791610Y-16804460D01*
X9791610Y-16804460D02*
X9782086Y-16785412D01*
X9782086Y-16785412D02*
X9782086Y-16613984D01*
X10039229Y-16813984D02*
X10039229Y-16613984D01*
X10039229Y-16613984D02*
X10105896Y-16756841D01*
X10105896Y-16756841D02*
X10172563Y-16613984D01*
X10172563Y-16613984D02*
X10172563Y-16813984D01*
X10353515Y-16813984D02*
X10353515Y-16709222D01*
X10353515Y-16709222D02*
X10343991Y-16690174D01*
X10343991Y-16690174D02*
X10324944Y-16680650D01*
X10324944Y-16680650D02*
X10286848Y-16680650D01*
X10286848Y-16680650D02*
X10267801Y-16690174D01*
X10353515Y-16804460D02*
X10334467Y-16813984D01*
X10334467Y-16813984D02*
X10286848Y-16813984D01*
X10286848Y-16813984D02*
X10267801Y-16804460D01*
X10267801Y-16804460D02*
X10258277Y-16785412D01*
X10258277Y-16785412D02*
X10258277Y-16766365D01*
X10258277Y-16766365D02*
X10267801Y-16747317D01*
X10267801Y-16747317D02*
X10286848Y-16737793D01*
X10286848Y-16737793D02*
X10334467Y-16737793D01*
X10334467Y-16737793D02*
X10353515Y-16728269D01*
X10448753Y-16680650D02*
X10448753Y-16880650D01*
X10448753Y-16690174D02*
X10467801Y-16680650D01*
X10467801Y-16680650D02*
X10505896Y-16680650D01*
X10505896Y-16680650D02*
X10524944Y-16690174D01*
X10524944Y-16690174D02*
X10534467Y-16699698D01*
X10534467Y-16699698D02*
X10543991Y-16718746D01*
X10543991Y-16718746D02*
X10543991Y-16775888D01*
X10543991Y-16775888D02*
X10534467Y-16794936D01*
X10534467Y-16794936D02*
X10524944Y-16804460D01*
X10524944Y-16804460D02*
X10505896Y-16813984D01*
X10505896Y-16813984D02*
X10467801Y-16813984D01*
X10467801Y-16813984D02*
X10448753Y-16804460D01*
X10629705Y-16794936D02*
X10639229Y-16804460D01*
X10639229Y-16804460D02*
X10629705Y-16813984D01*
X10629705Y-16813984D02*
X10620182Y-16804460D01*
X10620182Y-16804460D02*
X10629705Y-16794936D01*
X10629705Y-16794936D02*
X10629705Y-16813984D01*
X10629705Y-16690174D02*
X10639229Y-16699698D01*
X10639229Y-16699698D02*
X10629705Y-16709222D01*
X10629705Y-16709222D02*
X10620182Y-16699698D01*
X10620182Y-16699698D02*
X10629705Y-16690174D01*
X10629705Y-16690174D02*
X10629705Y-16709222D01*
M02*
